<mxfile host="app.diagrams.net" modified="2022-12-09T06:48:50.862Z" agent="5.0 (Macintosh; Intel Mac OS X 10_15_7) AppleWebKit/537.36 (KHTML, like Gecko) Chrome/107.0.0.0 Safari/537.36" etag="TH8HS9hSQMe71jl3Mc8X" version="20.5.3" type="github">
  <diagram id="e3Yrdo15SmmhL8X60xc8" name="第 1 页">
    <mxGraphModel dx="2066" dy="1129" grid="1" gridSize="10" guides="1" tooltips="1" connect="1" arrows="1" fold="1" page="1" pageScale="1" pageWidth="827" pageHeight="1169" math="0" shadow="0">
      <root>
        <mxCell id="0" />
        <mxCell id="1" parent="0" />
        <mxCell id="qaPD98lL8b2j3EAxigMS-1" value="" style="rounded=1;whiteSpace=wrap;html=1;shadow=0;sketch=1;glass=0;" vertex="1" parent="1">
          <mxGeometry x="120" y="170" width="610" height="430" as="geometry" />
        </mxCell>
        <mxCell id="qaPD98lL8b2j3EAxigMS-4" value="registry" style="text;html=1;strokeColor=#6c8ebf;fillColor=#dae8fc;align=center;verticalAlign=middle;whiteSpace=wrap;rounded=0;shadow=0;glass=0;sketch=1;" vertex="1" parent="1">
          <mxGeometry x="140" y="190" width="60" height="30" as="geometry" />
        </mxCell>
        <mxCell id="qaPD98lL8b2j3EAxigMS-5" value="DefaultService.Search" style="rounded=1;whiteSpace=wrap;html=1;shadow=0;glass=0;sketch=0;fillColor=#dae8fc;strokeColor=#6c8ebf;" vertex="1" parent="1">
          <mxGeometry x="235" y="190" width="135" height="60" as="geometry" />
        </mxCell>
        <mxCell id="qaPD98lL8b2j3EAxigMS-13" value="" style="shape=image;verticalLabelPosition=bottom;labelBackgroundColor=default;verticalAlign=top;aspect=fixed;imageAspect=0;image=data:image/png,iVBORw0KGgoAAAANSUhEUgAAAfIAAAFhCAYAAACLYyg9AAABXWlDQ1BJQ0MgUHJvZmlsZQAAKJF1kM8rgwEYxz9jy6+3OCAHhyk5IV6Km7Yl0dIaCrf3fTdDs73eTXJz4LwVFzfNxc3JlCj+AmrlIMnJPyC7sF7Pa5gfeerp++nb8zx9e6BK0Uwz7gZWEmkrPOb3zs7Ne2seUailjgaaNCNl+kKhoIzwqT+reIPL0UKPc+u8Jd9xWshkRo6PLieWdc/f+R9VH4mmDNFXadUwrTS4+oRD62nT4U3hZktCCe86HCvzocN6mc/eZ6bDAeFr4SZjUYsIPwh369/82Ddeia8ZHxmc9Eo0MTMl2irdTpBRJvESQmWIVXroR1L9szP4vhMgickGFkvEWCQt+z5xTOJEhcdJYNBLt7Aq11RU59e/f1jxkjkYfobqbMXT9+BkG9puK17nPjRuQf7K1Czt67Ouoju1MKCWWfGD5962n7qgZgdKWdt+ydl26UDu38FF4g0Ec2QqinUsOQAAADhlWElmTU0AKgAAAAgAAYdpAAQAAAABAAAAGgAAAAAAAqACAAQAAAABAAAB8qADAAQAAAABAAABYQAAAADqdPPSAABAAElEQVR4AexdB3xUxfMf0nsP6SEJSSgBQui9SEeKFEH/NgRFARF/CPJDBBQFkaYGpCk/FaUoIB1EWqjSe09CGgkpkN7rf2bfvZd3l0u4lEtjJ5+7t3V23/dd3uzOzs42gCYBRSCnokIWszM3h92B37Dw/836AiLi4+Slyh0eO6AvTB07Aho0aMDqZmXnQmxiIng6O8KXP26Ev8+eA31dHQj6aVWZvLu+PVnKP7VBKNt9wgdSmmrAw8EBls+YCo52NkpZ1P7qbTvhr2MnpPRRfXrBh6+OAj1dXSktv6AAFv3vdzh09ryURoEhPbri/YwEU2Mj6Z4+WPwtXL0fzMp1adUCFk2dCPp6elK9lPR0mPbN9xD8KFpKo8Cz7qM8uGhyv628G8O3M6eCkYGBUj+SUtNg+rKV8CDqkVL6OyOGwtvDBrG0S3fvw7Ql3yvllydS1b8rse39gUvAytwMhn84C56kpYnJ7Foe/OQV2zVrAl9MmsD4Unp+fgH0fHcqK6INnOVt8zBHgCPAEdAUgQalCXJNGZSnHL1QWzfxhdT0DLgfGVWeqpUua2lkCE1RgOnq6EA4CtKYxKRSebrZ24F3I3eIe5IIwVGRkFcgDG5KrVBGBr3wG7k4w4OwcHicVHqbZbCoUJYm9+tsYw0eri6giwOX8OgYiIpPUNvW/+bPhiYebizv5Y/nlImdWgb1OLEqca7HMPFb4whwBLSIQLUKci3eB2etRQRO/LSSaSn+vXkHZqwoW2OixW5w1hwBjgBHgCOgBgEdNWk8iSMgIeBia8u0GIWFhbB0w29SOg9wBDgCHAGOQO1AgM/Ia8dz4L3gCHAEOAIcAY5AhRDgM/IKwcYrcQQ4AhwBjgBHoHYgwAV57XgOvBccAY4AR4AjwBGoEAJckFcINl6JI8AR4AhwBDgCtQMBXbBz+ly5K8rbypXz6lZMB/esl3Y3lEd72kvLr6o7tTI2xq1bHpCKe7Tz0WCsOsjJ2ppt83O0t4GMtAzIzs/XarN9OrSF2W+/Dtk5efAQt7FxejYCDeiHJ7hUeHbhWlDiU9186KFTKH1SsfNxdekGagGGNd4FI3MAB18AffQfkZMBUKTtt18577jTqwDN+wE8VPbZUU4uFS/e7AWALm8CJIQCZKVWnE8N1Cz2VlIDjZfWpDUKP2fcf/0kKRHiUp4NqLGePjS0sYGohHgoVPw4F33wHvRs6w83gkNh0qLlJZra891isLYwB3KCQleyyh7w/n8gMy+PlSXHJbu+X8yEfUzCE3j5k3kleJSVYGNqCj8t+BQccK+2SLdDw2DK18srvC+9X8f2MBmd6jS0tsL/wSLoNn6KyJpdXxs8AN4a0h+d1Bgrpd8KeQhzAteVcJSiVKgSkVY+3uDX2BPuR0TB4fMXK8GpYlX9sf3XhwyAI+cvlXDcUzGO2q01XqcAZurhJ18X9hUWOx/SbquV494ZRx66OOy1w8GHOX6uFenA9aLqG4nMmfAmdG7lB6//93P2v7p5yQK4cPsuLFj/S/lvzNABwKYnQOo1gIwH5a9f12o0CgAYtQQfnH1xz/OyAXbOAbh7tDitpkMdXwOwcgU4GgiAjriqnTw7AgSMALixDyBR2SlWtfelnA3WSkFuamoCjd1cUCgXlirIaUb9X5wFkrA2MzFht03C7fqDUJjz/Ro4eOYcy2vq4V4CEpolk/Am0tcTXqQ66ChmcK9usP3wcZY+ekAfyWObvr4+SyvP16bFn4OFmSmkZWTCbXQG06aJDxN2a+d8AhMWLC4PK/B1c4XvP5nG+IkVRQ95YpyuQ7p1YkKcBifhMbFgb20Jrg4NoYW3F6yZO7PcgxE579ocbuHTGLrgS540Hqoe+Gpbvy1xEvS+bgGk4fV4HRHihOHQfOF/YADOyr/T066GR90z692uDTouagDJWVkwqGtn9v+bnonCqCJkhMLCfghAId5HfRfkLdEj48ivBZTuHwOIvo2DGHwntsT7d2tZuwR5yFmAht74XPCfg1O5EKiVgvxZd0CzZRJMzuiBjYTW0QuXISbhKXQLaIUqZW/M+wRem7OAjdwNUAj7oPcyuVvUXp3asyaorijIaRDwUq/ukiAf2LUjm/WqE5jP6l//Th2Y0CU3sGPQE1pqTg74e3vD6jnToamnO7g1tC/Vi5o63k29PBi/J8kpsHb7HvjsnTfUFYODZy/AdXQRez04RMrv0KIZfPvxVIZVMxzU3A2PlPJ4oPoRGIxCnGa0XxboAio3OWmAAHkgNDYyANJoEfVujzNMpENnakgFy1qvA196RjgCmy90dMs0gAcnijv9zzIAaxzQ1Cbav6g29aZO9aVMQd61ZQsmzK4/CIamHo3AHtXX5Ic8JT0NTl2/yW7UUFcPWqBa1Q7XZQ0N9CErKwdiniTA3YhISc1NBTUp182/Jejp6IKBvtAtD2cnVE0X+0i/evcupGTnwOeT32GC6dC/F5RUa2u374JNi+aBh5Mjazs4Mpq5Fh3YrTMEb90uPZi+uKZL9O+N29CjTSsWvhsWAc1RYNJs3Rxn0vZWlnDnYThLYwXK8fUKzuaJjl28zIQ4hae/NZYujF4fMhC+/t9vYvSZ19u4PDDz29Vw9sYtVrY0Qb5x38ESvC7cugvZubnMr3ozL89yCfKXeveAd156ETb/fRQ2H/xH4v3uyGEwvGdXWPnHX0ozYEvE7bev5iL+qLpEehSXADOWr4Lop09ZXFN+5PN+wkuDYeuh42xgFoCDMxqQJaelw6eB6+F6iDBQ2Y3LI/r4ezQ2NGT8u7b0gwMrl7IwfX20NBAeoCtgTduVKmopYIp8/6OYje8vULYzpZn6OzjT7YUqbG8d1CwVAvyN6uvNBXqQi/Xs8LNQLw+CUZ29DNPkpId1l2CeDq5Zf6TI08e0UdjWIJxBd0B+YcjvBPJbj/mqjoK/xvVvohWo6n8TVf59GhQyFfrZQh2Jn7y90sK0iDQS2+yN9X3xPmjAcqGwAQRhu5tw4EL3YYWfb7CvsXgf81Xug/jSWnwjrPseagDof9kAzyqg8wyISEu3DVXqjrbCO+HzSW+XT8vkPRdAB38ruhaMH9j3B7BsI4TpO/w7gNwnxXGv/+I6MgIXtR7AaQyABQ4gdLAvWWEAIQsU5XRxFomzW+tu+JLD330BDs/S8N0Y/asQlrhpWk6qUPlAO1QT62N/H11XFuLEOQvPI8i6W/k2KsvBFbUCA2YUc6Gl0Z/HC7iLqY27APTFgcipHwFcWwC0eFFYJniM/d8xC+CpbHJiZAYw8BMAn+4AJviLTH4McOsAqr/WCBoYkae1C8BwfIaurfEQBdTs3D6IbeIPVpVQHuEaJkCroQC2qMmgtfNQ1BwcWChgKJY3xd9kv48AfHsBGOPvi5YGnjwEOLkO4M4RsZTWrjplcba2sAAbS0voiC9IJ3t7yMzORlVxBqq1hH8EvQY60AtVXi6ovs1Hg6rHCQmgg/7UG6MqmA4NEUnTctnIPzMnG/LyhBdLAYJBcfGTjyoXH+Qd0NQHjaoeS0K8e4A/fP7eeJj++lg4fxMfroIOnRPWa7v6F/eFspp5NWIldh07pSgJsO1wEAu/1K83vDIY/8GRdhw9ya7l/WpoQ68r/N1dvcGuw3p2A2/UCtChG0R0UEx5KDTmsSTEy1OPyurhkoGhYmng+r0H5aruhs+VliDcHOyV6nk4ObF0+SCLCpDRGwnxh9jfjKxscMfw5m8+B/JHTqQpP9K0WJqZwcSRQ6AjahSIF9kw0KEo330yFWhZhSgR7SeSULjTQIWooLCAxSmNPrmKdE3bZUw0/CKhbFtOU8n+uDZOwm0dqtRTZIZihvju+l0/D97RLYRE5PsLCnlTzJ+F8cW6eaxHT/DbBtubgGkOKu22QGE9SLcIeQpEQnwV8puPQpmE+F8FDYAU4+Ow7ia9XMBXnRL1wfr0WaKfD2Px+hDbvoQCeACWLw/ZYb9moCA3xOtuHARswvvwxPAnmLYShTfKZ0hGhgV4HYO8m1KCjBph2TcwnbAlskHNGz1z+i0Q0W/AHu1DaBlM/D2wDE2/chNQUOOnIF2oUZAjxMV0UrXLybQJgFkzHEGgQLfqjGXjAbKjUEB4K0rhS973CwDHUYIQT8P/d/ptWnUCaLpMGDSwkpqWkzdeBWG3AIHJ1d1VwExLLIrwnZiDz4M+Ti3wJYGCVUf4/5ZatGiIGOOzGPkNQOdxaNsQB0Br/E74bN7aIBUDXQOAqXsB/IcJQvbW3wAGOJDpNgF//D8VlzOzA5iyB6BRW4CYm2hc9y/WGQHQFp+jnEiIv7sZVUBTBCEeegb7hmktBmI7+3GQZFxc+u1fhHZzUtGAZBfA/aP4O3DGAcDg4jJaDCkP7dU0pIOg0t+xCxclQzDxxeyJM1+ahT9Fle/Zm7fw3xDvDWdIvdsGgA0Ke0crK4hNTgZNy11SnBzmamcLbZo1hai4eDazl3dr3LAXWXTpLwgw0ryJ42BA5w4sTF+kIhfpn5Nn4MNXRuI6sT0TaLSGSoeY0KlfuWjUdjssTCwKV9BwhtJexHVmc1xzp7XtUJzNVYTEGUT800Qgw72P3xgLeTjQ+d/ug/DeqKFMCFaEb0XqzEYjIVoeoGUEGhBom8Z/vhgPmnnEhO0f33zBNCcTx46Cpb8Kz6s87VO/3/9qGdwMfQhm+Mz2r17OZubt/JoCaRrenr+IsSMjv8kvD4dzt+/BbLSP0DaNQmE3C2eOJJQPoJCcX6APCtFQatMkrCejICfapTIbH4jCi2bhlD43Xw/yke8PWO5nFLokoDfi75aMy/7EAUAL5EHW49tk6+uDMU4kGs4NQsHZA/kdRWE8J08fUpAfzdonomCfinljkMf/ZPWpLt0LVoFBeQYg6E/w3UkStxz0BGc0I7C9e7KZzUJksQcHFdQfEtx38V2ytQjfEZAPQ7Ef92Szcuo3EQ0AiAZNncmux9d/jxOcIug3aTrTrsx88xXYcugorP5zJ8vX+CtyrVDUEl/gjXCGl3gCIO6vsqs3wBc3mvnBnQ9xAJAmlDVAQUBk3wfAiGZpYSgMFmN+FiZi311exxd/X7QQR+HweKvm5RjTKvyyaSQwS4mpQqZVzCr6Do5iUVASTduHws9VCKv7RtkCK3FmnBiFjwSHph+jsCQDPlpXjw8BaDdamIWHnQf4bZIwqydh+wEKVhogeKKcCLsAeIQh1kde/24E+GeF0BJpBib8ptxqhzHCACIG+7gR65ClP05eYfAsbGssQK/3AA5/h5oaB0HQZ6KuKxAHEaTFIaKyVk5CWMvfzxTk1P7N4GBJiFOc1NtEDgoVV0hkJBPilJaHs+jQqGjwQwMre1S3kyDXtBzVfxa5Odqzme2NkFBo7uHBhHgGGsB8vvZnSM/Mgi+nvAN2qBYnSsL0+KRkZuXdCZcJTl+/AYN6dGF5N9CSW5XOXLuN62/4wJF2BZ1WyqYtXWQA9yxaiSp88RjUNDy2dOFHk1h8/pr/sZkE1TcxMoLy8HtWm6Xlk6ZiYJcObHAz7Rv8wSFps93QRzFMiFM7tHvgp137Yd67b0GnFs0pqdxENgEkxInScXYd/jiWaTbccDBGgrwmqDsKza9QBf4I/1cfoMAajILWGPLgP6gKzkFhSDQPhfwCmYCitJ4orF3x/3oNCqmnKMzk1A1V0USbcBZLQpyIBgY/o7BdjsKuHbZ5DeudxHyUFjAK00RBboKC8iXMT0AW11BwE+sRCsF+Ass7o/DEeQFLv0H5+P7qifmqgpyKLMZBhCjEKR6r0k9KK4uSkH0SYkKDFnts14IKY5cvYZo3viHsaKSAfTiP95KA6eMRkzUou+leDfDzfwocztAgA3kRNWrowAZv18PwRY3Uo40/ux7+9yK7VstX1LpiIU4Niup3mxeE5lMu4YwcVbUipd8TBLkFDhhIkGtaTqxf1tXYHGf7z34PwdVdKGAaCpyyUsriqFmepu3eQ+Gqaf80a7m4FC0RkBAnKkBNFam4aXZsjvdJgryZApegNcXCNC8LVaM/Abw4B9Xt3QRB3kTx3M5uFHjR96ObqAoPwzUsz+K0tijIie4exh+0lxCm7zD87ZEgJz4kyHNRwBMZ4i+eBHdStBAngS6GhRStfWskyFXPdxZ7Y6JYu0rLQLBklJ4p3JipiRFL1bScjEWpQdp6lY4CmqhXhwB2/eOf45Lq+Yc/dsL898axdPo6deU6jOrTE/p3ac8EedfWOPJCOnD6HLvKvzYdOCQJ8q0H/gEjxdorlWns7gavDFD8AOSVVMIkyAtwBsWs4FGl7u/rjZb0IXDkwiUY+UJPVpqWKMrDT6UJjaK0JetrPA+daOnGrdJsXJvtRjyOU+rbvZBwFhdVo0qZGkQINzk9in3CBLnq9jp5GW2Hp+jkM4vz0ThzpZnuDBTapO6egTPMJSgIe6OQfRXjC4TJJesOzYanYjrRHyoCntI8FALssWwmS+mRirgbRZBo3/Zh1AD0w8EDqazDMN4O26LZ9K+4Bp2nEH5+KESJFuAMnAS/KjVT5Kumh1B7Ch6qeZrESaVP6/wfYp/UkYkikQY8G1HD8DEUQhccVPyDAw4arNjrAGxAIZ+K+WSrQvRir67segG1LZTm59WIDeQTnjwFC/z/JENSrRPNuNWRgYOQ6viyulwcndgJ6ZqWU89FOdXSBWDY58pp6mIkyNOeCDNUIzakUldK8zRN232MgxhN+6d560LJB8qTK3gaLqQbKn5ZovHeE0W6kIv7whXvEVFIi9vw0hEfOcXeVxbk1u5Cbh/U3qgjK3wWRNk4FKUta62GAHy4H4Bm5rQX/txGtJXA2Xw10DMFOa1Tl7YboAGpDpAKZOpsiovqbV1aT0DStBwr/IwvfTSEy0K1N5GVmRm7PsSZoEiq6vDdx04yQd6mqS9T9zZybMj6F3T+slhFut4Nj4A//jmGKvZ83JP+hFm7i5m30eDvi3W/iNEyrySoSXi9PWwQ5CN+c75bw8rbKjQFZLRVHn5lNqYmk6zTA3G7Gqmm1+7YA7uDTkmlqqJdPT3huUtMFYG8/DylpEJa/0JS/EyU8uSR0vjR2rg2qbR2y2pzLQpiYxSiJMSJAjHujjPy11F4DdfJZUKVZsdy6op5pDqntW/loY5QyohJzyIUucpStEAhyGm2KtIuVEv3w0HDC8hzAwrvoYpBwD8oGIlIRpNgJxqci+pHNaTSPVaC+iwOBNRU0SjpDVSNkxAnQ70/sZ/38H4zsS8jcRDzLqbryN4TBxG3j3Vz4VXMI0E+QnEfuxUqf1pGkdO7I4YAfUSifLI56fnuVDFJO9eiXHyhlRwM4U8AwRbeb/Dg01LaRiA0LVcKhxLJJKT+N65EstqExEhUm/qgQZ+j2uxyJWrarqblytW4onAe6W7KID3FfwrayihRQb4QFfMphu/lEqRqI0Hqd6I1o4Wr6rf8d7HzM4CLf+Aa/hs48+8haApIW3Dud9xesUy1ZpXHnynIy2oxCwUWrZGboao4J6MYZCOME4kzZ03LSW3Rjx9JNGoSYsI3GTiJqvM7aGn+YvfOMBQtqI9fusIKjERjNTnRujAJVjLaeqF9WzZTDsM91jniw5UXxnDglu0qKUKU1PT/nLugNk81MQFVwuIsdPHPm5mKn8q0b44GG0i09l8efqyShl+01W7tZzOZOv/XfYfgt31/K9UsT7uiEZkdakHk1AQHCurIBY3U5OTiKMxYUhUDr/Lyk/MqK1zE3pa4Diz+46kUrsp2yQJbTviaR8cu+vA2CtdhKIz2oVD6GQWsSCRYP8BZPNFmWbqYT9cwLOONVzJmS5YJ84akikZ6JJupn0f+RK80KIBdqCcfggLyLqqryZqdiC4kSP2xGHlfe8pSq+4rR/G/aabAXM55kELr8CniQQZzjLB8SzUaAFI+HkJBTwZ17RA3uo/LsvugHSlEZP9C9iXHLl5hu2NccOvm/fAoXGZ5jEtpFR3oKW5CFMSspXJ+0e2Rip1m3XmouhbXz1XZaFpOtV5pcbKwjrpWWq5yejSqokndTMZflTV4K0+7mvZPubeVj5EamyzVaeCSrbBnIK7izPlphNAGzZipHK2fk+pdJBs3MSRcyeKdVOXp+F9EdZ5FpJ7f9okwc2mCwnwsqt3bvwpwJBB/H/Sm0B4pv5XK2U5iKlroIbkqXthidXc0giNKQQMrIk3LscL4lZsn3LQtWsyrUhRuaaKtSGRwt//kaaC92mTZvPvbr9nWlJfQqYsqXb0fwpL+87qw5kH7zrVJfyms3WnGcOLCJdaUA95LM89GLLwJBaw2iAz5fpw/iwm0rYeOwfoduyvVzGNUXxKROlMkazQEpK156kjcvifmvTqoLwveU+xdLy8/kc+zrvFPhX+yZo1U/hEVFbXVrtgvUhXTTH1wvgFbG48ShRgW6IAq4xb4X/YnCi15uliXrtdpIRmJjN7kNByFNREZiIlEi1a/Iy9ab/8I1fpEW1UGF7TNjGi4QrCyiOKLrV/LZsbyPE3CtxS8O6LwVSVTRYJcvNJQrpNiQKJafpuC129oLU+0WTFIofCC9b/ANtSOEV26+4DFyWaCaP7qH1l8xe9bWbzcX/nCewvMmpe7qlKFtKtCtOGLSslCBOdIeooBsKbl1HCpVNJFnJTQzJOss706KrMyQHU0zdbrE0UK71pm9Ca/rw6vCLGo68I1Qpj0ATnLEYnU7a7+Yky4PjguXLu+pZxOMTK2I+t3Iprp0559kWht/MEpwTiOJheG4n+GWKDqr5WakT9EozYvnAE2wu1UZN2ejILbsaEts1jPyc2DCNyORqRpOfH2UnDNvRD1+VY4i6a95U+TU9EQsBAi0NiJ9n6T4P747ddh3poNaLm8EJZNnwI0Uqe16ROXr0MHv2YiK3bde+IM0BY02spCdEDFkI0lVuHXfrSW/wBdqZJR25/LvoJLd+5DF38/pg0gg62KWI8vmDQBfHGdXk5bv/6cRck16vy1G+DbWdPQwY0eWzroHtAS6COn3w8chj0nTsuTygyfw+1zReP+j2kXdiz9CsJjY6FD86al1iG7gK1Lv4QD6FWvSSN3tgeclllW/v4nq1NefqU2pJJx4959ds+kdaG95XcehuMWxgJY88d2eJyYBNpqV6UbaqPkxY1oYymzccoja3XatkUW5fh6wBm2YJBGFushOEs9hfkyWQ77UeCRKn+0QvCfoHwZbca1+lcb5DI3sJ5o7X1aITCboPB9HQcWgai+/r2M/shYlQg+wZRz2Cfqm2WDPDiHvMlL3VbkeRzDnrjuvQTXyf/EPuIrTLLUL8EIEy5gv8nojdbGic5Qn4rHLNBPsRvlmGLgTZog0q7QslelKBuX4kgtatIYVSFzcS35NsZxMPEUBw7i1jRNGojdjmqUnngDg9F6HddLUxQCwsQT95V3RwOsvYJVvKblNGmzPGVycQly/1e4Zj0f4I11uJ/6b9xuhfdq44qz9OE4QsKB0D84a6xJ6vQaPnPFQzfGWTIRpeG7nNG/vwtXTb5P/yJsTyNDNNqKRpoBv/6CxTrNqOn+iYJWC5qKofMEi3NaK+89WciTfx/7AV22jkT/6+MEy/i7+PsgcvYDaP0S/mB/EvanO/oCjPtV2ItOgwS6H1KrkwBPfqTZbF7gXOFvvbJqFolm9KUUysQ10TNoTNYOrZLdcFZOH6LU9Ay4cueutFauaTmxGVJ7X7p1G5o19sJ1cHM2MKC8OJwhbjt8DMYNHYhq8jaw5eARdHASAWP/+7lYVe31zLUbbN8pCRrahhWXIozsqbA4OaF9qaqkLk21jLo4bXN789Mv4acvZjOVfr9O7VgxUulP/PxrdVWemdYKjeZUZ8JuuN5PZGiIP1q6Khzp0No4DWxUqTEOuspDZOT4y96/2Vq/o50N0Ifwu4/b8uSW6ORKl4j82jf39ICx/V9gcdJIfLb6J4hJTGRxTfnRfnAi0daCRfBLbEeMi9d4XG5ZjNsRp44dCbYozHughz+inceCmCDXtF2RX1Vd/VFw0myUtqiFyiWUSgNkxT4Ut219izNsJvhJAiKdRIE5D9XUqmvXt1BI0po2CUDaYqZ6eAmt349CftPR2I2E/WgUriKR2p1U8XLKRkFcHiKL/Jko+HqjMO+CK/tkwU+C/EdMR28JTF3eVqENIPX5j3j/XygGNPJ26L42o/Cfhv3biOVEuwOxTHvFgPw0qtXJuxttG1U1gBTLlutagAIubAm+kN9C5x1eKNAVM9PUiyqCXPgdlsqbtpvdnQHg/j4aJuBsjj4ikdo9M0SIaVpOrFuV16s7cYARgz+IxcXrtsSf9mE/ulWVLZWfFxnPDJhZsl7f6cVpJMjFd7Pq71RcCxdf4pnJqBobA/AmDlrIZzp9iMiIbcuHyEfxPONDMT4NnRmswBEzbiEjIjV6xFFBwItyj7abBQ5BI4+FOODrJnyE0kL5yOtCLBM1PBn4vFthWfqIFI34bsPfRzVQA2gSoAyPeBPlbNwU/8nIwxZtBcsq47QtTcuV1Xx7nBV+N/ND9qJf/9c++H3/32y7U1l1aiqPVOq+Xh5wC52x0Pp0XSQ6AMYPBxKh6K0vBme4ZRHZNZClfkFBIdzCrWPiITbyOuXhJ69X2XB1t7sKnaD0QUE+Co3O7pQhyOX3ZY8vJRt8v8XjYnfZSMtrlR42xv9uJ1yjJh8bT1GA0xYxbRM5rLHCdmKxPVXhrNp2IDq8ISt8GnjckdkCqJar9XEdHEwbOmI38cZzceBa2pq5puW0ccN0+pltI9z3jgKPBJco2LTRVk3zJLU37e9OilT2wCbvFw0k7D0FFXhKrDynZJjU54QdPV9ySKNuS5+xpdAmqdOTkZ8m6+olW6pQSpUJ8gq1XolKAXgIydKPpjAfzDRzS0WPc2RklpOTyyzFJ3+Noy1OHIEaQsAa2/0IhRTtxV6DM1VOJRFojwOMjegshjQEI1HzwIkjwBGoGAJ1VpDT7dI+0leGDAR/PP3KA9fpyaOaLqrPc3Lzoe+kjyqGCK/FEeAIaBWB/rhO/xFa8nvihIjoTZyNX6zLs3HhNvg3R6DGEKjTgrzGUOMNcwQ4AhVGgDzLjUKL/GjUVhzC9X5yP8uJI8ARqDgCXJBXHDtekyPAEeAIcAQ4AjWOAB8K1/gj4B3gCHAEOAIcAY5AxRHggrzi2PGaHAGOAEeAI8ARqHEEuCCv8UfAO8AR4AhwBDgCHIGKI8AFecWx4zU5AhwBjgBHgCNQ4whwQV7jj4B3gCPAEeAIcAQ4AhVHgAvyimPHa3IEOAIcAY4AR6DGEeCCvMYfAe8AR4AjwBHgCHAEKo4AF+QVx47X5AhwBDgCHAGOQI0jwAV5jT8C3gGOAEeAI8AR4AhUHAEuyCuOHa/JEeAIcAQ4AhyBGkeAC/IafwS8AxwBjgBHgCPAEag4AlyQVxw7XpMjwBHgCHAEOAI1jkCZByUb6BpAI9sWrJNFUAgh8ddqvMO8AxwBjgBHgCPAEeAIFCNQpiA3N7CEbs1fk0pzQS5BwQMcAY4AR4AjwBGoFQhw1XqteAy8ExwBjgBHgCPAEagYAmUK8qKK8eS1OAIcAY4AR4AjwBGoJgQaQJMAZXldVFhNTfNmOAIcAY4AR4AjwBGoLAJlzsgry5zX5whwBDgCHAGOAEdAuwhwQa5dfDl3jgBHgCPAEeAIaBUBLsi1Ci9nzhHgCHAEOAIcAe0ioJEgP/Pzau32gnPnCHAEOAIcAY4AR6BCCGgkyCvEmVfiCHAEOAIcAY4AR0DrCJTpEEbrrVdBA07W1jB93P9JnKJi4yBwy3YpzgPqERjYpRP06dhWytx74gycvMI990mA8ABHgCPAEagjCNR5QW5vawNdWvlJcKd6edQqQa7TAHf4NXIHRztbeBgZDRHxcVJf5QFNyunr6oC3myvysoPImMcQ9jgWCouUdw8ST08nR3DDT05uLgSHRUBiRoa8KRbu2a61Em4JiUlaFeR2Jg7Q1K1XiX5cCNkJuQW5JdJ5AkeAI8AR4AhohkCdF+TibUbHJ8D4uQuhoLCkYBPLVPd13sRx0L9Te2iAwlwk6ueYWfPFKLtqUu6VgX1h0qjhoKenK9XNys6FBT/+IgngiZj/xuB+oKOjvGISHBUNs5avgriUFKnuvB/Wg6GuHkwcMxJG9ekhpWsrYG5sBz5OHUqwvxq6F3LxjxNHgCPAEeAIVAwB5Td+xXjUilqFKMDTcQaalZ9XK/qzevZ0GNBZEFyhj2LgzPVbQELc0sxUqX+alOvSqgVMHTuSCfGYhCdw6N8LkJSaBsZGBrDog3fBzd6O8fRydWbXh9GP4eyN20DXIpyx+7i5wLrP/6vUbl5BIcMrLz9fKV1bkYycJAiLv8o+ufnZ2mqG8+UIcAQ4As8dAvVmRl6bnpwvqr/9fb0hP78AJi9aAbfDwqTumRkYSGFNy43s24vVUZ3NH133HRghvwHdOsNPO/fCkp82QnJmppK6vbGzE2xcOBfsrSyB2nsQ9UhqvzoD8ekxEH/nd9bkIP9J4GjtXZ3N87Y4AhwBjkC9RYALci082imvjmJcD5w5pyTEKZG0BiJpWs5YIfzvhkWKVdn1Ec7wvV1dwNTYiMXVrYWH4lo6zbr19fTAEWfuNSXIlTquQcRM3wza+gwHJytfMDYwg/SsJIh6eguuhB1ga+rD233MuFwM3gExKeElOPo4tIXmuCa/+9Jylsf4eQ8DRysfMDG0gKzcdIhPCYXLwbsgJTdVqt/cpSsuAXRi8QsPtoMPxl1tmoOhvjEkpz+GnZeWSWV5gCPAEeAI1AYEuCDXwlNwd3RgXPcGnYFxwwZD55bNISUjE85cuwm7g05JLWpabuexk9C6iTd0bNEMjPX02fKBjakpeOFsm+ivw8clnvIAGce9OmgAE+KFhYVw9toNeXatDVsZWcPQ9p+Anm6x9sLM2BqauXYHd7uWsOviN2CBa+6Ub2fhoVaQO9s0ARszYanBBsu+iIJfzo8GB43s/cHNtgXsu7gUnmYlMDwsjO2lev1bT0F7g2KbBCszAe9aCxzvGEeAI/BcIsAFuRYeu4WpCeO6aNp7TKUtNtHVvwWMeKEHjJu3kCVpWu7YxcvQvY0/9MXtYofXfwfJaelgbWEOJJx/3nMQonDdXE5z3x3HhL6VuRkztMtGLcCyjX9APpavC9TBZ7QkdJMzYiHk8QXwc3+BzcxNjayglXtfeJr2CBysvMBKIawdzF3BQM8YMrOTmVC2MXORbrWj71iJ3/3oMxCZcAOcbZohz15MUHdq+grsv7pSKi8GSIjHJoVAeMJ1hmMTp85iFr9yBDgCHIFag4DGglzb3t26vj251oBS2Y4YoBqbyM7SAnYePwW/7T4AQ1GAvzVkADM8G92vN2zHWbSm5WiL2cXb96AXbhnT09VlQpz4Z2Rlw43gEAoqkb21FZibmEjW8inpGRASGaVUprZG9BrogYttU9a9wsICnH0vgyL8i0RDuZFdBGt/b6eO8DD2EhPktqbCrJtmzzTjTkA1+z4UyjSzJjLWNcL1eC8WJnX61YcHWJgGAp4ObZiavaGlB0tT/QqPvwbH7/wmJd/BQQAnjgBHgCNQ2xDQWJDXJ0Gr7YdQgDNf2gIWGh2DM+EtrDkyRmuNBnABTX1gYOeOTJBrWo7U8++OGAK03Sxwyw44dekKDO2NM/uhA+Hbj6fCdNxadv7WHem2PlzyHQv7oHEbbVsb2KUD/LLgUxgyZQYkoTFcbSYrY1upe/EpEUyIUwKtY+fkZbG1alKLJ6YLAxMLk4ZgaWglzbhtzd3A0sBCUolbmAoCnXhQvVe6C9oQij+LwuIuPasIz+cIcAQ4AjWOQL3ZflbjSMo6kJktbK8KuqTsKe3EleuslL21JbtqWm5w146s/JZDR2DH0SA00kqFDbv2wXmcpRONUli1s4jsKxgt1L/EfeZPkoX940Nf6CnLrblgkazpBg2Uf4LyPff5hVmykgD5BTlSPCktmoVJ/e1m31JKZ/GG/lJct4G+FC5vIDe/uL3y1uXlOQIcAY5AdSGg8Yy8ujpUH9pJwjVsSzMzcFHs7xbvydlemG3m5gl73TUt54Re4YhuPFBWo98KecgM6Zp7NhKbUHulbWt2uP2sbXNf2LjvoNoy1ZmYm1+sFbAwsYf0lHSp+ZTsRClMFuYimegaA62PE9E+9MSsp2IWNHURHNrcCD8MrTz6QTMXYcCSlpWI1u6CERsVJsv3bee+kuopBYp99siS64ZNgazDPMgR4Ag8hwgoT4eeQwC0cct7TpxlbLv4+wG5XhWJjN2Iwh8Lblo1LUdr4US0ti6nAeg1jig+MZldO6BVu7w9SrTGtfJWPo1ZfnDEI3at6a90FLAi+XsMBmdco7bBNW1SiZO71pRMAR9a8+7a5GVwtHCDbn5viFXgUeIdVLkXSuXMjW3Q8K8AghVr2GThTpSQFg6puWlsqxnFKb2N5wCwM3VA+wS0eMdrh8ZDYVDrSZTNiSPAEeAI1EkE+IxcC49t15EgmDR6GJuVH177LZy9fhvaNfMFC/TqRp7WVm3azlrVtNxuPNDkdXS92q11S9i2ZAEauD1kVulkuU70696/2XX5f6agi9pCeBARBQlJqeDbyAVoNk/qatpLvvXAP6xcTX89jCMr9F6sG2SI5mg9lYXjkh/CgWs/wNm7W2FQ22kszRf3dNNHJBLYV0P2sGhCaiRYog93otjkUEjNE4Q2rYUTPcV8olNosNZfIaz9PfoDfeQkDhzkaTzMEeAIcATqCgJckGvhSeUU5MMbny6AdfM+YcL8hfYBrBUSpl+s+0U6OEXTcmu27WROX17q1Q2cUV1PH6L8ggJYvW03nLhylcUjYuPBw8kB/Lw8wCQ0FAyDHwDczWfuXLcdPAxdUcWuSi3v3QVrYz1ofucuDE8X1tJVy1R5HNvRO7kAGjt2ZAZoIv/k9DjQpz6k34SiY5+isO+DM2fB2Q2VycxJhlsRR6G3woGL68OT4IsGgETmsRfBCOt63vkLnb4IGoiiyIvQOJP4XYaixE9xH3ov9ISn7CK3sDAfop7clu7dJ/YuuOULiqqixBhIyqomTNhdVM9XPjSAKH19uGlgBEUyjVH1tM5b4QhwBKoaATyaK0BuewRQVHJdkLae1Var9VbejWHNnI8lXMgH+ZBps6R4TQfszM3Bz8cbHsXGAnlZK400KUeHnHih33Q6SY1OP4vAI1tV94a/lZEKi57GgnO2sqFYae3y9OcXgUh0LjTbzgk2W1g/vyDwO+cI1AME6vyMPA6doQRdui49iuiEkrNOKbMGAk/S0qQZc1nNa1KOZvB3wyPYRx2vz57GwZcoxDlxBDRBwB0PGNoUGwleebnwla2wRKFJPV6GI8ARqF0I1H1BjkdzzvlhXe1CtQZ60zkrQ0mIJ6DjmAtGJlCAalROHAE5ArpoKtghOxPscWmGaAEO/o6amMG/xsrLDvI6PMwR4AjUXgTqvCCvvdBWb88+SirWRBzHF/JLzp6QisKcE0dAHQIWKMR3xYRBbxwA0lBvWtITLsjVAcXTOAJ1AIF6sf1M2+5j68BzhM44wxLpw4YuXIiLYPCrWgRokEe/E5E6Z2eIQX7lCHAE6hgC9UKQ1zHMtdJda4WalJiH6xtopQ3OtH4hIP+d2Mh+P/XrLvndcATqPwJcta7lZ+xkbQ3Tx/2f1EoUWpoHbhH2kUuJVRCobyvhA7t0gj542ptIe3Ev/ckryi5vxTx+rTwC9e33U3lEOAeOQN1BgAtyLT8re1sb6NLKT2olFfd4a0OQSw2UM0Ce4Jo0cmdb2h5GRkt73OVs6Fzzph4eYI7Hs9649wDS8VhUOal6k5PnUZhOb5MTDW4au7uhF7c8eBAaDslZJbfK9cST3uS4JSQmcUEuB5GHOQIcAY6AAgEuyKvpp0D+zsfPXYie15SFWjU1r7aZeRPHQX908yo/qIT6OWbWfKn8hJeGwNvDBimVuR8eBVMWLoMs3L5EdPzHQHa8qlRJJUA+4d/D8q8NHoBHufZH5zbGSiUof07gOqAteCLN+2E90L75iWNGwqg+gi91Ma+uXf3Rj8DreITtkfOX4NDZ85XuflXzq3SHOAOOAEegRhHga+TVBH8hCnCayYrCr5qaLbWZ1bOnw4DOHVh+6KMYOHP9FpAQt0Q3siKRenv88MFMiMcnJcPBM+eBTmxr4uEG6+YXO90Jxpl8DO7nV/2QO1qiaw9C2XVIt05MiJPTnqv3guFRXDxLb+HtBWvmzmRh8SuvoJDhRd7w6jq1QF/3pF3o1b5NldxKVfOrkk5xJhwBjkCNIcBn5DUGfc017IvnlPvj2ej5+QUwedEKuB0WJnXGzKDYUO79l4ez9KMXLsO8NRtYeNUmY9i/ejk0dnWGRg0dmCr+nQWLpfpigDzV7Q78hvmW37pP8AV/8OwFuH4/GK4HF5/iRge90Jnq5Ha2mYc7OruJFFnwK0eAI8AR4AhogAAX5BqAVN+KTHl1FLulA2fOKQlxSpSvf1vjUaxEB06fY1f6ovVsmnmT4B0zqA8s/XWzlCcPvDn8RRa9GxaB/sqFNXB1R6heuHUXslFTYYQDiGZenjUqyJ1tbGDG269BS29PMDY0ZJqIDOz7jZAwmLdyHWQqjp+V32dZ4d3fLQZ93OZFvIi6tvSDAyuXSlU+WhoIYdHRsPnrz8HEyAhm4/LCjRBBe0GFRvXpBRNeGgwReFrepEXLQRN+DyKjJP48wBHgCDwfCHDV+vPxnJXu0t1RcMe5N+gMjBs2GNbNmQFLPpoMw3t1Vyqnpyc4lImMVvYRLx6b6upgr1ReHhncVTix7Nc9wmxcnicP6+nogCEe4EF0HQ3papIaN3Jjp8rpYJ/CYmLZh4Rw55bNYfuKhSWOiH1WXxNTUoHOnKeBClEBntxGcfGTi+m0hPD7gcNgZW4GK1AzYaWwH/BxdYH/vPYyWJiawpo/d7H6mvBjBfkXR4Aj8FwhwGfkz9XjFm7WAq3PiRZNew/srSyFRPym89JHvNADxs1byNKy8GQxYyMD6I0GcZsOHJLKNfV0Z2FrVJ+rox5tWrN6VP/09Rvqikhpsye8yWa+tG5e1qEyUgUtBkIjIuGzH36C45euSK2QRf6x9d+zU+x64xo3LTNoSm/PX8SKkpHfZFymOHf7Hsz+fk2J6ruDTkEnXEPvEdAKvkPbhUkLlsDK//6H4bJux15plq4pvxIN8ASOAEegXiNQbwS5tr271dbT3yry6zTQEx67naUF7Dx+Cn7bfQCGogB/Cy2rffB0tdH9esP2w8eZAOmIa9ivD+oLtP/9fmgYfPDaGKYGp3bNTJStz8W+TBghqNUPnbsgJqm9dg/wh4FdOrB19GnffKe2THUmxuAWN/pY4CzczdkZnOxtgWbnjxOegjseD+vu5Ki17sxdtR62LfuK4b/r+68RWxO4dj8E1C1HaK0TnDFHgCNQJxGoN4K8Pglabf+SCgoLmYAKjY6BZRu3sOZ+2rkXWqMBXEBTHxjYuSMT5IvW/wJbl3wJFmjJ/vXUiVK3UtMzWFpqRrFbWDHTwdISvFEtTLRx134xucSVtlCJPJdu3Frjs3HqIG13WzHzQ2jdxLtEfylB1GSozaxkIh1HO/nLpYj3AibE0zMzYcaylZXkyqtzBDgCzwMC9UaQPw8Pq6rukbaQWaIhW9AlZU9pJ65cZ4Lc3lpQt9O+7mEfzoT3cC93c69GbOZ86tpNoK10pCqOe5pYokvjRgxhabTGHIcn06kjsk4P/GQaUx2v3bEHSLVcG2jRR+8zIU5LAifQi9y/uCUvKTUVJuH9N8PlBF0dwWZAW31taGsLuuh8h8gItQI0cMgqBUNt9YHz5QhwBOoeAlyQ171nVukek7EVCXIXtDyXkzOqkolyZdbZZKn97aY/5MVg45efsThZpKtS/87tWdImNOBSR2TEtfazmcyBzK/7DsFviq1p6spWdxppJIjmoDOa87fuSM27OSjjJGZ89s5b0KKxJ4ueR+t7VZzEckV4bCiRXhmn0VmjKn3FzA/Y4OYhGhd6uTjBWtyr//KMz4Bm63LShJ+8PA9zBDgC9RsBbrVev5+v2rvbc+IsS+/i76dkiU3GbkThuN1JJHLPKqcBXTqyPeS0B/3Pg8rCul/H9mz9nJy4HDpbvGVNrO/h4AA/onAigbb10DFYv2O3mFUrrqKgTU1Pl/pDAw9ar1ZH/r6Nwc2xIfu0RKc2pVH80ySW1Qyt4kuj1Ti4oS14p1Hj8cZnXzLnPA2trWDB5HdLVNGEX4lKPIEjwBGotwjwGXm9fbSl39iuI0EwafQwNis/vPZbOHv9NrRr5svWvckb26pNwqEu5Bzm4JoVQDPv+MQU8HBxBE9nweDrDzSGU91X/ebQgazRk6iiV/WvThnfzpoG+mhoR210D2jJPvJe0jasPSdOy5OqNRwaFcO81gXO+gjdqV5GVbqO5P2uMh25ce8+u2drC3SSg3vL7zwMh7y8Aljzx3Z4jMZ1s8a9xozpyHL/s1XrWFMf4L7xbcsXQs+2/vBS7x6w6/hJqQvP4icV5AGOAEfguUBAebr1XNwyv8mcgnx449MFkIIzT5oFvtA+gAlxmknPXb1BOjiF/MLTergfqo97t2/NhDjNxAO3/gWr//xLCUjy5EbqYKINO/Yp5YkRQ31h3Ei+3V0a2pf4NMbZb03S7O9Ww5PkFOacZVjPrvBi986QjBiRUCcSXc6KfVSNi+mq13jcT774l82QnpkFtijMaZtZnw4B4IhLG11atQBqqxDV51MWrmD7yqk+1Zmz8kfGasYbY5VYlsVPqSCPcAQ4As8FAnj0VYCwgCfebpHyehwl09au2mwVXpv718q7MayZ87GILhpPpcGQabOkeFUF0oNvgqni2Zl7t4B0DQ2zSAD7oQX5o9hYtZbjmpyOVlX3IOezYNIEFHZtpaTdQadhSSle5KRCVRRo7OwEro6OcBtdycoPcqki9rWGjRk6qEkLucX6k9FAB8x8WtaavvGOcAQ4ApojwFXrmmNVoZJx6M406NJ1qW50QoIUrspAfgPkphiS6SkPzcpshgTViStXSy1DKvK74RHsU2ohLWScunIDVdvFP8+z1wSBo4WmSrAkxzQ17ZymRKe0kCD/neTR74cTR4AjUCcRKH5T1snu1/5O0xasOT8I657a7G2UngFY5mazJvpmpsF2cyttNqd13ofPXwT6cNIeAvQ7EekR/n44cQQ4AnUTAS7I6+ZzK9HrfaYW0EIhyNfEPQKaYB0xMYMCFipRnCc8xwjoouqmb2Y6rMbfiUj0++HEEeAI1E0EuCCvm8+tRK+X29jD+NREaIiGbHa49vnn44gSZXgCR0AdAvHo0Y5+P5w4AhyBuokAt1qvm8+tRK+f4Mt4iIsn0EuZE0dAUwTo90K/G/r9cOIIcATqJgL8v1fLz83J2hqmj/s/qRU6fCRwi7BPW0qsosBFIxPw82gC05MS4MX0VHDLzwM9NFari6SLTmP0ZM5o8gsKoACP/ORUeQTycftflJ4+7DOzgG+t7bkQrzyknANHoEYR4IJcy/Db29rgXmE/qZVULw+tCXJqhGZWn9o5sY/UaBkBTbaXkXe3ph4eYI6+v2/gmeHpivO1RbbEoyxS5xymrPKU9/WH77P91mK56th+RtvdxvZ/AbYdDuKGdiLw/MoR4AjUegS4IK+mRxQdnwDj5y4EcrJSW2jexHHQH88aJwctIlE/x8yaL0ZhwktD4O1hg5TK3A+PQuclyyALZ/xEx38MLNOP+K2Qh/AelheJXLlOHjsCyAUpOVXpNn6KmCVd56G/czqNbCIeWDKqTw8pXZuBVrifnpzf3I+IqlJBTie9vY5HxB45fwld156v9C1UNb9Kd4gz4AhwBGoUAS7Iqwl+8pCmOpOtpqbVNrN69nTwx0NCSJCGPoqBWDzJzAPP3LbEI0tFGtilE4wfPphF45OS4fKd+8xlaBMPN1iHPtPfnPsVywuOjMZ6Jf2RO9nZsgHAtQehrJyvmyt8j6ee0bGoIskHEWIaXfNQjZ5XkAvkba6uUwufxkwrQ4efVIUgr2p+dR1f3n+OwPOOABfkz+EvgAQqCXFytzp50Qq4HRYmoUD+1UV6H48qJTp64TLMW7OBhVdtMob9q5ezg1MaNXRg7lzfWbCY5cm/yGPc7sBv2EBhq+KEs6a4rEBCnNygrt2+Bz575w15FR7mCHAEOAIcgQogwAV5BUCr61WmvDqK3cKBM+eUhDglyrUG1njUKdGB08UnmSVnZUEMeqtzRj/hYwb1gaWluE19c/iLrC4duJKEdYhuB4fCzG9Xw9kbgpe22irISSvx21dzmYaC+v0oLgFmLF8F0U+fUlRjogNS9NFozxjPFifq2tIPDqxcKtX/aGkghEVHw+avP2f+3WcHroMbIYL2ggqN6tMLlzYGQwSeRjcJD1HRhN+DyCiJPw9wBDgCzwcCfPvZ8/Gcle7S3dGBxfcGnYFxwwbDujkzYMlHk2F4r+5K5fT0dFk8Es/HllN8YjKLujqUvvd4cNdOrMyve/6WqpLbU1GIS4m1MEBGb7TM8BD7m5GVzU4m2/zN52BpJAhkTbuciAef0Nnv2QrjwALc309x8ZOL6bSEQKe+WZmbwYqPp4KVsTFjT8en/ue1l8HC1BTW/LmLpWnCT9O+8XIcAY5A/UGAz8jrz7PU+E4s0PqcaNG098DeylKqR+eRj3ihB4ybt5ClZWXngrGRAfRGg7hNBw5J5Zp6urOwNarP1VGPNq1ZPap/+voNdUVqfdr4zxdDcNQjdl77H998wTQQE8eOKlUDoe6G3p6/iCW/NngATMZlinO378Hs79eUKLo76BR0wp0NdCrad2i7MGnBElj53/8w+4J1O/ZKs3RN+ZVogCdwBDgC9RqBeiPI6QQ0bVJtPv2tvPdtoCc8djtLC9h5/BT8tvsADEUB/hZaVvu4ucDofr1hO543Tmreji2aweuD+gLtf78fGgYfvDaGHX1KbZqZCLNH1fYnjBDU6ofOXVDNqhNxMv4jIU5EW+d+2rUf5r37FnRq0Vxr/Z+7aj1sW/YVw3/X918jtiZw7X4IbNx3UGttcsYcAY5A/UCg3gjy+iRotf3TKkDraR0dHQiNjoFlG7ew5n7auRdaowFcQFMfGNi5IxPki9b/AluXfMkM1L6eOlHqVmp6BktLzciU0sSAg6UleCvOFd+IArAuEq1Jy+leSDiLWipsBuR5VRUmi/bJXy5FvBcwIZ6emQkzlq2sKvacD0eAI1CPEeBr5PX44ZZ2a5nZwilpQZeuKRU5cUU4btXeWlC30xGnwz6cCduPnIA7D8PhNs7I1+7YA78fPMLqxeGWNVUaN2IISwqLiQU6+a0uUp5if7zY98KiAhbEI7u1Sg1tbUFX4c3OCA3kxCUQrTbKmXMEOAJ1HoF6MyOv80+iGm+AjK1odumCludycra3ZdHcPMHRC0UyMfztpj/kxWDjl5+xOFmkq1L/zu1Z0iY04KqrpIqLi8I4UFUD8dk7b0ELdCBDdP7W3RI4ifdfpDgoXg8t2Esja1Slr5j5AVsXf4jGhV4uTrAW9+q/POMzoNm6nDThJy/PwxwBjkD9RkDLc4z6DV5dvbs9J86yrnfx92PGXOJ9kLEbUbhMtUzuWeU0oEtHtoec9qD/eVBZWJPHNiPch05OXA6dLd6yJq9fF8LNvTwk63Hq76toI0B0LzySXcUvf9/G4ObYkH1aenuJySWu8U+TWFqzRm4l8sSE1Z/NZNidvnYT3vjsSyAPe+T5bsHkd8Ui0lUTflJhHuAIcATqPQJ8Rl7vH3HJG9x1JAgmjR7GZuWH134LZ6/fhnbNfNm6N3l6W7VpO6tEzmEOrlkBNPOOT0wBDxdH8HR2ZHl/oDEczdbl9ObQgSx6ElX0pflXXzBpAvi6Kwu0rV9/zuqRa9T5azfIWdZItvxWbAAAQABJREFUmOwHti79EmiffZNG7tC6ieABb+Xvf1aoPzfu3WeOcawt0EkO7i2nZYq8vAJY88d2eJyYBLPGvca2uCWlpsFnq9axNj7AfePbli9knvRe6t0Ddh0/KbX9LH5SQR7gCHAEngsElKdbz8Ut85vMwTPL3/h0AaSkp7NZ4AvtA5gQp5n03NUbmLc2Qon8wpNrWfI/3rt9aybEaSYeuPUvWP3nX0pAkic3UgcTbdixTylPHmmFBnXiLFZMF+OtcIZbk1RYJKiwb6DjGnLiQgeokBCne569cj3EJCrbBNCgRxOKx/3ki3/ZDOmZWWCLwpy2mfXpEACOuLTRpVULGNazK+JciP7rV7B95cST6sxZ+SNjP+ONsUrNlMVPqSCPcAQ4As8FAg2gSYDy20jxMpPfPW3tqs1W4bW5f628G8OaOR9LcNKsa8i0WVK8ugImDQzBUKfY/arYrg2ulTf19ISY+HgIj1O21qYydLIZWaHb29hABK7dPnqSIFbV6nUWHv3aPcBfauPvs+dh1R/KgwcpUwsBum8/L08czBSiSj2iVA2DFpqudyxpTT+jMBvyiuq+3/x693D4DdULBLhqXcuPMS7hCQRdEqzBqanohOoRhNSWuY4JjLcZDIPMO4KdnhUlqacMTDbFT+nLvABpmG+h+OBF60Sa5GJtMgyHbjDcq5vWm1VqgIa4dDCcYM+mlMUj5UcgJCcatqcch79STkKhwgCw/Fx4DY4AR0AVAS7IVRGp4jhtwZrzg7DuWcWsy2TnrGcHa1yng4t+6W5Uy2TAMzkCVYyAt6EL/Lfh69DN1B9mxPwA+SBs66viZjg7jsBzhwAX5PXwkTfAaeQSp0lKQjwTVZs5hcrGafXw1vkt1VIEzHSNQb+B8LrpZtoSPrAbCd892VZLe8u7xRGoWwhwQV63npdGve2JM56mRoI/dFqXnB/7P/gn/aJGdXkhjoA2EDBsoA+TbUfAa9b9GPuxVi/A/xL3Q2phSe+A2mif8+QI1GcEuNV6PXy6HU2KfYJvSjrMhXg9fMZ17ZZyitCx0JM/4XZ2GOs6zc7bGPvWtdvg/eUI1EoE+Ixcy4/FydoapqMFtkh0+EjgFmGftphW1VcbXbJKE+hOTrgYrFPXgV06QZ+ObaU+7z1xBk5eUXYpK2XyQJ1B4G52BPgZCdaDtnrFJ+/VmRvgHeUI1EIEuCDX8kOxt7XBvcJ+Uiup6DVM24JcV+YUvDTHLGKHaJsVOT1xtLOFh5HR0h5yMV+8alKOvMB5u7kiLzuIxLO8wx7HKm3bIh5lkbyvPdu1VsItAR2n1DVB7u/eG8yNG6J9diGcuV+59WA7Ewdo6tarBHwXQnZCbkFuifTamiC6l6X+6eAfJ44AR6DyCHBBXnkMNeJALjfHz13InKxoVKEaCs2bOA7641njDWQClvo5ZtZ8pdY1KffKwL4wadRw0NPTlerSeeQLfvxFEsDHfwyEsvyN3wp5CO8tXMbqz/thPRjq6sHEMSNhVJ8eEs+6FGjs2B4sUQATVVaQmxvbgY9ThxK3fzV0L+TiHyeOAEfg+UWAC/JqevbkIS09t/a8cFfPng7+6GWNvJPR+duxeJKZh5MDum01VUJEk3LknWzq2JGsXgzum7+JArmDXzMgl6SLPngXXsWBQRSmB+OM39LMRIk/RZxQG0CDiWsPQqW8vIJC9HKWy/y2S4nPcSAjJwnC4q8yBFxsmoGBntFzjAa/dY4AR0COABfkcjSek7Avqr9JiJPr0cmLVsDtMMEAiW6f/KuLpGm5kX17sSqqs/mj675jLmAHdOsMdN75OwsWi6ylK7l23R34DRtQbN33t5TOA8oIxKfHQPyd31niIP9J4GjtrVyAxzgCHIHnFgEuyJ/DRz/l1VHsrulQELkQp0S51kDTcsYK4X83LFIJzUeopif3rqbGpc8e3xz+IqtDB7MkZWUp1a+JiJNFI2jtORjsLNxxGcAA8lErQLPh0NiLcD3yOOtSB6+h4GQjWFz/c/UHyCrIBlcrb2jrPZzl34j4B8ISbip139nSAzr6jAYrMydIyYyDK6H7IfzpbaUyVRkx0zeDtj7DwcnKF4wNzCA9Kwmint6CK2EH2Jr68HYfs+YuBu+AmJTwEk37OLSF5rgmv/vScpbH+HkPA0crHzAxtICs3HT0Bx8Kl4N3QUpuqlS/uUtXXALoxOIXHmwHH4y72jQHQ31jSE5/DBARI5XlAY4AR6BqEOCCvGpwrFNc3BXna+8NOgPjhg2Gzi2bQ0pGJpzBIzR3B52S7kXTcjuPnWSHi3Rs0QyM9fQhKz8PbExNwctZOETlLzwprTQa3FV46f+6p+Zn42RQNrDNh0pdJWFO69w+Tl0kQW5j7go2Zs6snK4O/guhgzIjFJZimqmhtRIPivTznww6OoL9APHr3XI8HLm+FqKSgkuUrWyClZE1DG3/CRuIiLzMjK2hmWt3cLdrCbsufgMWuOZO92Zn4aFWkDvbNJHuxwbLvoiCn8qLRIODRvb+4GbbAvZdXApPsxJYloWxvVSvf+sp0j1TJg1iALggZ0DxL45AFSLABXkVgllXWFmYCuvUi6a9B/ZWxVuA6DzyES/0gHHzFrJb0bTcsYuXoXsbf+iL28UOr/8OktPS2fo4nej1856DbH1cHTY92rQGYyMDIKO409dvqCtSrWkeDdtI7V1GI7KHsZfYWrQjCjVHnHFXlm5FHkPh1xot2W0YK5r5RyV9X1m2Jep3wJm/KHSTM2Ih5PEF8HN/gc3MTY2soJV7X3ia9ggcrLxQuAoDEgccnBjoGUNmdjITyjZmLhLfjr5jJX73o89AZMINcMZ1ej/3XkxQd2r6Cuy/ulIqLwZo4BKbFALhCdeZDUQTp87QUMzkV44AR6DKEKgXgvz8rbtAJ6Bpk2rz6W/lvW8DPeGx21lawM7jp+C33QdgKArwt4YMAB83Fxjdrzdsx1m0puVo29jF2/egF24ZI6t0MnIjysjKhhvBIaV2b8IIQa1+6NyFUstUZ0ZOQbFq38XGDxJR2MWkPIREFF538FMZ+vf+n/Ag7hJcC/8HXu8h2AqQ+r6qSQ8drbjYNmVsCwsLcPa9DLe/FUEkGsqN7DKfpXs7dWSDFBLktqaCIKfZMwn/BFSz70OhTDNrImNdI1yP92JhUqdffXiAhWkg4OnQhqnZG+KygToKj78Gx+/8JmURhrPs/0+K8wBHgCNQNQjUC0E+fXnJ2UDVwFM/udDRnDo6OhAaHQPLNm5hN0nGaK3RAC6gqQ8M7NyRCXJNy5F6/t0RQ9jMOnDLDjh16QoM7Y0z+6ED4duPp8L05avg/K07SmA6WFqy9XNK3Lhrv1JeTUUiYi9Du8ZDWfMkvBytJ7Hw3Uen4FbEEUjPS69w156khrO6eejvntbIxW1pFWZYSkUrY1spJz4lgglxSqB17Jy8LLZWTWrxxPQoVs7CpCFYGlpJM25bczewNLCQVOIWpoJAp8JU75XugraGVX7GVxgOXDhxBDgC2keAe2TQPsa1roXM7GzWp6BLyp7STlwRjlu1txbU7ZqWG9y1I+O35dAR2HE0CI2gUmHDrn1wHmfpRKP69mJX+dc4FPxEYTGxQCfE1QZKzUuDPecXS9u8xD7R2vKITnPwbPbS/10aNBDWv8U6qtf8/BwpqaCgcofXFEmc8JRVlT7JfQLkFxZrGKhKfkFxH5LSohkXUn+72beUOLJ4Q38pros+0itKubJ7rigPXo8jwBF4NgL1Ykb+7NvkJeQIJOEatqWZGbjY28mTwdlemM3l5gmCRtNytA+c6MYDZTU6OXghQ7rmno2U2qFI/87tWdqmA4dL5NVkAhltBeE2r7P3/gQHVBm39hwkWbC7WvtCZOI99FZXfPymkYEpm6lby9aU1fXf1tIdUp/cxnPpGoCVqWAEqK6cJmm5+ZlSMQsTe0hPKdYUpGQnSnlkYS6SCZ4+RuvjRLn52ZCY9VTMgqYugsOdG+GHoZVHP2jm0pPlpWUlorW7YMRGCWT5vu3cV1I9pYBap32FSkV4hCPAEdAOAqVPMbTTHudaCxDYc+Is60UXfz+cZRa/gcnYjSj8cRy7alqO1sKJaG1dTgPQaxxRfGKyPBn6dWzP9pfn5efDobPnlPJqMuJp6wf+jfoAbbXKLcxFQ7QHzFBM7BOpoYmyZNutfJ27goulF3g7dhCLqb22azwC3Kx9oGuTMZLamgRjRSgdBaxI/h6Dgba22eCaNqnEyV0rqe6JaM27a5OXwdHCDbr5vSFWgUeJd1DlXiiVI+M7Wk8PVtgBkIU7UUJaOKTmprGtZhSn9DaeA8DO1AHtJ9DiHa8dcCliUGthCYLKcOIIcASqHwE+I69+zGu8xV1HgmDS6GFsVn547bdw9vptaNfMFyzQqxt5elu1aTvro6blduOBJq8P7gfdWreEbUsWoIHbQ6CtaKLR2697lbeWvYlr50QnUZUv96/OEmvwyxQFWhu0JKcP7R8nEq2/KRyfLGgcYnHLmDe6XyVqgvuk6fMsIiHY1/99pWI3IyumjXgYR1bovRgvYS1/KgvHJT+EA9d+gLN3t8KgttNYmi/u6aaPSCSwr4bsYdGE1EhprT42ORRoaYEM2mgtnOgp5hOdQoO1/gph7e/RH+gjJ3HgIE/jYY4AR6D6EOAz8urDuta0lFOQD298ugBS0tPZzPiF9gFMiNMMee7qDdLBKZqWW7NtJ7N+p0GAM6rrB3bpwIR4fkEBBG79C05cuSrdO3ly83IRVMsbduyT0mtDID3rCTMIo76QABeFOAl1sjon72pEoWgB/hi3VYlE+bcjg8SopHonPEQ6H/yXGGRXMqC7F3NeKU3TyJOMOAi69TOQ6ltOYnOxaZFwCC3PSSjLiQTuXtzzTbNsoqdpgsEbhR8n3acLxCiuFE5UrKNH4wCG+KnTINC9R8QXbx0sLCpWp8vvn/hx4ghwBLSDAB59FVD8tqE2ZP+IYpO0tas+bb8S76s6rq28G8OaOR9LTSWlpsGQabOkuDYCy5wmQy+zAMZ6RsxqCMooFqSq7ZFg9fPxhkexsRCKJ5aVRpqUo0NOvHD7Gp2kRqefReCRrfloIV8RWjBpAvTp0FaqujvoNCz5dbMU12aAVOvGBuagr2eIwjANUrKTUDiXvA9rdLyij3uvE9BjmfxUr9L6pq+jj85SHCE1I4F5gyutXFWmW+B9mKCDmtTMBMiUba+raBu0Hc3CxI5Vz85JhRT84LK/xkTbz162EpZgvonfDNtSjmtclxfkCHAE1CPAVevqcamy1Dg8LCTokmANTkyjE4qNh6qsERVG+TJjLPmRpirFWPRJWprSjFldGUrTpBzN4O+GR7BPaXw0TT915QYwr2mKCmev3dK0aqXL0TYzTbaaJaGAB6CPZkRbz+JSi2fBVKtD42EaVb4QKqjDNSosK0Szb3EGLkuucJDc0WbhHnKJyiHEqY7c8r9A9juV+PEAR4AjUG4EuCAvN2Tlq0Bbq+b8sK58lSpZOiG/2LisjbEvHE2/XEmO1V/98PmLQJ/6Tn5ugoX4s+6zooL8WXyrM18Hp+7+Rt5Sk/EFxb9TKZEHOAIcgXIjwAV5uSGr/RXOZN6CV637so6OtuwFj/ISYHfKKcgqEgy4av8dPD89vBi8U6ObpW1rdZlsdS1gmt1o8DZ0YbeRXZgDVzKFdfm6fF+87xyB2oAAF+S14SlUcR/OZd6Gy/iSbGvSBEi1/rH9WPap4mY4u+pEwOet6mxN6239knQQMotytN4Ob4Aj8DwgwK3W6+lTnh27Du7nCNuH6ukt8tuqowjsSz0LGxIP1NHe825zBGofAnV+Ru5kbQ3TxxUfxBCFltKBW4R90LUP7urrUWJBGrwd9TWMsewNA807gYeBAxg2MCjugDpNrfL+heKyPMQRqAQCZNGfUZgNd3LCYVtyUJm7KCrRDK/KEXhuEajzgtze1ga6tPKTHmCql0etEuTkOa1JI3e2JethZLS0R1vqMAb0dXWgqYcHmOPxojfuPYD03JJr2XIPbPK6cocqqmXy8aDszSlH2IfqyMt+/eH70COglcSqOrd3SY3Wo4CpvikEeA1hdxSHDmOC46/Uo7vjt8IR4AjUZgTqvCAXwY2OT4DxcxdCQWHtmVbOmzgO+qObUvlBFtTPMbPmi92GCS8NgbeHDVIqcz88CqYsXAZZ+Xms3PBe3eGTt16V6sgD1+6HwJTFK1jS8R8D0YlJ6Yd3kO/z95Av0bwf1gPt+544ZiSM6tODpfGviiNgqGcCPk6Cm1ZdxJUL8opjyWtyBDgC5UOg3gjyQhTg6may5YOj6kqvnj0d/PFYUPJuFfooBmKfJoKHkwO6RTWVGhnYpROMHz6YxeOTkuHynfvQs60/NPFwg3XzZ8Gbc79ieeJAgDyvJWA5Od0Ni5CiwTjjtzQzkeJigA41IR7XHoSKSZBXUIifXCCenDgCHAGOAEeg7iJQbwR5bXoEvm6uTIjn5xfA5EUr4HZYmNQ9M4Pider3Xx7O0o9euAzz1mxg4VWbjGH/6uXQ2NUZGjV0UFLFX7kXjGd7r5R4qQbeWbBYNQnII9vuwG/YgGLrPmWf5yUKPw8JpLBRZx/wPNw7v0eOAEegXiLABbkWHuuUV0cxrgfOnFMS4pQo1xpY41GiRAdOF58AlpyVBTHoDY58lo8Z1AeWVtIt6ZvDX2Rt0Mw9CXnXFLnbNMU15BchMT0arEwc0FWpC4TEnscTuOIhAA8pIboYshPuPb7AwuQmta33MKCjOE0MLZjf8PiUULgcvAtSZKePNccDS3wUh4JceLAdfDDuatMcDPWNIRldp+68JCwleNm3gjZeQ4FO+iKf41dC94K/ot34lIfwr2I/d3na9XPtzU4Ei08Jh5sRFTsAhd0s/+IIcAQ4ApVAgAvySoBXWlV3RweWtTfoDIwbNpidyZ2SkQlnrt2E3UGnpGp6esJ6dmS0so9zOvaTBLmrg71UlgJ0rvdP8/4LOWgM9yAyCrbsPwTxKejrugwa3FU4+erXPTU7GzfGIzZtzJzZR+yur3MXMciuHX1GM0FuY2wHL7b7WDq0hDLpRK5G9v7gZtsC9uHBH3RuOJEFHt9JfIn6t54iHRFKcSszJ7qABx5P2tPvLRamL0scSPRu+Y4UL8AlBiJN2/Vz6QYdfEZI9RtaekCfVu9KcR7gCHAEOALViQDfR64FtC3Q+pxo0bT34N0RQ6CFtxfQWd9ksPbLgjlSi1nZggDprTi3W8xo6unOgtaoFpcTWbU3w7zWTbxhDJ79vWPFIna2t7yMPNyjTWswNjIAauf09eITquRlaiIcdPsX6ZhQOlHr3IMdrBs6OsLApqPvWEmI38czsg9fWyOdLkZlOjV9RW23KS8WTyUjfnTaGM3Iidp5vySVp9nztbC/2fnbUqIioEm75Cu8tecgqWoC8qM+cuIIcAQ4AjWFgMYzcjoBTZtUn05XM9ATYLWztGDHe/62+wAMfaEHvDVkAPjg6WCjUQhvP3wcboSEsnO7Xx/UF2j/+/3QMPjgtTHsaFHC2szEmEEe+TgW9uCZ3zTDT8vMgKFoxT64a0d2VOhn77wJl27ehqTMzBKPZ8IIQa1+6Jygri5RoIYSwuJvQiv3eLAxd4WEtHCIfnITwFdYjqDTteiMbSI6hvPqwwMs/BQP6vB0aMPU7DQDVkfh8dfgOJ6dLdIdFLAmusZMnU5pdOTmfjyOkygnPxM6+oxkYfrStF1LPPHMQM+I1aP+7VPwyy/MB039pkuN8gBHgCPAEagCBDQW5PVJ0FYBbmWyKMCjO3V0dCA0OgaWbdzCyv60cy+0Riv2gKY+MLBzRybIF63/BbYu+ZKdBf711IkSz9T0DJaWiup4oiu4t5w+Iq3+8y/4+a+9sO+HpcJ54l06wo4jx8VsdnWwtARvV8Gv9cZd+5XyajJSWFjAjM1y8wVtRD5e8wqEbXbULwvT4uUEUqe/0n2hxt0Ni7tUoqyZsbWUFpf8UAonyMKUqGm7dCSoSLHJwWIQEpJxR4CGB6BIlXiAI8AR4AhUAQJctV4FIKqyyMzOZklBl64pZZ24Ihxnam9tydLpaNBhH86E7UdOwJ2H4XAbZ+Rrd+yB3w8eYflxuGWtNKI95g8iolg2rZ2r0jhU6ROFxcQCncBWV0i3gX6Fu5qbX7bvbh2d4nGrqMYXG9O0XfkxnPmyAUheQdlti+3wK0eAI8ARqGoEit9sVc35OeaXlJaO+7nNwAUN1uTkbG/Lorl5xTPQTAx/u+kPeTHY+OVnLC7fI65UQBHxchGMuZKxPVXq37k9S9p04LBqVq2OpyuM2KiTtH6+7dxX6vurdgtZYYmyxEMkB0tP3Hmmgw5DC1F97yMms6um7dqZCoaMVKmhZfEAyh55c+IIcAQ4AjWBAJ+RawH1PSfOMq5d/P1A7jaVDN6Iwh/HsSt9kXtWOQ1ANTntIac96H8eFIRwM49igSGW7R7gj2voglHdxdt3xWR27dexPVO5k7OXQ2eLt7YpFaqlkdTcNLY2Tt0jtXgbzwFAwtNAz4BdOzQeCoNaT9K495kFWZCcEcvK0yx8VMfZ0M33ZdyKJmgsREaatpuakyQZypH1e4BHP/C0bwnN3XqJrPiVI8AR4AhUKwJ8Rq4FuHcdCYJJo4exWfnhtd/C2eu3oV0zX7buTZ7eVm3azlol5zAH16wAmnnHJ6aAh4sjeDo7srw/0BiOZutEqz+dDgUFRbjlLBJSM7PAH63gLRQe4shr3Dk0dpPTm0MHsuhJVOXL/avLy9Tm8Ck0WOuvENb+Hv2BPnKifeDlofNoxT4gYAqrQvvIzY07qa2uSbu5aDB3P+YsNHPtzni09hCwVsuQJ3IEOAIcgWpAQHk6WA0NPg9N5BTkwxufLoCU9HTBGK19ABO8NEOeu3qD5K2N/MKTa1m/xp7Qu31rJsRpJh649S8ggzaRniSnsG1k5PK1e+uWkhA/c/0WTF24VCzGruTJTVS5b9ixTymvJiNFRapqbyFehAe7FKKyW07RySFwCK3B5WpxMZ8szyPii7fSFcr40iBJHcWgw5eDl7+H6Kd3IDMnFa/3gIS2SGRxTqRpu5dC9zEeYn0y4KPtbhKV0g8pnwc4AhwBjkAVIoBHcwUov/1kL0axHdp6Vlut1lt5N4Y1cz4WuwpJqWkwZNosKV7TARKsfj7e8Cg2FkJjlB2/UN80OR2NyhEfd1wTt7GwgMcJTyEEHcLQgKGitGDSBOjToa1UvbaefkbbwixMBFuDbBTCKfgpr4tV4mGEnt6SsovXy8kjnLj97AHOsM8o9rKLgGjSLnmBMzW0hISMx6j5UB2oiJz4lSPAEeAIaBeBOq9aj0N3pkGXBGtwgio6QfD4pV3YNOdOluknrlwttQKpvu+GR7BPqYUwg/g8uZdWVpFy5Z26cgN0ZVbcZ6/dKlf96iqcVZANWbiHXCK1Rm5SrtoAbS0b3OYjdA8bA0kodK3JRSzuYRfpMR47qkqatJuelw704cQR4AhwBGoSgTo/I69J8Gpb2w1xS1r/zHRwxb3Z+ly9Kz0emjX7OneW4vJAelYiBMfWLoc58v5VJlyEqotU9Gdw2cgEzuKnCE/A48QR4AjUPwTq/Iy8/j2S8t+RLgrtBU9j4eOkBDDkAlwNgGgcF1PsUEdNgXqfdN3QCN50dIcbhsb1/l75DXIEnjcE6oWxm7bdx9b2H8XPsVHwaWI8F+K1/UHVYP/8c7LhdGQItMjJqsFe8KY5AhwBbSDAZ+TaQLUaeQ5NT4E30oqNuC7ijOuoiTnkcy1qNT6F2tuUI+6UeA1/H8aoqTFHg7wNcVHQ0d239naY94wjwBEoNwJckJcbsvJVcLK2hunj/k+qRIejBG4R9pFLiZUITEwpduP6u7kVvIXq08J6sBY6sEsn6NOx2Kp+Lx4ac/KKssvbSsD2XFX9wcoOzkUFM41Nh+wsaI2fa0Zcxf5c/Qj4zdZrBLgg1/Ljtbe1gS6t/KRWUr08qlSQ+8tUpV/YOpZbiGuy/Y28zzX18AA6RvUGHt6Sjuehy0nuvU6eLoZVndLQ4Kaxuxvkoq/yB6HhkJxVUt3bs11rJdwSEpO4IBcBLeeVhPZOM0t4JS2Z1aTfDBfk5QSRF+cI1GIEuCCvpocTHZ8A4+cuBHICU5VkQaeJKeiJbvke57yJ46A/noXeQDaDp36OmTVfZAkTXhoCbw8bpFTmfngUTFm4DOjgFqLjPwbi+eG6Uh3VwK2Qh/Aeln9t8AA8yrU/mBorzwYpf07gOrbFTqw774f1YIj3M3HMSBjVp4eYXCev/uhH4HU8wvbI+UvoMvd8pe+hIvyeyJ6POZ7Ox4kjwBGoPwjUC2O3uvA4yIMbzWRF4VfTfV49ezoM6NyBdYPcvJKXOBLilgrXr5RB6u3xwwczIR6flAwHz5wHOtmtiYcbrJtf7HQnODIaYnA/v+pH9LR27QEe8Yk0pFsnJsTJac/Ve8HwKC6epbdAl7Nr5s5kYfErr6CQ4UXe8Oo6tfBpzLQLvdq3qZJbqSy/Biqe9KqkU5wJR4AjUGMIlG8KV2Pd5A1XJQK+bq5A7l7JHezkRSvgdliYxJ78v4v0/svDWfDohcswb80GFl61yRj2r17ODnZp1NCBuZt9Z8FisYp0JU90uwO/ARLmW/f9zdIPnr0A1+8Hw/+zdx1wURzf/6l0EDh6FxVQRAVi18Sa2KIYozHFWBJTfpbExBJ/xpa/xhJrokbUxF+M0USNveDPaCLG8rMX1CgCgihIUbqANP/vzbJ7e9RDOY475vm529nZ2Tcz3z15O29euRoRKbVr39IXVkz+BFwwU5yvpwcGxomVrvECR4AjwBHgCFSOABfklWOkdy3Gvz2EzSnk1BkVIU6V8v1vBaZiJQo5eYYd6Yv2s2nlTYJ3WL9esOTnX6Vr8sLIQa+yU0oIk1q8B77pwCF5E1Y+d/0m5KKmwgRfIHybNNaqIHexsYEp7w2HVl6NwdTYmGkiHuPYwyKjYfaqdVISm1KTKKdi77eLMLtdA8aLmnRp5Qchq5Sx8T9bshKi4+Lg14VfgZmJCUzH7YWwSEF7Qe2H9OqOWxv94S5myxu7YBmow+82hu7lxBHgCNQtBLhqvW49bzZbDydHdtwfegpGB/WHdTOmwOLPxsGg7i+poGFgIOx7x8apxohPShGMptwc7VXay0/6dxEyjP28T1iNy6/JywYYeczY0JBVXUVDOm1S00bu0AE1BPVxTNHxCexDAr1TqxawY/l8lZS06owzJT0DKDc9vagQFaI9A52Lnzyspy2EzZgz3rqhBSxHzYR1sf2At5srfD78DbA0N4fg7XvY/erwYw35F0eAI1CnEOAr8jr1uIXJWqL1OdGCiR+DvbWVUInflC99cM+uMHr2fFaXk5vHsq71QIO4LSGHpXbNG3uwsgLV52VR1xcC2H10/8mrykxlZbWdPmYkW/nSvnlZSWXKukdTdVF3Y2Hm9z/CsQuXpC7IIv+v9d+xlLQ9cI+bthnUpffmLGBNychvHG5TnLlxC6Z/F1zq9r2hJ6AjejZ0DWwN36Ltwti5i2HVvz9nuKzbuV9apavLr1QHvIIjwBHQawT0RpBrOrpbbc3+9iy/TiMD4bHbWVnC7mMn4Je9ITAQBfgotKz2dneFoa/0gB2YD53UvLRCfbffy0D+7+FR0TBh+DCmBqd+LcxUrc/FsYwZLKjVD5+pOIb5S4H+aFDXnu2jT/zmW/F2rR3j0cWNPpa4Cnd3cQFne1u2Oqdscx7Ojvhx0tjYZq1eD78v/Zrhv+e7hYitGVwJj4SytiM0NgjOmCPAEdBJBPRGkOuToNX0L6kQ3Y9IfRwVFw9LN/3Guvtx934IQAO4wObe0LdTBybIF6zfCFsXz2P5zxd+8pE0rIysx6wu43G2VCcWHK2swAvVwkSb9hwUq0sdyYVK5Llk01atr8ZpgOTutnzqpxDQzKvUeKlC1GSUefE5KwvwmYybtwTxnsuEeFZ2NkxZuuo5ufLbOQIcgbqAgN4I8rrwsKprjuRCZoWGbKEXrqiwPH7pKhPk9gpB3U6pU4M+nQofoy93iyaN2Mr5xJVrQK50pCpOfKSMKicyGj14ACvSHnNierpYrXIk6/SVX0xkquO1O/cBqZZrAy347F9MiNOWwHGMIvc/dMlLzciAsTh/X9xOaFBfsBnQ1FgdbG2hAQbfITJBrQC9OOSUg6GmxsD5cgQ4ArqHABfkuvfMnnvEZGxFgtwVLc/l5IKqZKK8fCHQC5WzsbxiyzYqSrRp3kxWJov0ktS7UztWtQUNuMoiMuJaO3MqCyDz84HD8Euxa1pZbWu6jjQSRDMwGM3Z6/9I3bs7quIkXpj5wSho2bQxOz2L1vclcRLbPS32264oaI4CVenLp05gLzd30LiwiaszrEVf/TemzARarctJHX7y9rzMEeAI6DcC3Gpdv59vmbPbd/w0q+/s76diiU3GbkQx6O4kEoVnlVOfzh2YDzn5oG8/pCqsX+nQju2fUxCXw6eVLmvi/Z6OjvADCicSaFsP/wXrd+4VL9WKoyhoM7KypPHQiwftV5dF/j5Nwd3JgX1aYVCb8ijpkZDUxhet4sujNfhyQy54J1HjMWLmPBacx0FhDXPHfVjqFnX4lbqJV3AEOAJ6iwBfkevtoy1/YnuOhsLYoUFsVX5k7Qo4ffUGtPX1YfveFMBl9RYhqQsFhzkUvBxo5Z2Ukg6erk7Q2EUw+NqGxnC0WpfTyIF92enfqKIvGV+dLqyYNhEM0dCO+ngpsBX7yO8nN6x9x0/Kq2q0HHUvnkWtWzntMwynehFV6fWl6HfPM5CwW+FszgpLDJKDvuX/3ImB/PxCCN62Ax6gcd200cOZMR1Z7s9cvY51NQH9xn9fNh+6tfGH13p0hT3H/paGUBk/qSEvcAQ4AnUCAdXlVp2YMp/kk8ICGPHlXEjHlSetAnu2C2RCnFbSs9ZsYNHaCCWKC0/74X6oPu7RLoAJcVqJr9y6C9Zs36UCJEVyI3Uw0YadB1SuiSfGhsJ7I8V2d3WwL/VpiqtfbdL0b9fAw7R0FpwlqFsXePWlTpCGGJFQJxJDzopjLHku1pc8JqE/+aKNv0JWdg7YojAnN7Ne7QPBCbc2OrduCdRXEarPx89fzvzK6X66Z8aqHxirKSPeVGFZET+VhvyEI8ARqBMI1INmgapZPDBncUki167abBVem8fX2qspBM+YLEFKq64BE6dJ589bSI28BtbFe6iKpi0hTZYcQx3eJID90IL8fkJCmZbj6mRHU6efqraZO3YMCrs20m17Q0/C4nKiyEmNqqnQ1MUZ3Jyc4AaGkiWDP32gVUn3YULaIzaVT+xdYbWi7H1/fZgrnwNHoK4hwFXrGn7iiRjONPTCVamXuORkqVwdhQy0pBYFuROmBa2qICdBdfzS5XKHQirymzF32afcRhq4cOJSGKq2lT/P01eua6CXsllSYBptB6cpe2TPXuskSz6TgVsGnDgCHAH9QUD5l1J/5lSrZkIuWDO+F/Y9NTGwi5hr2iNL2KtemPwAhrl4Qr4sLakm+qwJnkfOngf6cHp+BF7MyYLXspSugBdMyjbee/6eOAeOAEdAGwhwQa4N1KuxzzVWdjA4K4NxfO1xBoTFhMNxM3MogHrV2AtnpasIOKE9xCAU4uJ/9L9NzeEfYxNdnQ4fN0eAI1AGAuL/7zIu8SpdQOCoeUNYbW0r7X82z38CzdOf6MLQ+RhrGIFHuA0zxrF8F7gaHg7vjiPAEagmBPhmWTUBqU02n6Lx0lQ7Z8isxx+nNp9Dbe6bVuIdPbwh0si4Ng+Tj40jwBF4BgT4ivwZQKvKLc4KBUwa/Y50CyUfWfmb4KctVT5n4SnuiS+1cYA1Tnbg2roepHoZQ7ZlAyiqr7vqdQpVKg+JWlhYiO5wpT0qnhM6vb+dXFIKntaDwsdYiikAuIj2FDmqjip6DwKfIEdAzxHgglzDD9je1gZ9hf2kXjKaeFa7IGfMHetD9mBziDDXp1W5XHDTS4lmY51LD0kfCxY4KUfEz98IYE8OQFyhPs6Sz4kjUCcR4IK8hh57XFIyvD9rPguyUu1dmqKQex1TiprpkxCvdpQ4Q0LABH8rg/G38vNjgEy+Muc/Co6APiDABXkNPUWKkJaVl6eZ3trhKksU4tm4iv0Ljd3u4Yqrgr/T30z8F4vYRtHJ7mJs9aTUNPBwtIeGmHHrzWlfsXH2bNcGJo0YxsoP0zLg6u1IoPjsppiZKwazm01YtEKajzr8Zn40Gtq3aAb3EpNZfxRL3ANjlVOkt0cYyWwUvuiUpA8GD8QQpS/Cf0+dhdXbVKPJlWz7vOcfDxkEA7t1hoMn/gfBv+95XnbS/UNe7gHvBfWF/2FilfnrN0r1z1qoMj9SZrjgarwX7o9b4MueMVZ0xN/MEW4U+azPgN/HEahNCHBBXpuexrOOpansMdIf50jcC62AfNzd4MVmrYDCrY5buBxuREdLrSm+OuQJbwCfDh4CCgML+PPcRZgdvIG1+cnUFA6uWQYKDy9o1NCBhXNVl9+aH7fDAsyzLY/DTlHUNs2fBQpbC/Cxc4Xb9+5LY6GCaZERG4PZUxRCGt7bpT5ovtXdl0mhIeNrAej2VQ1zeCZ+9Jt4gs91WLEPOf1muCBX+a3xE46AriIgkwC6OgU+bmhIS65iIoOmSmj820NYi5BTZ1SEOFXKtQYKTHVKFHJSmcksLScH4jFanQvGCR/WrxcswbCp6vJLeYzq3BJEEdQoxjslU6HY4yUFeYnmNXJqZWEOv3w9CzydHVl/91GDMGXZaoh7JIQ4VXcQlCDFEEPmkgaDqEsrPwhZtUS6/bMlKyE6Lg5+XfgVi+8+feU6CIuMkq4P6dUdxrzWn2lMxmISFXX43Y69J91fqkBamkIU5g3w90K2FLQTIzdDKHUDr+AIcAR0AQEuyHXhKVU2RtSaSqTGH2YPJ0FA7Q89BaOD+kOnVi0g/XE2nMIUmntDT0isDAwExrGYH1tOSSlpTJC7oSqeSF1+ch5UphSpb/frw4Q4JQ05fSWsZBOtnFOMdxrPHXzJcESvAw8U6L9+8xUETZgC6bnqq6NTcLvAyNCQbR0YYcKYwqJCoFzwIuXhVkt+YRFQ1rcvRr0Nyyd/AkMnTQd6WaL0qZ8Pf4M1Dd4uqPnV4SfyLvdIvw/x98IFebkw8QscAV1CgAtyXXpa1TRWS9wHJ1ow8WOwt7aSuFI+8sE9u8Lo2cJedU5uHpiaGEGPju1gS8hhqV3zxh6srMCEK0Tq8mON8WvWh6OhQ0tfsG5owYRcLgq0pZu2QUEtci97/6tFEIFqfkoas+2b/2MvLh+9OYRpIMR5VHZ8b84C1mR4/z4w7o1BcObGLZj+XXCp2+jlqSN6NlBWtG+nT4KxcxfDqn9/zrBZt3O/tEpXl1+pDngFR4AjoNcI6I0gpwxomqTanP2tqvM2QjU2kZ2VJew+dgJ+2RsCA1GAjxrQB7zdXWHoKz1gB+YbJzUvCdx3+70M5P8eHhUNE4YPY6lP6X4LM7R+RlKXH2uMX/Zo5NbQzIwJKqpLz3oMkRWphMUba+gYdT+eCXHqjvbzf9xzEGZ/OAo6tmyhsRHMWr0efl/6NcN/z3cLEVszuBIeCZsOHNJYn5wxR4AjoB8I6I0g1ydBq+mfFgVWqY8ZsKLi4nEl/Bvr7sfd+yHAxwsCm3tD304dmCBfsH4jbF08j+UqX/jJR9KwMlDwWuI+cgaq44nU5Scy+HTxt6zojUZ3b/V9Gfp2bg8b534JA8ZPgVQ0htM2kRW/nG5FxrBTq2KbAfm16iqTNmLcvCWI91wmxLMQhylLV1UXe86HI8AR0GMEaJeMUx1DIDs3l8049MIVlZkfvySkW7VXCOp2SnEa9OlU2HH0OPxzJwZu4Ip87c59sPnQUXZf4qMUdlSXn0pneEKq63k/bISHaUJmroE9u5VsopXz/AIhm5zYedFTNBJD0nQEXAdbW6CIdkQmaCAnblmwCv7FEeAIcATKQUBvVuTlzI9Xl4EAGVzR6tIVrcTl5GJvy07z8pWCLBvLK7ZskzeDTfNmsvOb0XfZsSr8VBgVn1CwHDvcq2/TwqdWqJJL4uJabBwoaiDEOcz8YBS0bNqYnZ5FH/GSOIntnhY79BugBXt5pEBV+vKpE9h2wx00Lmzi6gxr50yDN6bMLGU7oA6/8vrh9RwBjoD+IcBX5Pr3TCud0b7jp1kbCu5CxlwikbEbUYxMtUyW5XLq07kDNHVzYT7o2w8dYZfU5dce99vl/dHNJMBaezdlfCLu3mdHbX+1aOIJ1ugvL9LbaCNAdCsmVqxiR3+fpuCOAW3o08qrico1+UnSo1R26tvIXV6tUl4zcyqzPTiJngMjZs4DermhgDlzx32o0o5O1OFX6iZewRHgCOgtAnxFrrePtvyJ7TkaCmOHBrFV+ZG1K+D01RvQ1teH7XtTpLfVW4SkLhQc5lDwcqCVd1JKOni6OkFjFyfGeBsaw9FqnUhdfss+H8/202/fvQfJqRng08gVnO1s2SqUfMm3hvzB+Gn7i+wHti6ZB+Rn36yRBwQ08wLCZdXm7c80tLBb4ex+hWVD5gtO2xT5+YUQvG0HPEhJhWmjhzMXt9SMTJi5eh3rYwL6jf++bD50a+OPke26wp5jf0t9V8ZPasgLHAGOQJ1AQHW5VSemzCf5pLAARnw5F63Fs9gqsGe7QCbESZjOWrOBRWsjlAoxrCyFlvVD9XGPdgFMiFM0uJVbd8Ga7cpwqeryu5uQBKReJn7d2/ozly4Kz0oBZsbOXwq0J69NKnoqOOGHRUSxIC5v9u7JhDjNefqq9RCfItgEiGMk4a4OJaE/+aKNv0JWdg7YojAnN7Ne7QNZAJzOrVtCULcuzG99/PzlzK+ceNI9M1b9wNhPGfGmSjcV8VNpyE84AhyBOoFAPWgWqPrXqPiPmXz25NpVm63Ca/P4Wns1heAZkyU4adU1YOI06bxaCp9jBDYxZekKFIaCPFKLtR36gvt5e8H9hASgKGsliVThtCp1wpXzndg4SciXbCeeV8bP1MAQPN2cwcHGFnLyciEyOhbKivg2d+wYFHZtRLYYqOYkLMYocjVFNG9/tOIvxIAt16PuqISVrakxaKSfT/G3Yli8nfId/lYqDwSokWFwphwBjkD1IcBV69WHZZmcEnG1GXpBsAanBnHJyWW2e65K+mNsVMzBEI9P1OdGq+Djly6XewP5Ud+Mucs+5TaSXaiMXw5ahN/EvWb6VEQnLoVhPnLlz/P0lesVNa/2azTvy+ER1c5XqwxJ/yba25E2QTDG1+qQeOccAY7A8yOg/Ev5/Lw4hzIQSExPhxnfC/ueZVyunqoUXII7Ff+FboWS/IKwd109zLXD5cjZ80AfTtWIgB/+NkTNTRoKclVdXDV2xFlxBDgCNYkAF+Q1ibam+rqJglsU5F0xQYcVLr0oQUYVVOyaGhrnWwsQIE26K77oBZK6ppjoN8OJI8AR0AsEuCDXh8d4Ff8ot8A/0o74x5rcyQJQzx6gDxPjc9AIAo/wJe9CnkZYc6YcAY5AzSPArdZrHvPq75H2OnfmAMRyy6XqB1fPOMbjj2UH/lb4glzPHiyfTl1GgK/INfz0nTEN5qTR70i9UPKRlb8JftpSZXUUcnDD83f8A+2Bq/ImBlDfoh40RxW7nXE9UIZ8qY6OaoaHtaUlKDA7mkiP0B0rA93lOFUNgRyU21FZRfCI7CgoV300vfVx4ghwBPQJAS7INfw07W1toDOmqBQpo4mnZgR5cQcNcG98SitjmNzXHOwtdVnhQhv8GSJsxUelYC9xgZ9WgADFAjh8LQ8m3cqEWxW045c4AhwB3USAC/Iaem4UcvP9WfNZkBVNddkAl967JlpB0AsmmuqC89VBBOqjpXo/f2N40ccQ+ixJg/9Fcr26Dj5GPmSOQLkIcEFeLjTVe4FWRVl5mjUwmtzPTEWIx6UUQlRS2apULw83MDcVBH7ukzzIyy/AKG+GmH2rAVyPvMMmr0D1toezAytT1Lesxzlg1dCcpUCle8KLfcG9MYZ4WQlBjAyFn1dSSho8QH96opYYk5wyfFGgFcqaRjnNKbpbTu4ToNCtJcnFwY7lL3+UlgH3E5NKXtaJcwcbBThjQhrKux6DCVGel6rCz8yoHgR6GqBPfj1oaFoftk+wAp+pDyGHy/LnfQz8fo5ArUGAC/Ja8yiebyDkHjwJBblIq/7Ihkm/ZmLmLLFGefTBPOA/zR0LBXmFMG7BcrgRHS1dpPjq4gvHnhVfQGaRFfx57iLMDt7A2lAykYNrlmF0MICRP/5fcaQ3ISmIxAQLFOFt78pvWIzxgV9invGcHOjdsT3M8R4NOdl58Ppn0yDjyRPw9/KCNTMmsYA27/44B+6h5kJOn7zVC97q0xP2XqrZyG7yMTxveXj/9jDujUHw9+1rMP274OdlB1XlF9jIAI5OU4CNRX1ws2kAb3U0gZ9OCKlsn3swnAFHgCOgdQS4INf6I6ieAXij65mjFRq6IT1IKyxXiNP18W8PoQNLCiIX4lQnCnEqKyyEPemQk2folFEaCmSKje6CKVCH9esFS8oJmzpy0KusPSVcISFO9FafXuz41/mLTIjTyaRRb7I6+np3QF9Y+J9fpHNtFZq6OMPsse+Dm4M9i0VPsdZjURuwaMNmlZeeysa399tFYIgaDlPMLU7UpZUfhKxaIt322ZKVEB0XB78u/ArMTExg+sp1EBYZJV0f0qs7jHmtP9zFbHRjMYmKOvxux96T7hcLl+8WwML9j2HJ2w1Z1Ys+RnVHkJOlJxmApuEbbTqPgCP+JvhRvxDQZWso/XoSzzkbW1xtiRSdXFjmSly87lGcX3t/6CkYHdQf1s2YAos/GweDur8kNmFHAwP8A4gUW0IdTKpyIjdHe3Ys66t/l46s+ud9/5UuO9hYs/KJy2HsGNTtRfByc2UpUalCzKzGLmrp60X/1vDz1zPZuPLy8oEylaVgGFvKD/5q105VGlUKWtpTrvbc4i2VwqJCdk519MnD+nzcYtgccgSs0UJ/+eRPpPSp3ojL58PfAEtzcwjevof1qw6/8gZ4O0G5xWLXkKRbHaGX8CVqKGqqRpkDmNehedeRx8unKSDAV+R68kugODDqkqW5oIJfMPFjsLe2km6jfOSDe3aF0bPns7qc3DwwNTGCHh3bwZaQw1K75o09WFmB6vOyqOsLAew+uv/kVUFoUztxTz7pUQooUEU/GbN60d77f/Yego+HDARK86lNMsD0pbM/HsX27PcdPwXfbNwiDYeS35DNQFXovTkLWPPh/fsw1fqZG7fKVK3vDT0BHdGzgbKifTt9EoyduxhW/ftzNo51O/dLq3R1+VU2RrJJqDOkKJ4rJYpBl0x4zFfldebZ16GJ6o0gpwxomqTanP2tqvM2MhAeu52VJew+dgJ+2RsCA1GAjxrQB7zdXWHoKz1gB+YbJzVvh5a+8G6/l4H838OjomHC8GFM3Ux9kqFaWTRmsKBWP3zmnMpl0SAuE/3B5382lhnIzQn+DzOeo4akXtYmtWjSGF82TNHwLq/UloFc5a2JMc5avR5+X/o1w3/PdwsRWzO4Eh4Jmw4c0kR3dYfn/9DA1AAFeDKq1hPLMBipO0jwmeoxAnojyPVJ0Gr691ZYVMSEZ1RcPCzd9Bvr7sfd+yEA03YGNveGvp06MEG+YP1G2Lp4HstVvvCTj6RhZaD1taWFOWQ8zpbqxIKjlRVTS9P5pj0HxWp2FPvtjyp1ShF69XYkHD13AV7v2Y1dJyt2bZJv08as+1h8aaHsZzVJBfhMxs1bgnjPZUI8KzsbpixdVZND0M++klB4U9RDThwBPUZAubGqx5PkU1NFQBSYoReuqFw4fklIt2qvENTtlJI06NOpsOPocbZXfANX5Gt37oPNh46y+xJRRV6SRg8ewKqi4xOAMr/JSez3vaB+UFBYCDO+DWaXbYvV+2m4b6xNMjZEU3ykgkLthLp1sLVlrnk0BhM0kBO3QOicE0eAI8ARKA8BvVmRlzdBXl8aATK0skKLdFe0PJeTC/o6E+XlK52Ms7G8Yss2eTPYNG8mOyeL9JLUu1M7VrUFDbhKUnJaOuuX6hf99Ktkzd6uRTPW9J6W/cTDMe86kStaq6tDMz8YBS2LV/Fnr98shZPI42lxvlBxa0Gslx8VqEpfPnUC2xe/g8aFZFy3ds40eGPKTDRcVFUJq8NPzpuXOQIcAf1GgK/I9fv5ljm7fcdPs/rO/n6Ynhr3D4uJjN2IYtDdSSRDDN4ipz6dO0BTNxdmab79kKqwfqVDO7Z/TgZsh08rXdbE+3f9+TcrkjvXcVSpE5Eq3rdxI1beckBpUMcqavjrZkQUmxdZkPftLFjdi0OwxBUyuaXJyd+nKbg7ObBPKwx0Ux4lPRL87H0xcE55tGbmVIbdySvXYMTMeUCRAB0U1jB33IelblGHX6mbeAVHgCOgtwjwFbnePtryJ7bnaCiMHRrEVsdH1q6A01dvQFtfH7bv/RT3hldv2cFupuAwh4KXA628k1LSwdPVSXIR24bGcLRal9PIgX3Z6d+ooi9rj/ng36dgwpuDmVHbdjTsuvBPOLCXCbQWj3mQAFHxD+TsarxMAWo2oOEfWdDP+nAk9HuxA9y8cxd95m2h6wv+QP70i8vxm69osGG3wllgHLLKJ19wcmnLzy+E4G074EFKKkwbPRwj6DlCakYmzFy9jrGagH7jvy+bD93a+MNrPbrCnmPCSxBdrIxfRWPh1zgCHAH9Q0B1uaV/8+MzKgOBJ7gHPOLLuRgyNIutAnu2C2RCnFbSs9ZsKI7WBiwuPIWW9UP1cY92AUyI02p65dZdsGb7LhXOFMmN1MFEG3YeULkmnpCKeOSX84D2wkmovdKxLbMSp/30D+csFJtp9UhW4ss3b2d7+G19m8GIV3tDr/ZtmMr7Kq7Y5UQvPepQEvqTL9r4K2Rl54AtzpvczHq1DwQn3Nro3LolBHXrAkWIzfj5y5lfOfGke2as+oGxn4JuenKqiJ+8HS9zBDgCdQOBetAsUPWv0VPV/TiCgVy7arNVeG0eH/kfB8+YLP2aaNU1YOI06by6Cu0xdenZr4Q97vN38qH9V6UN0crqiwSwn7cX3E8oe0VMqvdmjTzAyc4W7sTGSUK+LF5VqSOVuk8TT7h+67a0Vy6/f+7YMUyAinV7Q2s+RKs7ClovnHviwxSIuBcrCVlxTLp0HNLWGHZ8KgTk2XU+F4asUjVE1KW58LFyBDgCqghw1boqHtV+lpj8EEIvCNbgxDwuObna+yCGsY+UL2Ct3AzA3aY+3KMc1JUQWaYfv3S53FakIr+JRmD0qU4ii/bEy0pcSvI+cSkME30of56nr1wv2UTj5/fw2dFHH+jVAGNpGncfKaO8SZW8wBHgCOgsAsq/lDo7hdo9cBJYM74X9j01OdKE9CI4G5UPHZoaorq8HhyaooDPtmRC+APtuFI971xvRVwE+siJXk44VQ0Byn42ppspvNdVGbxnz8UnVWPCW3MEOAK1GgEuyGv146na4L7Ymgl/TVewlJV+uCo/ghmvOHEE5Ajsu5QLf4erGinKr/MyR4AjoHsI8CWO7j2zckdMf6BHr8+AJ/mqZg/l3sAv1CkE/vonD0aszahTc+aT5QjUBQT4ilzPnvLm07lwOiIfJvYxg5d8DMEyyxMKHjSGolzM/vRU6TOuZ9Pm0ykHgYLCp5Ca/RRuxRdAOGZAG2OBDemjYaKgNY+LcuHmk7tw5vENKAC+L69hyDn7OowAF+QafvjOCgVMGv2O1AslH1n5m+CnLVVWc+EOpjFduNUQzJ0+gABT72rmztnpGgL4Cgdt6CMYrdf48O/nJ8PshA0QlqvqvlfjA+EdcgT0FAGuWtfwg7W3tUFfYT/p0w8jo0OLE/cAAEAASURBVGmaFA0awo9uX3AhrmmgOX+1EHAztIdg18ngZ+ypVnveiCPAEagaAnxFXjW8nrk1hdx8f9Z8FmTlmZmoeeME29fByVDwKS94WggHMk5DTN6D4ojfSiavYJ7xZhg2VJ6fmoLEbCoRKlWddgGYNY2CmzTAKG0iUYCZP86chzv341nVuGGDVa6L7cTjg4ePMEFLKDutX78eZp+sD50CWkFr76ZwHRO2HDt/SWyqE8dWHj3AxFDIsX4+at9zjdnG3AmaOrUvxeNq9CHIK6qdxmu2BpbwumVXsGhgBsb1DWGm4yh4O/b/Ss2BV3AEOALPhwAX5M+Hn9p3U4S0rDzMjaxhMq5nCH0aColLqKt/P1gLoY9Vs5xR/Zrpk8Dbxw0KMQAQJelIwExmnhgm1ArTk27ZfISaMFKnHQnwcR8PZu3vJSfBtcg70N7Pl0Vv69O5Pbw9bQ7zx+7h1Ab5mxVzVh6cMdgMvUz8EXIBtqQp+6YWFvYW4NehMdzOuVfqmpJD7Sy97hMIVmaC/3bJeVV1xA4FLtDCSjBidLXxBSMDIXf79oxQeFxQOp1sVflrqv3u9BPwq8dsMK1vDN7GbuBr3Ijtm2uqP86XI1AXEeCCXM+euiuqMU3wjybR3byEMoW4j7sbywdO4VbHLVgON6KjJRQovrpI6rZ7/eXu7BbSOgxDoS3Sn+u+ZSFg+7zYCSjf+QdzF4mXpCNFltu78hsWi3zrgf9K9bygikBSVjwk/bOZVfbzHwtOCi/VBrX07F5+EhzLugz9LYUkNF7GrlyQ19JnxYeluwhwQa67z67MkZvVU0bwyizKKbPN+LeHsPqQU2dUhDhVyrUG6rYzLRb+N6NjVfq7j4Ldy80V46kLq0eVi8UnIwe9ykqUmCU1p+zxlnWfpuqcLRtBQOP+YGfpAQYNjDDmeh48fpIKUQnn4WrsMdZt+yYDwdnGh5X/uPw95BTmgpu1F7TxGsTqwu7+AdHJ11SG6GLlCR28h4K1hTOkZyfCpaiDEPPohkqb6jyxMLSANt6DwNnaB0yNLCArJxXuPboOl6JDIA/nNKjtZNbd+YidEJ8eU6prb8c20MK9O+y9sIxdY/y8gsDJ2hvMjC0hJy8L48FHwcWIPZCep3Rpa+HaBbydBaF97vYO8MZzZ8PWAMWP1qxe+b+FUoPgFRwBjoBaCHBBrhZM+tXIw8mRTWh/6CkYHdQfOrVqAemPs+EUptDcG3pCmqy67Xb/9TcENPOCDi19wdTAEHIK8sHG3ByaFKf93IWZ0sqj/l2EP/o/79P+atzOzBH6vvCpylBJmFthvbdzZ0mQ2zR0AxsLF9aOhZFFzyoTFJZinblx6UA8r/iPg/r1G7B7iF+PVu/D0atr4V5qhEp/1XFibaKAge2+YC8iIj8LUwX4ur0EHnatYM/5b8DS1I5dt7P0LFOQu9g0k+Zjg21fRcFPWIhELweN7P3B3bYlHDi/BB7lCKGHLU3tpft6B4xnc26Qxv/MiLjxI0dAEwjw/2GaQLWW87Q0F/apF0z8GOytraTRUj7ywT27wujZ81mduu3+On8RXsI0ny93aANH1n8rZTejjF4/7TtUbrzyri8EgKmJEeTk5sHJq2HSOLRV8HR4Qer6YtR+uJNwge1FO6FQc8IV9/PS9di/UPgFQENTG8aKVv73Ur97Xral7m+PK39R6KY9ToDIB+fAz6MnW5mbm1hDa4+X4VHmfXC0boIaAuGFxBFfTowMTCE7N40JZRsLV4lvB583JX7hcacgNjkMXHCf3s+jOxPUHZu/BQcvr5LaiwV6cUlIjYSEdBNobdhCrOZHjgBHoJoR0AtBfvb6TZahrZqxUWFXm7O/qQxUjRMjA+Gx21lZwu5jJ+AXzME9EAX4qAF9wNvdFYa+0gN24Cpa3XaUWOX8jVvQvW0A/sFvwIzcaBiPc3IhLCKy3BGNGSyo1Q+fOVdum5q88KRQqdp3tfGDFBR28el3IAWF1z/4eR76X/h2uJ14Aa7E/AHvdhVsBUh9X91kUM8AXG2bM7ZFRYW4+l6K3gpPITbpMrzeWbBf8HLuwF5SSJDbmguCnFbPJPyTUc1+AIUyrayJTBuY4H58E1YmdfrlOyGsTC8CjR1fYGp2B9w2KItikq7AsX9+gZb2bwNYc0FeFka8jiNQHQjohSCftKz0aqA6wNFXHoW4Uq6PbmJRcfGwdNNvbJpkjBbg4wWB6EbWt1MHJsjVbUfq+Q8HD2Ar65W/7YQTFy7BwB64sh/YF1ZM/gQmLVsNZ6//owInpTGl/XOiTXsOqlzT1sndhIvQtulA1j0JLyfFWFa+ef8EXL97FLLys555aA8zYti9+egqRnvkpF7XBFmb2kpsk9LvMiFOFbSP/SQ/B4wNTdnKPCXrHmtnaeYAVsbW0orbtqE7WBlZStsAluaCQKfGpE5/6yVBW8NuruQrGl9cOHEEOAKaR0Dp9Kv5vngPtQSB7NxcNpLQC6puaccvXWX19gpB3a5uu/5dOrD7fjt8FHb+GYpGUBmwYc8BOIurdKIhxVbt7KT4azQKfqLo+ASgDHG1gTLyM2Hf2UUQjatXOdHe8uCOM6A++rWXR/XqCfvf5V0vKFBmHCsszC+vmVr1T2Wt6pUYkzwmQEEJY8eCQuUYUjPjGBdSf7vbt5I4snMHf+m8AbozPivlyeb8rDz4fRwBjkDlCOjFirzyafIWcgRSM7PQn9sCXO3t5NXgYi+s5vLyBUGjbjvyAycKu62qRr+O/uRkSNeicSOVfuikd6d2rG5LyJFS17RZQUZboejmdfrWdnBElXFA436SBbubwgdiU25BEQbZEcnEyJyt1BWyPWXxmvxoa+UBGQ9vQD38Z23uLL9U5XKezG/c0swestKVmoL03BSJH1mYi2TWwBRof5woryAXUnIeiZeguWtXVg6LOQKtPV8BX9du7DwzJwWt3QUjNqogy/ffz3zNrpX6KjOMf1GpZryCI8ARqH4Eyl9iVH9fnGMtQWDf8dNsJJ39/XCVqfwLTMZuRDEPEtlR3Xa0F05Ee+ty6oOR44iSUtLk1fBKh3bMv5wivx0+fUblmjZPGtv6gX+jXkCuVnlFeWiIdpsZioljIjU0UY7M3crHpQu4WjUBrzKiron30bFt08HgrvCGLs2GSWprEozPQlkoYEXy9+wP5Npmg3vapBIn1zJS3RPRnneXZm+Ak6U7vOg3QrwF7qf8gyr3IqkdGd/RfnpEsR0AWbgTJWfGQEZeJnM1o3Oqf6FxH7Azd0T7CSN2bI9bEf0ChC0IasOJI8ARqHkE+Iq85jHXeo97jobC2KFBbFV+ZO0KOH31BrT19QFLjOr2FA3XVm8Rkrqo227v8VPwbv9X4EUMp/r74rlo4HaHuaIpLBuyuf68X9W1bCTunRP9jap8MpSrLWSOAu0FtCSnD/mPE4nW31ROShM0DgnoMublJLykNEM/afpURiQEX/b/l0qza7HPpo24k0hW6N0ZL2Ev/xNWTky7AyFXvofTN7dCvzYTWZ0P+nTTRyQS2Jcj97HT5IxYaa8+IS0KaGuBDNpoL5zoEV4nOoEGa72LhbW/Z2+gj5zEFwd5HS9zBDgCNYcAX5HXHNa1pqcnhQUw4su5QHHVTTCYS892gUyI0wp51poNcDdJWNGp2y74993M+p1eAlxQXd8Xw7KSEC8oLISVW3fB8UvKPWeK5NbEVVAtb9h5oNZgQgPJynnIDMKoTAJcFOIk1MnqnKKrEUXhHvoDdKsSia7fiA0VTyXVO+Eh0tmIXWKRHcmA7lb8WZU6dU8ePk6E0Os/Aam+5SR2l5AZC4fR8pyEspxI4O5Hn29aZRM9yhQM3qj8IDWcDhBffKRySvE+ehy+wBC/sjQINPe7SUrXwSIM+SuSfP5iHT9yBDgC1Y9APWgWqPxrQ/xl/xHF7k79tAb0yf1KnFdNHFt7NYXgGZOlrlIzMmHAxGnSeXUXWho3ho0eXzK213OjYfS9BRV2QYLVz9sL7ickQFT8g3LbqtPOuIEBNEH3NSfcM49FXncxZWsBWsg/C80dOwZ6tW8j3bo39CQs/vlX6VyTBVKtmxo1BEMDYxSGmZCem4rCufQ8FBh4xRB9r5OzKCGN6n+jssZniIlDbCycIONxMosGV1ab6q6zxHmYYYCajOxkyJa51z1rP+SOZmlmx27PfZIB6fjBbf8KaSq6n71p3ZO1WZL0G2xL/6vC9vwiR4AjUDUEuGq9anhVuXVi8kMIvSBYg9PNcclK46EqM9PADQ8zM1VWzOV1oU47WsHfjLnLPuXxUbf+xKUwzJSm/HmevnJd3Vufux25manjapaKAh5A/X1ucj1LzFCugmmg7ZsGqTXec8+YPY1W3+IKXK2OKmlE4Whz0IdcokqEuNSOFzgCHAGNIaD8S6mxLuo2Y3KtmvH9uhoDQZ2VYY0N5jk6OnL2PNBH38nPvZtaU3xWQa4Wcw03kst6ffl9ahgyzp4jUCUEuCCvEly1v3FaoXJf1NUA42lDAygApbtU7Z9B3RrhuYjdej9hD0MnaY7y36dUyQscAY7AcyHABflzwVf7bo4reAhJBangYKAAhUFDmOrwNtC+JBfmte9Z0YhuxJ2snQOrplG9btkVOpoL4VnJ+O1KrtJIsJq64Gw4AnUeAS7I9fAn8EvqHzDZ/k02syFW3aCbeQDE5SerYY6lh2DwKWkNAdsGluBuJPje0yAOZ51jL5laGxDvmCOgpwjovCB3Vihg0uh3pMdzDy2lV/4m+EFLlXWssDXtT/A3aQovN2zLZm5nYAX04cQR0BYCkU/uw6KkLdrqnvfLEdBrBHRekNvb2kDn1n7SQ8po4lmrBDlFTmvWyIO5ZN2JjZN8tKUBY8GwQX1o7ukJDTG9aNit25CVJwQjkbeRR2CT18sDqsjbzEj8Aa4/uQPvWmMkLi7E5ZDxcg0ikF2UC/syTsGah7sh++mTGuyZd8URqDsI6LwgFx9VXFIyvD9rPhQWVe7PK96j6ePsj0ZDbwxTKk9kQeMcNm2O1PWY1wbAe0H9VNqEx9yD8fOXQk6BEPN8UPeX4ItRb0v3yAtXwiNh/KLlrOrYDysxiEmJ5B0IR14K8smpB9H34mFJcbazBvjyYIQJM4IwfWm3NgFw8nIY/Hro2SKNycfDyxwBQoCs0x+jEL+bnwj5Tws4KBwBjoAGEdAbQV6EAryslawGsauQ9Zrpk8Af04KSgU/U/XhIeJQCns6OGBbVXLqvb+eO8P6g/uw8KTUNLv4TjkLVH5p5usO6OdNg5Kyv2TXxRYAiryVjOzndjL4rnUbgit/Kwkw6FwuU1IRCqp8Mu17K2KitqR88dX8KD6PSS10T7+dHjgBHgCPAEai9COiNIK9NEPu4uzEhXlBQCOMWLIcb0dHS8CwwJKpI/3pjECv+ee4izA7ewMqrt5jCwTXLoKmbCzRycFRRxV+6FYG5vVeJt5c6fjB3Uak6isi2d+U37IVi6wHVmOelGvMKjgBHgCPAEdA5BLgg18AjG//2EMY15NQZFSFOlXKtgQJTiRKFnFRmAEvLyYF4jAZHMcuH9esFS54zLOnIQa+yPmjlnoq8tUntmwwEZxsfNoQ/Ln/PwpS6WXtBGy/hhSbs7h8QnXwNXmr+FoYydcWXjyK4ELkb2nkNBpuGbhhm9CFcurMfoh8KUd7UbUcdUtjVNl5BQKk9zYwtWRzypPQouBixB9Jl2cxaYAIU7+IkI+du7wBvPHezaQHGhqaQhqFYd19Yqk0Ied8cAY4AR6AUAlyQl4Lk+Ss8nBwZk/2hp2B0UH+Wkzv9cTacunIN9oaekDowMBD2s2PjVGOcU9pPEuRujvZSWypQXu8fZ/8bnqAx3O3Ye/DbwcOQlI6xriug/l2EzFc/79P+apyEsY2FCxstC7+KcWpMMNOWWGeOMcGJ7C09pKxcr/iPk9J+Uozv7i3fg4KrazHFaITa7WxM7eDVtpOlJCjUB2X4amTvD+62LeEAJhKhPORElpgOVBxP74DxUt90zdrCmQ6cOAIcAY5ArUKAZz/TwOOwROtzogUTP4YPBw+All5NgHJ9k8HaxrkzpB5zcgXr9B7FebvFC80be7CiAtXiciKrdl+8FtDMC4Zh7u+dyxew3N7yNvJy1xcCwNTECKifk1eVGarkbXShfCX6v1LubBpvAKYZLYvKa9fB501JiIdjzu0jV4KlbGX10eCvI2oAyiK6loBZzs7c3gmUvYxW5Jw4AhwBjkBtQ0DtFTllQNMk6VN2NSMDAVY7K0uW3vOXvSEwEK3DRw3oA96YHWwoCuEdR45BWGQUy9v9br+Xgfzfw6OiYcLwYSy1KGFtYWbKII99kAD7MOc3rfAzsx/DQLRi79+lA0sVOvODkXDh2g1Izc4u9XjGDBbU6ofPnCt1TVcqTodvg4jEi3At9hiM6PYNG7YdrthLUnntKFsX5ewmorSel++EsPIjTPzR2PEFpmZ3sPJkdSW/YpKuwDHMxS3SP/gSwIkjwBHgCNQ2BNQW5PokaDX9EAoxdWf9+vUhKi4elha7e/24ez8EoBV7YHNv6NupAxPkC9ZvhK2L57Fc4As/+UgaVkbWY1aXgep4okvoW04fkdZs3wU/7doPB75fIuQT79wBdh49Jl5mR0crK/Byc2XlTXsOqlzTpZOHGYKhYAG6MFE+bSszYdui5BzKa2dprtyeIHX6Wy/NL3lruefRiRfKvcYvcAQ4AhyB2oIAV61r4Elk5+YyrqEXrqhwP35JSGdqrxCirFFq0KBPp8KOo8fhnzsxcANX5Gt37oPNh46y+xLRZa08Ih/z23fvscu0d16SRqNKnyg6PgEoA1ttpXr1BDuB8sZXhKlRRSosRH/4cqi8dg3qGZZzR+XVeQU8gEnlKPEWHAGOgLYRUHtFru2B6lL/qZlZ6M9tAa5osCYnF3tbdpqXrxRI2VhesWWbvBlsmjeTnct9xFUaFJ80cRWMr9Kwv5LUu1M7VrUl5EjJS1o7L3qqzMJmYmTOcn4r0Dq9IrKxagTpaMleD+qDtXn5xmbltcsqNmKjPrJyUuH3M1+X3Z0816bUokgq8QJHgCPAEaitCPAVuQaezL7jpxnXzv5+IA+bSgZvRDEPEtmRvig8q5z6oJqcfMjJB317caQ1X8/SK+6XAv1xD10wqjt/46acBTOAM0F/dQogc/i00rVNpZEWTnJkbl4+Ll3A1aoJeDm1r3Ak7Zq+Bp62vtCtxTuSBTkJ5JJUXruMvEy2N07tLUwV8EJjDFlr7ghGBkbs2L7pQOgXMLYkO37OEeAIcAR0BgG+ItfAo9pzNBTGDg1iq/Ija1fA6as3oK2vD9v3pkhvq7fsYL1ScJhDwcuBVt5JKeng6eoEjV2c2LVtaAxHq3WiNV9OgsLCp+hyFou+1Dngj1bwlsUR4ihq3Bk0dpPTyIF92enfqMqXx2KXt9FGOQFdxrycBE1BM/TPpk9lZG5iDT1afaDS7FpsaS1DRe1OoMFa72Jh7e/ZG+gjJ9p758QR4AhwBHQVAdXloK7OopaN+wnu6474ci6kZ2UJxmjtApngpRXyrDUbpGhtFBeeQsv6NW0MPdoFMCFOK/GVW3cBGbSJ9DAtnbmRUcjXlwJaSUL81NXr8Mn8JWIzdqRIbqLKfcPOAyrXtH0SlXQZHqA7l0gFhXmSGxjVyVXvYhty+5LTjdhQuBV/Vl7FyhW1i0uLhMOXVzHVeskbaQx3k5SueUUYhEYkeunixBHgCHAEajsCmJorUPWvlewPmTh4cj2rrVbrrb2aQvCMyeJQITUjEwZMnCada7tAgtXP2wvuJyRAVHxpP2R1sqPRHIiPB+6J21hawoPkRxCJAWHoheFZae7YMdCrfRvp9r2hJ2Hxc0aRk5hVUlCYKMDQwBSS0S+bkmuUpNfbfyFZp/8UOhmTuxiBwsIRUh8nQh4KXpHUbSe2pyO5o1FgGaLcJxmQjh/cgOfEEeAIcAR0FgGdV60nYjjT0AuCNTg9hbhkIUJXbXkiZJl+/NLlcodDqu+bMXfZp9xGeIH4PLyVWVGTKl07cSkMWHS14rtOX7lepfufp3FqLu1xl97nLo9nXlEeJGYIFvrltaF6ddrlFOZCDvqQS8SFuAQFL3AEOAK6iYDOr8h1E/YaHHUjdO9qjO9rFiixdGQjxUXhg5HYjBlIsQ+vlQuWuu3KZaBvF2hXIBM1HHdQU3NP6SGgb9Pk8+EIcARUEdD5FbnqdPiZhIAZCu4BJgDuuveI4yFamgYoyvcDV7edklkdKbU1QtcIFOYHc3D/oI7MmU+TI1CHEdCRNVrFT0jT4WMr7r0WXiXZPcRUJ4V4LURTN4fkiT+CweieqBf/w3XzEfBRcwRqCgHdW67VFDK63E8ArmIdiiOmoVU8XEU3tvuoalUaZOvy7PjYy0OAhDZtpbTC518PNTIuxWV6/pw4AhwBvUWAC3INP1pnhQImjX5H6oWSo6z8TfAjlyqru+ArU0cfxzCjl3TvD3nfzh2hVwelVf1+TBrz9yXVkLfVDZte8LuNKvUMfHl7UbAxAF/8L84FuV48Wj4JjkB5CHBBXh4y1VRvb2sDnVv7SdwymnhqXpDbyPSpYRULcXXc3yj6XHNPT6A0qmGYvCUL86GXR+rwa+zsBO74obzqERgMJ+Xx41LsurUNUMEtOSVV44Kc3PHe7N0Tfj8SCkfOni81Jp2puIbPXBTkCtlvQWcmwAfKEeAIVAUBLsirgtZztI1LSob3Z80HCgKjcTJAtapIFbiaz/5oNPTGXOj1SA1bTDTOYdPmiKcw5rUB8F5QP5U24TH3YPz8pUCJW+RUGb+PhgyCEf1fYZnh5PdF3IuDactWqyR3mf39ejBuYAAfDXsdhvTqKm+usXJr9Pen4DzhmIymOgW5P/J9F1PYHj17AUPmlg5mU9UJVcovX/YbM1Q+26r2w9tzBDgCuoEAf12voedEEdxoJVtS+NVQ96W6WTN9EvTpJMQ5pzCvFCWOhLhVcehXuoHU2+8P6s+EeFJqGhw6dRYos1szT3dYN0c16I46/JpgDHmiO3EP4HTYDXak6GmUo33dV/9m18Sv/MIihhdFw9N1aundlGkXurd7oVqmUt38qmVQnAlHgCOgNQT4ilxr0GuvYx93N6BwrxQOdtyC5XAjOloaDMV/F+lfbwxixT/PXYTZwRtYefUWUzi4ZhlL7NLIwZGFm1WX3+IfN0FadrZK/PemLs6waf4ssLe2AuJz+959sXt+5AhwBDgCHAE1EOCCXA2Q9K3J+LeHsCmFnDqjIsSpUr7/rcBUrEQhJ5UZ1NJyciAeo+m5YIrWYf16wRIM66ouv7L2wilsLa26DQ0MwAl51gZBTlqJX76eBZ7Ojmz+9xOTYQqq/uMePWLn6n7t/XYRZrdrAKbGguFZl1Z+ELJKGRv/syUrITouDn5d+BWYmZjA9JXrICwySmI/pFd33NroD3cxW97YBctAHX63MXQvJ44AR6BuIcAFed163my2Hk6CgNofegpGB/WHTq1aQPrjbDh15RrsDT0hIWJg0ICVY1EVLqeklDQmyN0c7Vm1uvzkPKhMRnRv9+vDhHhRURGcvqJMXlKybU2ek9EbjecOvmQ4oteBBwr0X7/5CoImTIH0XPQCUJNS0jPAyNCQbU0YGRqgfUQhUK56kfJwq4W2EDZjzvgvRr0Nyyd/AkMnTQd6WfJ2c4XPh7/BmgZv38OO6vATefMjR4AjUHcQ4IK87jxraaaWaH1OtGDix0ylLV6gfOmDe3aF0bPns6qc3DyWda0HGsRtCTksNoPmjT1YWYGJXIjU5cca49esD0dDh5a+YN3Qggm5XBRoSzdtgwIUnrWF3v9qEUSgmp+s8Ld983/sxeWjN4cwDYS6Y3xvzgLWdHj/PjAOtynO3LgF078LLnU7vTx1RM+GroGt4Vu0XRg7dzGs+vfnDJt1O/dLq3R1+ZXqgFdwBDgCeo2A3ghyTUd3q63Z357l12mEamwiOytL2H3sBPyyNwQGogAfhZbVZHg29JUesAPzoZOalwTuu/1eBvJ/D4+KhgnDh7HUrHS/hRlGj0NSlx9rjF/2CmtoaGbGBBXVpWc9ZtncxOvaPpLxHwlxIkpq8+OegzD7w1HQsWULjQ1t1ur18PvSrxn+e75biNiawZXwSNh04JDG+uSMK0Zgot1QaGbsAT+lhMD5nFsVN+ZXOQJaREBvBLk+CVpN/x4KceVbv359iIqLx5Xwb6y7H3fvhwA0gAts7g19O3VggnzB+o2wdfE8lv984ScfScPKQMFrifvIGaiOJ1KXn8jg08XfsqI3Gre91fdltI5vDxvnfgkDxk+BVDSG0zbRnrScbkXGsFOrYpsB+bXqKpM2Yty8JYj3XCbEsxCHKUtXVRd7zqeKCLQw9oQRij7sLsv6ZvDuva+ryIE35wjUHALc/azmsK41PZELGVHoBdVIaccvCelg7RVW7DqlTg36dCrsOHoc/rkTAzdwRb525z7YfOgou574KIUd1eXHGsu+aNU774eN8DAtndUO7NlNdlV7xfwS/vFFTzG8LVI9Df9vcbC1hQZoN0BkggZy4pYFq+BfNYpAXH4ypBVmsj6v5yq9Omp0ELwzjoCaCOjNilzN+fJmiAAZXNHq0hWtxOXkYm/LTvPylYFesrG8Yss2eTPYNG8mO7+JUdmIqsKP3VDii/zX7dD9rE0Ln1qhSi6Ji2uxcaCogRCHP/ODUdASA8gQnb1+sxROYrun8JQVDdCCvTxSoCp9+dQJbLuB/OybuDrDWvTVf2PKzFK2A+rwK68fXq8eAulFj+G1mBngaKCAqLx49W7irTgCWkJAw2sMLc2Kd1shAvuOn2bXO/v7MWMusTEZuxHFyFTLZFkupz6dOzAfcvJB337oCLukLr/2uN9OxmNyIgHWGgOmEEXcFfal5de1UW7RxBOsTYX9f+r/bbQRILoVE8uO4pe/T1Nwd3Jgn1ZeTcTqUsekR6mszreRe6lrYsWamVOZ7cFJ9BwYMXMeC87jgLYEc8d9KDaRjurwkxrzwjMjkFWUw4X4M6PHb6xJBPiKvCbRriV97TkaCmOHBrFV+ZG1K+D01RvQ1teH7XtTpLXVW4SkLhQc5lDwcqCVd1JKOni6OkFjFyc2i21oDEerdSJ1+S37fDzbT7+NIVCTUzPAp5ErONvZslUo+ZJvDfmD8dP2F9kPbF0yD8jPvlkjDwho5gWEy6rN259paGG3wtn9CsuGzBectiny8wsheNsOeIAx5KeNHs5c3FIzMmHm6nWsjwnoN/77svnQrY0/vNajK+w59rfUd2X8pIa8wBHgCNQJBFSXW3ViynVgkih0KqInhQUw4su5aC2exVaBPdsFMiFOwnTWmg0sWhvdT3HhKbQsxR/v0S6ACXFaia/cugvWbN8ldaEuv7sJSUDqZeLXva0/c+miOO8UYGYsxm6nPXltUtFTwf0tLCKKBXGhBCokxGnO01eth/gUwSZAHCMJd3UoCf3JF238FbKyc8AWhTm5mfVqH8gC4HRu3RKCunVhfuvj5y9nfuXEk+6ZseoHxn7KiDdVuqmIn0pDOlFviKVu4xUcAY6A7iBQD5oFqv5XL/5jJp8CuXbVZqvw2jy+1l5NIXjGZAlOWnUNmDhNOtdIYaw5gFnxO9pGzCz2qHz/bDv0Bffz9oL7CQlAUdZKkjrZzOT3VMbP1MAQPN2cwcHGFnLyciEyOrbM7Gdzx45BYddGYr039CQsxihyNUU0bwpjW4gBW65H3VEJK1tTY3jmfpzx2b+DvwGiNHz2G0pnlxMu8m+OAEdAHxDgqnUNP8VEXG2GXhCswamruORkDfeI7O+hlXWzYkHexwRgbw7AY9X3NXEQtAo+fumyeFrqSH7UN2Pusk+pi2VUVMaPksbcxL1m+lREJy6FQYP6yp/n6SvXK2pe7ddo3pfDI6qdr8YZNkQbhJfxmYt0X7C4F0/5kSPAEdA/BJR/KfVvbrViRonp6TDje2Hfs8YGdB7zhfvgoyXDMme0lP4AV2e0MitbltfYsKrS0RG4AUcybyhv8ceivxCRTlnJSyoIkB0h5R9vUGxQWIgPnH4LnDgCHAG9RoALcn18vIkotP96AtDTWBDmlJ/crnzXJ32EoM7PCW0b4AjGC0gpf1ulzmPEAeAI6AkCXJDryYMsNY0raFFOf8S7oDCnPdMSbl+l2vMK/UCADPDiUJ1+ElfidOTEEeAI6D0CXJDr8yOOxT/ksdlghJr1AB8jsLOoj6FZ9XnCdXNueQVP4W5qEYQn4vPOwpc3VMZw4ghwBOoOAlyQa/hZO2MazEmj35F6oeQjK38T/LSlSg0VDFBozxxkDp/3NQNLUy7BNQRzrWF7M64AJv+WCYfC+L54rXkofCAcgRpAgAtyDYNsb2sDnTFFpUgZGDWsJgQ52Tvt+9wa+vmjap1TnUDA19UADk62ho/+kwk/HkdPBU4cAY5AnUCAC/IaeswUT/z9WfNZkJWa6HJyPzMVIR6ZWAC3HxSqGK57e7hhjHNr3D9XjujJkzy4dOu2VOHu6ABu+JG3eYyBTa5HKn2rKZc2BXYpj7IwS9o1bE9kiAFhWqN/tpGRodScrpOvtjy+CrGrj1lKPJydwMnOBihByx1ML6qL1BDzv7s62LPkMA9T0557CiX5GaIdY4emhmCFsQPoOawZ1RCO38qDCFK1c+IIcAT0HgEuyGvoEVOEtKy8mlF5kkj9DNXpIi0/9Bimbs3CoCZiDcCa6ZNAYeUFyVhJSToSUFB6Ojti2FZzGLB8CmvYt3NHmPXhSLiF9yWlpMHFf8JZyFAzExN4aB0PI2d9zdr9OPslvE/Zn9iLGH5187EjEPz7JVZ9aNUSuGNgDpmZ2XAjOgZeaOYNRqaGkGAeC2PmLhJvlY6fvNUT3urTE/ZepYAw/0j1ulQY3r8DjHtjEPwdeQ2mfxf83EMvi58D+o//MU0B/h6GYIheChNeMYOJm7UbKe+5J8oZcAQ4AmohwAW5WjDpViNPu/rgbC24myVlFMG0bapC3AfzgFPUMgo9Om7BchSo0dIEKb66SP9C4UP057mLMDt4Ayuv3mIKB9csY4lTGjk4snCuH5QhgCnC296V37AY41sP/Jfd27tjexYKNic3D4ZNngEZT56Av5cXrJkxCZo39gB3XLXeQ80Fp6ojkJT5FKb8lgVHUJgTdfJSajyqzo3fwRHgCOgSAlyQ69LTUnOsNmidLtK9R4WYBlM8E47j3x7CCpQURC7EqVKuNVBgqlOikJNn2JG+0nJyWGx0F0yBOqxfL1hSTtjUkYNeZfdQwpVUvIforT692PGv8xeZEKeTSaPeZHX09e6AvrDwP79I59oqNHVxhtlj3wc3fLEwwRcbeuGJTUyCRRs2l8KrojHu/XYR20owxdziRF1a+UEIaiRE+mzJSoiOi4NfF34FpOWYvnIdhEVGiZdhSK/uMOa1/nAXs9GNxSQqlfFbtuE7vFdIZGNjXv5Wh9QBL3AEOAJ6gYDyL75eTIdPghCoYLuaAeRRnF97f+gpGB3UH9bNmAKLPxsHg7q/pAKggYGwqo9F1bucSM1O5OZoL69WKffv0pGd/7xPWI3TiYMN7scjnbgcxo5B3V4ELzdXJiipQsysxi5q6etF/9bw89cz2bjy8vKBMpWlYBhbyg/+atdOVRpVCiY+oVztucVbKoVFheyc6uiTh/X5GMt9c8gRsG5oAcsnfyKlT/VGXD4f/gZYmptD8PY9rN/K+OXjeEWq7DcgtuNHjgBHQPcR4Cty3X+GVZ6BJRpfES2Y+DHYW1tJ91M+8sE9u8Lo2fNZHanATU2MoEfHdrAl5LDUjtTgRApUn5dFXV8IYPfR/SevCkKb2pmbCjHAk3A/XoH5vidjVi/KuPafvYfg4yEDgdJ8apMM0Ml+9sejmMHYvuOn4JuNW6ThUPIbhaWldK5O4b05C1iz4f37sD3yMzdulblHvjf0BJDBIGVF+xZtF8bOXQyr/v05G8e6nfulVXpl/Jo60IuXnTpD4204AhwBPUJALwT52es3gTKgaZJqc/a3qs7byEB47HZWlrD72An4ZW8IDEQBPmpAH/B2d4Whr/SAHZhvnNS8HVr6wrv9Xgbyfw+PioYJw4cxdTP1aWFmWmbXYwYLavXDZ86pXKcUpkSZmD51/mdjWUrTOcH/wSA1gmKI1MvapBZNGuPLhinQC0jJLQO5ylsTY5y1ej38vvRrhv+e7xYitmZwJTwSNh04pInuOE+OAEdAjxDQC0E+adkqPXokmp9KYVERE55RcfGwdNNvrMMfd+/H6G9eENjcG/p26sAE+YL1G2Hr4nnMQG3hJx9JA8vIeszqMtBtrCQ5WlkxtTTVb9pzUOWy2G9/VKmTsd3V25Fw9NwFeL1nN9YuOzdXpX1Nn/hinnSiWHxpoexnNUkF+EzGzVuCeM9lQjwrOxumLOW/65p8BrwvjoCuIsD3yHX1yT3HuEWBGXrhigqX45eEdKv2CkHdTilJgz6dCjuOHmd7xTdwRb525z7YfOgou498u0vS6MEDWFV0fAJQ5jc5if2+F9QPCgoLYca3giuWbbF6Pw33jbVJxoaCpXdBYYFWhuFgawsNGgj/JU3QQE7cAtHKYHinHAGOgM4goBcrcp1Bu5YMlAytrNAi3RUtz+XkYm/LTvPylUZT2VhesWWbvBlsmjeTnZNFeknq3akdq9qCBlwlKTktnfVL9Yt++lWyZm/Xohlreg8tw7VJ4Zh3nYiCt6hDMz8YBS2LV/G0vVMSJ5HH0+IwPOLWglgvPypQlb586gS2L05+/WRct3bONHhjykz0OlB1O1CHn5w3L3MEOAL6jQBfkev38y1zdvuOn2b1nf39MHqa0k2JjN2IYtDdSSTD4hWieN6ncwfmQ04uWdsPqQrrVzq0Y/vnZMB2+LTSZU28d9eff7Mi3XscVepEpIr3bdyIlbccUBrUsYoa/roZEcUs6MmCnILhyMkSV8jkliYnf5+m4O7kwD6tvJrIL6mUkx6lsnPfRu4q9fKTNTOnMuxOXrkGI2bOA4oE6KCwhrnjPpQ3Y2V1+JW6iVdwBDgCeosAX5Hr4aOtbHt3z9FQGDs0iK2Oj6xdAaev3oC2vj5s3/sp3rx6yw6GCgWHORS8HGjlnZSSDp6uTpKL2DY0hqPVupxGDuzLTv9GFX1Ze8wH/z4FE94czHymt6Nh1wWMFMdeJtDYLeZBAkTFq7q5yXnXRJkC1GxAwz+yoKeIdv1e7AA379wF0lR0fcGf+dMvLsdvvqLxhd0KZ4FxyCqffMHJpS0/vxCCt+2ABympMG30cAxF6wipGZkwc/U6xmoC+o3/vmw+i6T3Wo+usOeY8BJEF8vjF3JUeG7UprLfALXhxBHgCOgHAnxFrh/PUWUW6dlKQy1Hq9KP+AnuAY/4ci6ko/U4BTzp2S6QCXFaSc9as4FFayOGhRi+lULL+qH6uEe7ACbEaTW9cusuWLN9l0qfFMmN1MFEG3YeULkmnpCKeOSX84D2wkmovdKxLbMSp/30D+csFJtp9UhW4ss3b2d7+G19m8GIV3tDr/ZtmMr7Kq7Y5UQvPepQEvqTL9r4K2RhjHpbnDe5mfVqHwhOuLXRuXVLCOrWBXEugvHzlzO/cuJJ98xY9QNjPwXd9ORUHr/mHoKfPrVNz1FvbHK+vMwR4AjoJgL1oFmg6v/4p6r7cTQtcu3SJ/ermnxU5H8cPGOy1CWtugZMnCada6JA6UsTV9uDGOFt8q+ZsPy/pS3MqW8SwH7eXnA/oewVManemzXywMQltnAnNk4S8s87blKp+zTxhOuYoEWM/CbnOXfsGCZAxbq9oRRr/VfxtEaO7ihovXDuiQ9TIOJerCRka6TzKnZiZgSY+UwB3X2xgPTDsWz46KfMKnLhzTkCHAFdRICr1jX81BKTH0LoBcEanLqKS9Z8LHEKybr+WA78e6A5m92ydxpCUKAx3IwvUMl+ppx6JEArOisvIAtZp+PHr6I2dK0qRC+MdwBa00+wdL9uFqFg/PC6xLCjbSLL6iVV1EjhCfYSUdyTgGWNdFvFTgzRPf9lP2PwtBf89ElTEPxXThW58OYcAY6AriLAV+S6+uQqGTet0I5/aQNtmwguVZU055f1CIE5u7Jg7p7HejQjPhWOAEegIgRKb6BW1Jpf0xkEsjFjas9FqfDT3zlsn1tnBs4H+swIPMosgo/+k8GF+DMjyG/kCOgmAly1rpvPTa1RZ+Y+hfd/zIAvf8+CF30McT+8PrqbqXUrb6RDCORh/Jq7Dwvh7/A8eKKdWDY6hBYfKkdA/xDgglz/nmmpGSWkF8GO87Tfy4kjwBHgCHAE9A0BnRfkzgoFTBr9jvRcKLnHyt+U/rTSBV5QQYACnvTq0Eaq24/Zvv6+pBqyVbrICxwBjgBHgCNQaxHQeUFub2uDvrjMnJqBnIEuTbVJkKvjvkXR05p7ekJDTC8ahu5YWcX5q8v61ajDj15umnq4Q15hPtyOioG0nNIWzN3aBqjgloyBSfRVkDexbw0uNr4Mzmsx/4X0J6ox4MvCuap15obmENhkALstMTUCIpIuVZUFb88R4AhwBJ4JAZ0X5OKsKaTl+7PmsyAmYp22j7M/Gg29MZd3PVkYVBrnsGlzpKGNeW0AUBIReZvwmHsYHGQp5BSoRk6rjB/lvR41oDcLsiJ1gIXrkXdgxsp1QElQRJr9/XowbmAAHw17HYb06ipW6+XRWeEN3s7t2dwi4k9pRJAbG5hJfTRAXLkg18ufEp8UR6BWIqA3VusUgYxWsiWFn7ZQXzN9EvTpJAiPqPvxcOrqdRY/28pC6Y9M6u33B/VnQjwpNQ0OnToLlCGsmac7rMOEGXJSh9+AFzsyIU5BZy7fioD7xUlIWmIc8OBZU+XsWHATwouiuXHiCHAEOAIcAd1FQG9W5LXpEfi4u7F82xTOdNyC5XAjOloaHsUvF+lfbwxixT/PXYTZwRtYefUWUzi4ZhlLTNLIwZFFUlOX36HT5+BqeARcjcAAL8XUvqUvrJj8CcYLtwNfTw+4GRMrXuJHjgBHgCPAEdADBLgg18BDHP/2EMY15NQZFSFOlfL9bwWmEiUKOanMFEb72fEYDY4E77B+vWAJhiVVlx/FCS9J5zC9Zi6uvCmmum+TxloT5IPaTmZDOx+xE+LTY0oOE7wd20AL9+6w98Iyds3C0ALaeA8CZ2sfMDWygKycVLj36Dpcig7BvX90ki+mFq5dUKUtZCo7d3sHeOO5m00LMDY0hbSsB7D7wlKxqcrRsaEbdGz2Jqt7imGJ911cwcqsX68gcLL2BjNjS8jJy8K451FwMWIPpOdlSDyoXz+3HmBhqsDrMXDt7hHpGi9wBDgCHIGaRIALcg2g7eHkyLjuDz0Fo4P6Q6dWLSD9cTacwhSVe0NPSD0aGAghNWMx/7ScklLSmCB3cxTyYqvLT85DLBtgZjFjQyG621U0pNMWWZragUEDI7Cz9CxTkLvYNMPY8C5seNYmChjY7gvWXhwvCUxft5fAw64V7Dn/jSTMLU0pprxwX++A8VC/voAp3WdtISRxEXmIR3tzJ+gb+KnUNvTGRnbJBsf4Kr5w0DhFopeIRvb+4G7bEg6cXwKPcpLBz/VFaO89WGwCDlae0Kt16XSjUgNe4AhwBDgCGkSAC3INgGuJ1udECyZ+DPbWVlIPlO97cM+uMHr2fFaXk5sHpiZG0AMN4raEHJbaNW/swcoKTGhCpC4/1rjE1/QxI9kePO2bazNN6KPM++Bo3QSFqyB0aUVsZGCKNgFpTDjaWLhKI2/vPVQSpmmPEyDywTnw8+jJVubmJtbQ2uNluIAr85JEQjwhNRJikq+yOTdz7lSyCViaOUJHn6GSEP8z7AeITbnF2nXweVPqNzzuFMQmhzFrdz+P7qx9x+ZvwaEr30NA434S32RcjadkxUEzXKFz4ghwBDgC2kBALUF+FtWzlAFNk6RP2dWMDARY7awsYfexE/AL5rgeiAJ81IA+4O3uCkNf6QE7MJ93WGQUdMA97Hf7vQzk/x4eFQ0Thg9janDC2sLMlEGuLr+Sz+elQH/o27k9y4U98ZtvS16u0fOHGbFMkNuaK1fPtPIlQXjg8iqglTWRQT0DcLVtzspFRYW4+l6KiV6eQmzSZXi9s2Dt7+XcoUxBHpN0BY798wu7l77+QWFckl70fUeq+uPy9xCXjolbkEwbmICTogkrkzr98h3hRYFeQBo7vsDU7LTytkJtgZGBidSOxk5UUFQAfu7dWJl/cQQ4AhyBmkRALUE+aZnwx6omB6bLfRVibun6qNKOiouHpZt+Y1P5cfd+CPDxgsDm3tC3UwcmyBes3whbF89jucAXfvKRNOWMrMesLgPV8UTq8pMYYMEfU5OKPJds2qrV1TiNKyXrHhuepZkDWBlbSytf24buYGVkKa2QrU1tWTv6Skq/y4Q4lWl/+kl+Dtv7JnV3WRSdeKGs6nLr8goEfKmBpbnwIkFl4v/WS4LWhM7lZGaskE4T0iKkcnIa5irnglzCgxc4AhyBmkNAb9zPag6yynsiFzKi0AuqkdKOXxLSmdorBHU7+XUHfToVdhw9Dv/ciYEbuCJfu3MfbD50lN2f+AhThyKpy481xi+yTl/5xUSmXiZ+8n15sU1NH1Mz41iXpP52t28ldc/OHfylc7k/fUFRjlRPhYLCJyrnJU/yCiq+LvDIk27r6vcexp4X/gs0qGco1VdUENsLvPKlpvmVjE1qyAscAY4AR6CaEVBrRV7Nfeo9u9TMLLBCi3RXtDyXk4u9sNrMy1cKgGwsr9iyTd4MNs2byc5vRt9lx6rw83ZzhbUzp+KKtwH8fOAw/HLgvyq8tXWSkvNI6rq5qxCAJizmCLT2fAV8XQWVdGZOCqTnCi8v1Jgsx0Uya2AKtD9OlFcgvCiJ15THImWxnNJf1zaAi6IZtGzUE/fL7XC/vSdcuXsUreKTpTvIQv73M19L5/KCnblgyEh1DlaNpEv2Vo2lMi9wBDgCHIGaRICvyDWA9r7jpxnXzv5+uOJTphsjYzeimAeJ7EhfFJ5VTn06d2A+5OSDvv3QEXZJXX6ejo7wAwaSISG+9fBfsH7nXjlrrZafQhGkZwvzbmhqg6lVCyGieA+bLNKJkjNjmDW62I720Ls0ewOcLN3hRb8R0vjvp/wjlataKCjMhauxR5ianu4NRMM1W9yfz8jLZK5mVEfjeaFxHyChbWSAlvZ4bN90IPQLGAsZT1LZ2KmdFRrOBeKLSGPUMJDrHCeOAEeAI6ANBPiKXAOo7zkaCmOHBrFV+ZG1K+D01RvQ1teH7Xs/ffoUVm/ZwXql4DCHgpcDrbyTUtLB09UJGrs4sWvb0BiOVutE6vJbMW0iGKKhHfXxUmAr9mEMir82hxyBfcdPyqtqtJyMBm8k/IgScE85I18QnuKe9yO8TnT65lbo12YiK/ugjzh9RKIXgMuR+8TTZzqSH/r/wrdC95bvsfu7+o1i/uYn0FCuNwprIn/P3uzDToq/6AWD7g2PP81c4ag6wLOvvAkvcwQ4AhyBGkdAdTlY493rZ4dPCgtgxJdzIT0ri1mg92wXyIQ4hUOdtWYDi9ZGMy/EsLIUWtavaWPo0S6ACXFaia/cugvWbN8lgaMuP2ND4b2M9pldHexLfZqi2l2b9ChTMHijMTxIDWdDiS8+0klK8T56QmYsHEZrcLIelxMJ0v3oy02rZ5GKMJiLSPQCUxap1Be3iX54HRLTBIt10d88Li2S9Uuq9ZJUgAL8blIYq74QdQDiHt2SmtDLxdkI5fPCNynpGi9wBDgCHAFNI1APmgWq/tWR/WHUdOfVwb+1V1MInjFZYkX+0gMmTpPOtV2wQ19wP7Qgv5+QUKbluDrZzORzqIyfvG1F5bljx0Cv9m2kJntDT8JijCJX28jSqCG6fikgIzsZsgtVjd80OVZyR6M9dKLcJxmYaAWjuil3SVg9RYEzN7aC5McPQP5CwS7yL44AR4AjUEMI6LxqPRHDmYZeEKzBCbO4ZKXRUg1hWGE3ZJl+/NLlctsU4ertZsxd9im3kexCZfxkTSssnrgUBg3qKx//6SvXK2yvrYu0+pavwGtqHDm4l56DPuQSlRDiVJ+Vn8U+Uhte4AhwBDgCWkBA51fkWsCMd8kR4AhwBDgCHIFagwDfI681j4IPhCPAEeAIcAQ4AlVHQC8EuabDx1YdVn4HR4AjwBHgCHAEagYBvRDkNQMV74UjwBHgCHAEOAK1DwGltVPtG5tejMhZoYBJo5WJOig5ysrfBD9yvZighibRt3NH6NVBaVW///gp+PuSashbDXXN2XIEOAIcAZ1CgAtyDT8ue1sb6NzaT+olo4lnrRLk6ri/UfS55p6e0BDTs4ZhTvOsPGW8cmlixYWK+Mmj3JW8j87Jgl+kbm0DVHBLTknVW0HexL41S5dKc78W8190dUsXYeBHjgBHgCNQKQJckFcKUfU0iEtKhvdnzWdBYKqH4/Nzmf3RaOiNudDliUponMOmzZGYj3ltALwX1E+lTXjMPRg/fynkFChjxtMNlfE79sNKFj5WYl6icD3yDnyMfIlmf78ejBsYwEfDXochvYTY7CWa682ps8IbvJ3bs/lExJ/iglxvniyfCEegZhDggrxmcGYR3CpaydbQMKRu1kyfBP6YVpWinkXdj4cEzLTm6eyIYWXNpTak3n5/UH92npSaBhf/CYdubfyhmac7rMOY7iNnfS21VYdfRGwc8jeT7hELzna27EXhym1MBVpM+YVFkI/R1CgaHieOAEeAI8ARKB8BLsjLx0Zvr/i4uzEhTuFgxy1YDjeio6W5Uvx3kf71xiBW/PPcRZgdvIGVV28xhYNrlrHELo0cHFm4WXX5fTB3kchaOlKkur0rv2EvFFtrSaY2aXC8wBHgCHAEdAABLsh14CFV9xDHvz2EsQw5dUZFiFOlXGugwFSsRCEnz7AjfaXl5EA8RtNzwRStw/r1giUY1lVdfhITWWHkoFfZGSWOSUXe2qJBbYUwv+cjdkJ8ekypYXg7tmEZzvZeWMauUXjWNt6DwNnaByjpC8Vnv/foOlyKDmGJVUQGLVy7oNpcSPpy7vYO8MZzN5sW8P/tnXlQVVUcx38ioag8QEQQhERFIFwgQ1yKktxHnbGxmqlMHWdqbNGZmmqm7Q+dbDLLmRZ1KmfMYlLHFU0zLSGVSk1xHycJJJHlyfJ4CPgE7PzO5R7u0/cQnBTn3u9x3ru/e7Z7fp/z5Hd/95x7Tpf7/Kmqplhu1qLnNR7DAvrSyLinZdR1sWxy5l/LjcmQQQAEQEARgCFXKKwjRIeHSWW3Zx2kOdOn0KghD5DjSi0dzD1J27L2KxC+vp2lXFhUrOJYKKuokoa8b1iojG9rfW6VNJ9MGaMZuW8zf/KUfNfibP69xPi92LLU1s+jIY/oGUc9e0TI9gR1DaZpKW/K/HoDeevThL6PUHSvIbT18EfKmNvEFql6uQlJL5OPj8aUy+mbteh16MfQ7uE0KXmBypt1eo2ehCMIgAAI3EQAhvwmJOaPsInZ5xyWLHyRQoMClcK8X/qM9DSa8/4HMq6u3kX+Xf1orJgQl7Fzt8oXHxMt5WDxWJxDW+uTmQ1faQ8myfr5OgeOazuLGZLvqlgu1lUPC+ovjKtmrNkj9vP1p9r6Kiqvswtj3LJz3IjYmcqIV10pofPFhygxOl165t27BtHQ6HF0RHjmNwY24iWV56nAflzOCYjrM+rGLGKjljAaOWimMuK/nPiaCitadlq7qQAiQAAELE/AFIb8z1Nn6U6v7jZm7kum+bH4iT3LOfQKtNGWffvpu207aZow4LOnTqTYqEiaOX4sbRT7oZ84n0epgxPoucnjiN9/P5eXT688+5TcmpXL9+jmzwdh8NpWn8xs+Jo3Q3usvvuPQ4bYjhEvi73Q2ZDWDw/kAAAFmklEQVSHdNcMOXvP7KHbxWP2HWJLVfasOfh28qXIkHgp8/alWw8vo+viX2HZMXpitDbbf2CfVI+GvKAsl/aJPc/1cKbooC6q48MJzyj552NfUpFD22pVRUIAARAAgRsImMKQv/bJ5zeohdPWCDQ2NQmPz4fyii7RsrU/yKzfbNlOSWIWe3J8LE0alSoN+ZKv1tC6pYvlXuofvvqCqrK65oqMqxaP4zm0tT5VgRDCAgNpYPP+6Gu3/mhM6hC5ouZfeV1bt94U2CVIedwhAVEU6GdTHnKQf4hqX5njgjTiHOFwVdPVa3Vy7JvHzD2F/NIjnqK9xrkaNL5eMyABBEAABAQBLNFqwZ9BbX291DrriPtKadlHte1gQ4O1x+28Zer0BW/Qxr3ZdOafAjotPPJVmzLp+117ZflS8coah7bWJzM3f82ZMVVK+ZdKqNTR8QugVDqLZHv48XdU6BDVVHnee5g6N75z39DkPjmvofGqyudJcDW0ns5lGsQrd3pIS5xLPp3wX1TngSMIgIBnAqbwyD2rhlhvBCqdNeJ97h4UKWaeG0NEqOZtuq61LPRSK+TlGeuN2Wjt4nflOc8059Ce+mQB8TVhVIoUM3bu0aM69FhRV66uHx+pLUBzomAPDe03nhIiH5VpzroKctRrNy8cER4Uq8p06+xPPD7OwdWg3SipRCU0Kcmb8OvJ1RQRHEeD708X4+W9xHh7OuVe0G6cvJVBPAiAgLUJ4Hbfgv2fmZ0jtR49LFF4fJ0UAZ7sxqGguFTF8fKsxjBxdKp8h5zfQd+wSzPC7amP6xqfmiLH2Xmxl905La+2Ga9zt+Xr1ESOWk3vAP+eYgGfRvq7eQybZ6RzsDsL5Gx0PR+PoY+Je5LCbVH0cOIs1eSLFWeU3F6hobGejhfukY/puWxyzGQKaR6fb29dyA8CIGANAvDIrdHPblpu3ZtF82dOl175nlXLKef4aXooYZAc9+aV3r7I2Cjz8+Iwu1Z+Sux5l1U4qF9kOMVEhMu09WIyHHvrHNpan8wsvp6fNkmKv4lH+cb11fX0jjraxYS3QDFrnENJVR5VX3NSnatGzkbnuHKRziHn7DqaPHyhlAeJd8T5owe+ATh2PlM/va2jSzxe//3cOnps8FxZPi1xttf3zW/rAigEAiBgKgLu7papVIMy3ghcbWygWW8vIkdNjfSM01OSpRFnD/m9Favlam1ctrFJ+KnikzgghsamJEkjzp74Z+s204oNm1X1ba2PC/BKbv0j+8iyqzftUHXcC0K5U5vwxm0prjwnm3Sp+cgnFc3j6CXOQtotZrKzkTcG9tS3H/6Yql1OFd0kFnPRA98keQpu8c158i+fotIqbca6t/fNPdWFOBAAAesR6ERxye5/XQx/eKyH4//XeOjAAbTynddVxZXVTpq68C113tECG9bE2IF0saSE8i65L/zCbWttNzNPbb9VfZ7KeIpbNH8ePT5iuEralnWAlopV5O61YPMLoG5dgqm61k61je6T3+61tqI9IAAC5iSAR+t3uF9LxXKmWUe02eB8qSK7/Q5fsX3V88z07KPHvBbiR99nCy7Ij9dMhoRb1WfI2qq4/+gJ6uzT8vPMyT3Vav6OSmTv2+iBd1Q7cF0QAAHrEoBHbt2+h+YgAAIgAAImIIAxchN0IlQAARAAARCwLgEYcuv2PTQHARAAARAwAQEYchN0IlQAARAAARCwLgEYcuv2PTQHARAAARAwAQEYchN0IlQAARAAARCwLgEYcuv2PTQHARAAARAwAQEYchN0IlQAARAAARCwLgEYcuv2PTQHARAAARAwAQEYchN0IlQAARAAARCwLgEYcuv2PTQHARAAARAwAQEYchN0IlQAARAAARCwLgEYcuv2PTQHARAAARAwAQEYchN0IlQAARAAARCwLoH/ANCY5FGUQv82AAAAAElFTkSuQmCC;" vertex="1" parent="1">
          <mxGeometry x="870" y="720" width="498" height="353" as="geometry" />
        </mxCell>
        <mxCell id="qaPD98lL8b2j3EAxigMS-15" value="" style="shape=image;verticalLabelPosition=bottom;labelBackgroundColor=default;verticalAlign=top;aspect=fixed;imageAspect=0;image=data:image/png,iVBORw0KGgoAAAANSUhEUgAAAX8AAAFbCAYAAAA9eY5HAAABXWlDQ1BJQ0MgUHJvZmlsZQAAKJF1kM8rgwEYxz9jy6+3OCAHhyk5IV6Km7Yl0dIaCrf3fTdDs73eTXJz4LwVFzfNxc3JlCj+AmrlIMnJPyC7sF7Pa5gfeerp++nb8zx9e6BK0Uwz7gZWEmkrPOb3zs7Ne2seUailjgaaNCNl+kKhoIzwqT+reIPL0UKPc+u8Jd9xWshkRo6PLieWdc/f+R9VH4mmDNFXadUwrTS4+oRD62nT4U3hZktCCe86HCvzocN6mc/eZ6bDAeFr4SZjUYsIPwh369/82Ddeia8ZHxmc9Eo0MTMl2irdTpBRJvESQmWIVXroR1L9szP4vhMgickGFkvEWCQt+z5xTOJEhcdJYNBLt7Aq11RU59e/f1jxkjkYfobqbMXT9+BkG9puK17nPjRuQf7K1Czt67Ouoju1MKCWWfGD5962n7qgZgdKWdt+ydl26UDu38FF4g0Ec2QqinUsOQAAADhlWElmTU0AKgAAAAgAAYdpAAQAAAABAAAAGgAAAAAAAqACAAQAAAABAAABf6ADAAQAAAABAAABWwAAAACp1zsPAABAAElEQVR4Ae2dCXwV1fn3n+wr2UMSQiBAwg5hkUVQFlEQrHst9lVrtdpWra1rrRWVuqKIVVFRurnyx62CIlZpFatYNmWRPQkJgSQkIXtIQpKbvM9z7p1hst+bzL25N/wePvfOmTNnnnPmO+E5Z55z7jxeNGx8EzU1EgQEQAAEnEVgpncjXelloVzyos8avWlnk7ezqoJeOwl4wfjbSQrFQAAEQKAXEUD324tuJi4FBEAABOwlAONvLymUAwEQAIFeRMC3F12LuhRvLy9qbGpq87LkmEh7x9s8qQuZEUFBNDAxkQ5lH6GahvouaHD8lITISBoyIInqLPV0KDObympqHFfiwBlzJk+khXPPo/c2bKQNW7Y5cOaZW9SL/yybrH+CHgHhjz4N7KE/LesafWiXJ13A6aYj1QYBtzH+kWww+8XF0YnSEioor2ijqc2zgnz9qG9UFB0tKtSN+RO/+RXNnJhGu9Mz6ZYnljU/gfc+em4JRYb1odKKSrVtbGykeb++k6rrrQY6pk8fWvP8EvLiTiKv6ARd9fuHWunoKCMqJIT++sgfKS4qUi+2NzOLbntyGdVbujapfsGUSXTrwsupb2QENXGnds6Nt+m6JXHNgnl0/Y/mUgjzM8qejMP0wAuv0onKSmO2aemxqSk0asggOnjkaI8Y/zSu/9ofzaN/b9lOn327xbTrcpaiG70tdK8vfxp8SIyoJ8jZ3Fv5UBPFcA/Qhz8ySetK4//AL35GZ48dRdf+YTHJ/9VVTz9CW/fup0dWvuY4voA4oqiZRBU7iU4ecvz8XniG2xj/kJBgGpKUyIa8sV3jLyP3P9xwrTLwocHB6naIQdx1KJMeeH4Ffbppszo2PHlAq1slo3Ex/CJ+vtb/fN7e3rRg1jn0/oYvVf6P581Rhl+V8fNTeY58vb1kMYWFhlDlyWram5VNE4alKgP5ygO/p188ssQRVTQ0qT89//vfKX3aidIptZQfnTNVGX7p0LLzjlNsZDj1j+tLo1MG04oH73W4A2up3133R6cOoWlsGBrYKLi78Q/nEf+vfSxUydsvPcTwy32/uMH6f2Aer9R5zrfB5X8Ks8+aQD4+Xuopdv70s9X/36rq2q61I7A/UeyP+LGfrwPGXzF0G+Pf2R2VUbkYs36xMWrk/p+t3/HovJjOGT+Wxg1L4WO/p2seeESNEPzZcKf2T6T0Y7m62llTJ6m0GEnN+EvHcdmsc3Xjf+H0KWp03ZaR1RW1k5g7dbIy1DW1dfSTux+gilOnKC0lhV5+4C4aPmgAJfWNpaOFRe2c3Tp7+OBkpe9EWTm98v5HtOim61oX4pxPv91Kuw6m0670DP345NEj6M93365YjeCOcH92jn4MCdcTWMCGX0bOj1p86KTrq/fIGvvx03NQoD/Jk7PI7Enj1fazTe7/lKca6gFfrYz/9DGjlQHcdSidhicPpFh2rfj6+FB5VSV9vesHdUkBPr40mh/5Y9jPHODvRzU1pyjvRBHtP5Kju2CkoD3lzkkbQ77ePuTvZ21Kcr8EdptE6eh27N9P5bWnaPGtNylj9tn/tjZ77Hvl/TX09hMPUXJCvKo7PSeXhiUn0YXnnE3pq9/X9ZzPPmqR/+3eSzMmjFXp/VlHaCQbWXkq6MMj9tiIcNp3OFvlqQIOfF3NTw0iX2z7Thl+Sd91/ULZKLn2RxfSk39/U9vtdLuXXVf3/vll+nb3HlW2PeP/xrpPW+naumc/1dbVUaC/P40YPMgh43/Z7Bl002UX0ap//YdWffq5rvvmKy6hS2dOp+Xv/LPZSDucub352IPMnx+rWY4VFNE9y16k3OJitW+vvivnzKJfXLaAVn/2perMx3OHLp14WWUV/fGFlbQrw9q5rWXXnR//PQYFBCj908eMovXLl6q0fN2x9AU6lHOU7K1XP9FJiRDWe6dt1P+Jpfn6CnkiuIlH1LPYvZLizU+w7Bn8F7tWVll8qY7Pi+HP4771lM5+9mc4zyi+fO7TfMybvfJ32I75cd6VXNd8HqlPZn1ZrO8r1reSj5caT+b0k+zPF3mW3VA/Y3fUHK9G5d75ltfga/pUgU6+xMF5Bdc5m88fytchndzWRi/ayPW+zZ2dXEcEf57ith7n63i4xXWIeplbGMjn/oqfNOT/sr+vLz/NBsoh5Q14j9098dFWm7D4lhsce5pNeZDIm/9WfMKUPoqdSxQ+wZqW7+zniOpOnN4f/AeemGFwR1cSJfyEKIw7HW9uSw13QhmP2Mr5EPXlp4jIc9jI8d+9hbv0SraNua9b07o2e8vpJ7g00fyvkauODAujqPBwmsL/qRJiY6m6tpbdGCdVvrTM18ubZvHjWCK7FhoaGii/qIi8fbz5JvXnx/DReuPtLVfL+qtP1VJ9vfWP0WKxqH3Jk09DYxOlsu7xw1PpcG6+bvjPHZ9Gi391I9117ULa8sN+vd7PNm9T6elpp9siGSMGD1T5a774Wm3lSyYrRS67YDZdvYD/KFg++M9/1dbRr75R8idO9PWO3Wp7ycxzKIWfPhoaLGp/UL94tbX3KzMvXzf89p6jlfNld1aAzW2168AhLduubRLfV3GPJcXFNiufnJCg8o0dsxSQiV8x/Ie5vSdramkAp1c9tZjCA63G2V598kQXHhpKv7ziRzSFn1xEl/h5I/qE0nO/v520yfoSng8q5Q5BOjcRS6NF7UuefOps+fbWq5TY+SWGPJp94I7IXPb1i0F8ld095Ybp0wBW85ZfPd3k00glrPA17hhC+Ph9vL/ExzoHJSYpiuv7BefFtah3NBv4+T5NrNMqYvhfZH0PsyEXw/9PixeJ0+bnfO7bvnUUaiunbebw+fJ52q+BFvL2MNe9nY32PC7viMRwu+5h4x/A27XccbzN1zGI07/nvOVs8NmmUxkrtPD2J6x7uGQYZCCXvY7zha1IFD/hyz2XvwUR+RuI5fkucdFqfw/qgL1fdUVs3PljqbKeYTll3dfyxQ1klJBhRKEjuNfhTiDibC5bSFR7lCg4xVaKDfrQPxHFX2k1/JX8/13csRFTiYY/Y+1oVEl7yxkrd226+XDCVre3txf/KXjRF1u36ZOh2n/mQTzCltF+Mbsjvv1hD9869qHzSGz2xPEUxR1HfEQEHS8rI3vLbWeXhUj/mGiaMGI4HS0oVE8QKtP29fNLLlKppa+tUtuHfvlzmnf2ZL2IuG80+fy/m+i3V1/Bfu9YfqLwVj7hZJ5IllFwHU/s7s3K0orS9zx5JHkXsd+8D88hiK8+k0eNXRFtpFJYXEIyeX33dQupnjvHv6/9lH515cXKcHZFb1fOuZ8nysR1JS4u6UScLTcuXkLpR48pA/3OU39ST2i/XHglLX3der8cqV/a/evHnqEfMg9TKN+zT15epp4Azho1nOSJ5oaHn1DqZKL71qsupc17D9D9PN/jbLmSDeR9PEIVQ76eDevDFj+ymZN2qxYDfysbf5E1LUb9F7LBk9G+5D/Y4EsNrPclLvcPNtRi1N9goycTrO9ypzGadczg+t8zzBcs4H0RbfJ4PhvbGazvP2zAH6j3o3LWJ08Hv+TO4HY+9hPW8XfD+XKuXAufQvPr/cn6nMY2Tay0A3KCR/OXc30HDKuAHmcVH3FHJO0RY7+fbcnqJrYR1EAXczsOGEb/0m4R6TRE5t9+r9p+ufJ5snBbLrjlLvUUd+/Prqb/++w/9PK7H6rjdn/lvGItGs5P/gN/R1TyFVHBPzs+3YsNN091077fcqdRaS3rL89hLLFziAIHWJ8EDvM8nqWGM7ntidfyyOB8orjLifJX219OKe2ZrzaNvzTlh/R03fDLvrheROJsj18ZOTnK8EtePY/WM4/m0iieZIxlV5AYf3vLyfmdSVJ8rBpB787IpJHJycrwn+SljItf+QdVVdfQo7fdRDHsshEp5fzC0jK1OmYqu7C+2bWb5s+Ypo7t5hUwLWXTzr3sTxynstds/KbZYVk+KZPAnclydi+Ja0yksqqKHr/jFrX/8Iq/qxGL5AcHBpIj+uScrog8EV04bbJy3f3uKX6kZXFmvZnH8pThl3pkCe1f13xCD918PU0dPVKyHBaZ4xDDL1LFo/js/OPqCSqJO3Ax/j0h57KhfYzdM8fY3h5iI7eAjXMQ1dOd7KY4xQZU5CHuGB4xGDXJm8kGvj/bhRVs2IrZABrlHHaTiLzNo2Ux/CLSmfyDDfQyNpBncZ07+bz/8nG2MHQl52nGP5iN62V8vIhV7GRjL6ovt3UGX3H5fmxw+4lCzt8tx/lPU16v0NL4S5El3PFohl/2j7dop+R1JKWsvpSZSEcXy/Uq5wo3eTvnpbCFiJHehduwha+liPNvZCYr2N7Ltfrz5//ZOGySjol1iQzsG6c6/F1ZGWp/xoQ0td3wv21q65Kvo6+eNvxSoeYaijrPWn35dh75J55uStUBq/EP405GjL+95U5rcHmqXePf3hLBYJsvrvKk9Hinpaqa/V4sIcHsH2Oxt5wq3MmXLHOssq1bnzWZfXAs73z+pe4WeemdD+nhX/1c5cvX19/voivnzKS50yYp4z993Bh1bP03m/UyWuLt9Z/pxn/1+s8p0OZLluOybv7qebabrZ3QxlaMv4VHamr1ELt70oam8AqkDPr31u10xXkz1RniPnNEXxvVdJolyx+fvP2XqtzSN1bro35n1nskv6BZuw5kZKt97bG92UE7doSbUY4dP6GMf8ulrMYyzk7f5t2gVur8mEfIMqK+hw29uGLu4ZHs02w8Z7Nh/invP2IdxKrmyKj7ds4XeadFpyB5yTajl28YMUt+jm0/SXZYCtgibuAnjQu4wxF3Shbvn8V1yaj9dfap19sM5ig2vCKP8EhfOouWMsJ2vGV+htRn09HymD374m6SeYvfcpvaEuuaPFKd5Bv8JHM3NdI07og+505KOrhY7hD+xh1DBbdB5t5ELpo1XW238lOd5I0aPFAN/opOFFMY//+UxRROF/HxtyX+cdbc+KvaOso9mu0Jwd5ybWtxSW6bxl/87uxqb1O82OcvYjG4WmRfc7348OStiL3lVOFOvvx4MriGXTIiETZf4GEecWrS0lWz9ov/KuM/YfhQ5YoYGN9XtW/jlu+0U/Ttfv4h1juff8Hunwb+zcAJtUpIO7iXJ73/9Opr2m6HWzHuYvBuuGQ+NTC/B55bocpH255IZOLSEX0dVtbGQVnV8wIvDRW3ySsffERrN36tlzKjXl9f633XldoS9S1+xNbYZDU8tj+TlsX1/fb0ia/fmdJevR3V+Qob7yA2vGL4RV7g/QE88r+WDd6l3nXKEMso3CjT+Zi4dcSX37x7tJYKVBa3ic10c8trsRl/GRVrsoZdJhdwR3Me6/wbG/yLbR3H52xMRcSuS2cgsqDOujzTunf6u0Xz1AFps9Z5nC7pWOo6dtuI4ZfJ6ne5nQf4equ5LVdwx3cz53sb7MSnzO1unzr6KR8T43+57TrW2txR4uIzys2X/4jko4kclzm0mTffrmU5Z9vE80m2v+NmFYhNVC4h3h76Y7NDp3cYhL3lTp/UI6k2jX9HLalhIyc+/1B2Y5w6KQ9vVgnkfRFthG5vOevZ/G3rbLSJPT2fEzLJp7l19vEKnYvOPZsu5pUnX27/XhW7gidsjSJ+bjHGMnF53qSJakSexWvgT1kajMX09Av/976eNibEhfT55q3GrHbTReyu0Ea7S/6xSrmfpPCkkTyBxCJzGY7oUyfZ+SXLWl9ZdK9yNb2+7jN6c92/mp3pSL3aRGoMP20ZZRh3Lm1JIk/UGiUx3joyqrB11o7qM+rqKM2volWHNXdby7Jm1isrV4zCpoF/rOVHN7BBvoQN2Do2ZP9go6yJGOPf8NOCyCpDvnZctllcJoW3MqFbZugA+oqbhOWY4YlgC+sXuZrfirmGfTg/YqO6n10psgpIRDZifNO4WAXrKla55n2dsjaJJ41tCYPq+banmz8yD5k0VsLFxrTxpCELrz/jzkEmlc9ibnId3xmuQ1byich8nsyXfbHte7WqMJGXSR/MPsouwHx283Z1cGBru2a8VU0OfsnliftHRvf1PNWuzQe0VGNvuZbnuXi/+V+1HZWXVFSoUv1t/8m1UwbwRLBIOU8yithbThXmr7p6+S/FbjNeadRSjvLyQVn2J5POn/z3G5K19LIiZO2fnyRZBnYZ/1Crpew4mKGy7ryWl2uxyO8CnCn/tK0SkpHJV+zuEYnjaxkxaKBKv81G2Rkik9l/efg+ZfhXf/YFrfxgbbeqyedHaxF51NYkkifDZRlsW6ItldWO/XT++Sp5wPbbAkf1aXo62xYWl6oiIwZqDpLmZzirXq0W8fXLE8GCBn/l6z+qGT4uMJndGaP5f9a7bOiM+dq5st0lk4QsMvFrlEvZwIvIJKkm4lB9i3XJ/MEd7HISWd2iQ5IlnSKX2oyx2rF9KX+8YQRuPGZPeo9N9xQ22C0lxJZhNMnS/U+1dWIty79n0/UmrzISWWXr2CT9yMrX6D1+ChfZvv+Q2pc5IJGHX/6L2n/2Lfand0UarHaLQrs2F6VXWbnDmuxrXYSi56sEj6V9bYMme8s1V+DSPYdH/od5YncwjzQH8tJFWRVUxsY+vm+0Wulzqq6ejvDSTxF7y2lXW85zCI3sa4rg0bqs/S8uq+Dlto10hCf8ZG2+GPu7b7iWHlrxN17x8Tg9c9dtJCMC8bV/9d0umjyKl2cZ5OOvNpEs95RlYyLrW0zmGoqakvyEVxn9hl/DIBO77z7zGG3fd5CmpY1STx0yadmVVTeP3PILGsrzDkZZ/eRitSuvVXj4lb/Rn+/7Hf9ozVe5tc4dP4bkY5S31m+gj776xpjVYXozL1Vt+vn/U08xHyx9jLKPH6fJI4e3e47Mc6xe+iit519XDxs4QK3RFxfg8rfeVec4qq/diloc2H3goLpmebqTtf/y+4z6eguteOd9yi8pJWfV26IZbe7Kr3lF3mhn1C/HZJWPLJGUlTjiqNnPdlUmZWWlTwaPhr/m4wb7T5+wkRQ3049tncVXctwgq3ju4adedeoVEoN4lcw3NiM7jA32taz3BXatvNVBewyqWiV5rEubuU3StnCvetrMuuXXyqtZ55ecHsR+/KfZ7/8ut1Gef7QVTq0UccZWbrdM/IqvX2STtOl0P0cX2FbxfWEbrMkTpzzFiUu2W1LLbmJx5QQP4UeuB3llxl7e5w6omDsbbRmoPRUcf58f12byBSzgVT884Vtu9T5Q8CBeJ38uUeHH1tVE9pazp04nlWll/Js6CexSzT7eTTyhehav5kji0b98RCqqTtL3+/brvn97y2nXJS6Z7Xv20oghg9mv30d1JnKsgEei7234gn5+8YXswplA//fpv/lHS0do4R8Wa6e2ud20c7daFyzGSZY8FpRbRxBSWBsEybrhltJWXssybe3LawZ+9sdH6a9/ul+5my6YepYqJu6mXy5+sq1TOs0byxPHLUfcSTx/IRIQYPUKB9h+HCe+fukMW8oQ7qgdEZnof+3jf6m5i/iYKJKP8DvIS2CNK3jkNRwi8h6lkYOS1UveZF+efBa9/FfKKymRXfVuIXv0yXp9EW3uSO3wl1aPtq9tC9kVuISX/t6+8AqK5g5gBv/SW+TDLzYq42/vdWj6zNqmsbGVUa8sB800WrUWFcjqn4t5ieSfeSSvOguxmiz/ZSP7ELtQWvri97BhFR+9GE1ZzikTwUaR+YgrWd9dPOErHcSP2SBrIi4hcRMZpZaNtyMiK5nuZWM5mzuAaTxTISufxPj/hfP51yzKlTPR9tQhrp2/8PX/ydYJGuuR61rFHcbvuH1vcDltHkUrM8k2iPuGXT7yK19Zot1yEYBW1qGthecMs54m6nc9UdBg7gRSradXbGth/K1/h+3qlqWd++8hGvBrnmhJs360wuISqs6w7tlbTju3B7bdCuYSwjdGfmkpyy5r2EfXnthbrr3zJX8Sjz6fu/e3yjis/Oc6euuTf6mlhR2d01PHxN0zdHAy7eEfWIm/3RNFXlI3ijufTP7Vdh6PpDsSmaeRFU4WfnndHl6m2dZbUx3R11Fdjh5zdb0v8g+b5rDxv5InXve1MNDttT2WRyNRbNQL2XnfMen2NDTPD2LDnsA+d34wp2I2+rIc09kiP0KL4HqOc30tDXrLul/gH7HJ6iXprPYZ5jZalnP7fW8egAWIu5svvI4HO+3NAdhbzsUX3C3j7+K20nh+UdrSO25T7/yQEWIF//JYJlpPnapTK2xuffJZVzcJ9YGATiCSU3ewYZO18it4RAxpTWASd0pv8A/A5EnkCn7CgfQcAY8y/oJJ1vleze/JSeO3OibzvIP8staHXTun6hro/Fvu6DmSqBkEQKBdAnN53uEOXgE1yObr/xmP+rd58qi/3Sv1nAMeZ/w9By1aCgIgoBFAAHeNhPtsYfzd516gJSAAAiDgMgK2hzCX1YeKQAAEQAAE3IAAjL8b3AQ0AQRAAARcTQDG39XEUR8IgAAIuAEBGH83uAloAgiAAAi4mgCMv6uJoz4QAAEQcAMCMP5ucBPQBBAAARBwNQEYf1cTR30gAAIg4AYEYPzd4CagCSAAAiDgagIw/q4mjvpAAARAwA0IwPi7wU1AE0AABEDA1QRg/F1NHPWBAAiAgBsQgPF3g5uAJoAACICAqwm0eum4v48/DYwerdrRxNF2Mgp3urpNqA8EQAAEQMDJBFoZ/z7+4XTOyGv0amH8dRRIgAAIgECvIQC3T6+5lbgQEAABELCfQCvj72BcZ/trQkkQAAEQAAG3IYBgLm5zK9AQEAABEHAdgVYjf9dVjZpAAARAAAR6igCMf0+RR70gAAIg0IMEYPx7ED6qBgEQAIGeItCu8d/0j5d7qk2oFwRAAARAwMkE2jX+Tq4X6kEABEAABHqQAIx/D8JH1SAAAiDQUwRa/cK3pxrSUb0xwXE0PGlWqyJbMz6kOktdq3xkgAAIgAAIdEzAI4x/n6AYSk2Y3OpKdmR+THX8DwICIAACIOAYAY8w/idPlVJW4Q51ZYlRI8jfN9Cxq0RpEAABEACBZgQ8wudfWJVHG/e9pT4llceaXQB2QAAEQAAEHCfgESN/Ry8r1C+UJqZeSgkRQynIP5SqakrpaPEe+j5rvZojuPSsu5XKbekfUF55div1qXETaSTPMazdvkwdU/pSLqH4iFQKDgijmroqKizPpO/S11B5XYV+/sjE6eyemqr2tx56n1J5v3/USArwC6Kyqnz6cPszelkkQAAEQKAnCfQ64x8RGEkXT/o9+XJcAk1CgyJpRP9zaUDMGFqz7SkK4zkEOR4Tltym8e8XNYyiQvup06O47EXcWRj1SYcyMDaNkjjuwbptS6m4pkiVDQuK1c+bO+428vb20ZpAEaEJehoJEAABEOhpAh7h9nEE0uTUH+uGuuzkcdqe8ZEaqYuOkMAIGjvgfCq2uY4ibAY+rk9/SopMpWg23iJRoYlqK19Thi7U9R3M3UQbdq6gvTkb1XEx7lOHX63SLb/k2PHSDNp86APakv5PNfJvWQb7IAACINBTBDoc+Tv7V77Tb7jV1Ov29fKlxOjhSmdjo4VH+c9QE//L4cniK6Y9rPJTEqbQ4ePbKS5iMEWHWEf3MkqXkX0Ru4DW7VjOTwbWTiDIJ5DiIwer88TVs+PwepWWzmNQ3ATlAuobnqzyWn5lcwS0L/e9qWfv444DAgIgAALuQqBD42+2cXb2RUcERetVFJYfUYZfMsQvf6q+RvnexWVTUnVUlQsL7kvhARH6yD66TxKF+4fp7pqwEGsnIIXlvKvPfVydZ89XVsF2e4qhDAiAAAj0CAGPc/sYg814eTVvvpeXlw6xobFGT0uiwXJK3y+tzFVpcc0kxY7R89V+3zR938fLT087mqhrOF2fo+eiPAiAAAg4m0CHI39nV94V/XUN1fppYcGxVFVepe+X15boaVmZo0mwT5Dy98t+XUMtldQUa4doeOIMld6dvYHGJl9AIxJnqv3KmhJeJWSdyJUMWTH03ubH1LFWX6f7HMOhRkMaSRAAARBwLwLNh87u1bY2W1PFRlmTtOQF1I997lHsoxd3jbzqoby6QB0WH/70YVdRfFgSnTPqOu0UOlayj91BjXq5PkFRJPMD6TafvKwMEimqzKaKukp9sljyJwyaRzEhcfwjM14pxNvJQy6m+eNu0XUjAQIgAAKeQsDjRv6HC7bSqAGzFF+ZjI2PvF2lC8oO0/qdL9G3+1fT/Im/U3lDec29fDQRI7+DV/+IFFXkUDi/M0jkeFkmVdRbDb349kWK+bjI1zxpO9dm4NOS55J8jKJ1NsY8pEEABEDA3Ql43Mj/xMkC2rjnHyRuGaM02SYDjlfm0Ge8YkdW5xhFjPTHvCZfRvMixZXWSV9J55celA3l2baSLrHNC+SWZSh94vZpKQ38pHGkcLee3dh02tXTpDVIP4oECIAACLgPgXYDuMsyT09b7dMSa5h/H16OGUkV1UVUbWk+AdyyrD37svQzLDhGFa09VUHl/KE2/f32aEMZEAABEOg5Ah7n9nEElYzytZG+I+e1V7bGUks1xncLwfC3hwr5IAACbk7A49w+bs4TzQMBEAABjyAA4+8RtwmNBAEQAAFzCXis8Xf2qyfMxQxtIAACIOBeBDzW+LsXRrQGBEAABDyLAIy/Z90vtBYEQAAETCEA428KRigBARAAAc8iAOPv5vcrLTWFlt55G82bNsWUlpqtz5RGQQkIgIDLCcD4uxy5YxWOTh1C08aOolmTJjh2YjulzdbXTjXIBgEQcHMCMP5ufoPQPBAAARBwBoFe/QtfZwBrT2e/qCi654ZraEzKIAoKCCCJLXCypoZ2Z2TRQ8tfper6+vZObTN/7XNLyM/HR+mSAtPHjKL1y5fqZe9Y+gJl5ebSqicXU3BgIN3/wqtcV6Z+/Mo5s+gXly2gI/kFdMsTy8gefYdyTr/vSFeEBAiAQK8kgJG/Sbd1yMAkmjJ6BEcB86asvOPqI53A2WNG0vvPPk7ehkAz9lRZUl5BpZVVVFtXp4pb+I2ksq996ji/3tJIb63fQBF9QunZu2+niKAgVTa1fyLdec1VFBYSQiveXaPy7NFnT7tQBgRAoHcQwMjfpPuYeSSHFr30V/py+/e6RjH4X6x8nsJDQ2k2++z/s/U7/VhniRsefkIVuWbBPLr1qktp894DdP/zK1qdtnbj1zSV5wRmjB9Lz91/F93yyNO0/A93qiePVz/4WH8asFdfqwqQAQIg0CsJeLTxd/avfB15q2leSSnJJ4xH+0n9+lFCbLR6CsgvKqYBCXH8iXfaH9CDL66k9555jFKTEmnN809SaHAw7TyYQW+s+9RpdUIxCICAZxPwaOPviHF29m0K8PGlZ+/9LY0bltJmVWEhwW3mm5HZ0NhItz66lFY//Ygy/FXV1XTPM8vNUA0dIAACvZSARxt/d7onT9zxa2X4a2rr6Kvvd9L/du2h0ooKuuUnV9CIQQPIh4PFO1P6RkeTj491CieQnz6ks6kpL3dmldANAiDgwQRg/E26eeOGWkf8D7y0krbs2adrTYqzBn/RM2yJRTddT6OHDFJ7W/bspz+//U7LImq/iSMOi/jyyp/2JJLdPM/e+xvl5z+cm0+DExPolYfvo6vuWUTyVGAUe/QZyyMNAiDQOwlgtY9J91UzzhVVp8NHyqob8b+3JWlDh1BSfF/1GZMyuK0iKq+w2Bo+cgSvJmpPXl50LwX6+9M3O3+g6xY9SrmFRdQ3MoIeufXmVqfYo6/VScgAARDodQQw8jfplmYezaNhyUn0wn130L+3fMduHm+ad/bkbmvffeAgSTzgyLA+aq3+vsPZVF9voRXvvE/5PMF838+vURPKpRWVtOjFV1V9v+F1/e8te5xmTkyjy2bPoDVf/ldvR2f69IJIgAAI9GoCGPmbdHvvf+5lOlFWrn5wdcnM6XTRuWdTGT8FSEcg0jKge8v99ppRyOv9l7y2iqqqayiaOwBZ0jln8niKj43h1z6MJqmrkV07tz3+rFr3L3rknAeW/0WpvOe6hc1Ud6SvWUHsgAAI9GoCHhvA3V0DzA/pl0D94+Npb3oGnais7NV/PLg4EAABzyUAt4/J9y4zL5/kAwEBEAABdyYAt4873x20DQRAAAScRADG30lgoRYEQAAE3JkAjL873x20DQRAAAScRADG30lgoRYEQAAE3JkAjL873x20DQRAAAScRADG3ySwcyZPpJX8S9sLpkwySSPUgAAIgIDzCMD4m8R2LAdaH8Xv6hnLr20wU8wOuG62PjOvFbpAAARcRwDG33Wsu1ST2QHXzdbXpYvCSSAAAj1OAMa/x28BGgACIAACrieAX/iazDw8NITefOxBSuboXSLHCoronmUvUm5xsUM12RNwHQHcHUKKwiAAAgYCGPkbYJiRlIlfMfyH+RUPJ2tq1Rs3Vz21mMIDAxxSb0/AdQRwdwgpCoMACBgIYORvgGFW8sbFSyj96DGSAO7vPPUn6sdv4Pzlwitp6eur7K7C3oDrCOBuN1IUBAEQMBDwaOPvTgHcNaaZx/KU4Zf9Rn4P/1/XfEIP3Xw9TR09Uiti+hYB3E1HCoUg0OsJeLTxd6cA7tpfypH8Ai2ptgcystU2PDS0Wb6ZOwjgbiZN6AKBM4MAfP4m3+f6hvpmGhubLGrfy8mk2wrg3qwh2AEBEAABAwGPHvkbrsNtkons3zdKYrx11U/FyWpjNiGAezMc2AEBEHAxASePR118NW5Q3cjByRQRFKS35Kfzz1fpA9k5ep4kEMC9GQ7sgAAIuJgARv4mA/fmwO2rlz5K6zdtpmEDB9C4YSkqfu/yt97tUk2dBVxHAPcuYcVJIHDGE8DI36Q/gcamRqVpd3omBQUE0MK55ynD39BgofuXr6S8kpJmNSGAezMc2AEBEHAxAQRwdwJwWd+fNjSFLJZG2pN5WC35dEI1UAkCIAACXSYAt0+X0bV/oqzv33Ewvf0COAICIAACPUwAbp8evgGoHgRAAAR6ggCMf09QR50gAAIg0MMEYPx7+AagehAAARDoCQIw/j1BHXWCAAiAQA8TgPHv4RuA6kEABECgJwhgtU9PULejzrQBs6lPUF9qokbadPA9O85ov0hMcBwNT5rVqsDWjA+pzlLXKh8ZIAACvZ8AjL+b3uMh8ZMonI22SHeNf5+gGEpNmNzqSndkfkx1/A8CAiBw5hGA8T8D7vnJU6WUVbhDXWli1Ajy9w08A64alwgCINARAfj8O6LTS44VVuXRxn1vqU9J5bFeclW4DBAAge4QwMi/O/RanJsQNpDGDVpAMWEDyNfHnxrYny6j7szj22hXzpeq9OTBF1NC1FCV/nzHS1RjqaX+ESk0MeVSlbf7yOeUVfRDM839wpNpSuqPKSI0gcqrC+j7zE8ou3hvszJm7oT6hdLE1EspIWIoBfmHUlVNKR0t3kPfZ61XcwSXnnW3qm5b+geUV57dqurUuIk0kucY1m5fpo4pfSmXUHxEKgUHhFFNXRUVlmfSd+lrqLyuQj9/ZOJ0dk9NVftbD71PqbzfP2okBfgFUVlVPn24/Rm9LBIgAALdIwDj3z1++tkyqXrhhN/q+5KQDkD89qkJ03TjH9WnP0WF9lPlfLwZP8d6CWQDq+WFBEQ20yE7F6TdSt7ePipf9M0ecyP9e9crdLTU/FdIRARG0sWTfq/arjUkNCiSRvQ/lwbEjKE1256iMJ5DkGuLCUtu0/j3ixqmX08Ul72IOwspr4l0KANj0ygpejSt27aUimuK1KGwoFj9vLnjbtOvWQ5KxwcBARAwjwCMv0ksk/tO0DV9xxOph49vV771eDaE8Tyy767syfmCDeY4XgEUpVTJE8bR0ue7q7bV+ZP5CUMz1GUnj1NG/lYaNeA89QQQEhhBYwecT8XsOoqLGMwG2dqJxXGH5u8bRNW1ZcqQR4Um6nqnDF2o6zuYu4lyinZTP553GDVgljLuU4dfTZ/sWK6X1xLS2R0vzaDsol3kxS/KG5ZwtnYIWxAAARMIeKzx37JnP7lTAPdTlhr9diRGjSLxreeVH6YSNnj7+NMd+d/Bd+lQwXbamf05XTtjiVIlriWzxdfLlxKjhyu1jY0WHuU/w0tNmyiHJ4uvmPawyk9JmKI6NjH+0SFW4y+jdOkwitgFtI4NuYzgRYJ8Aik+crBKi6tnx+H1Ki2dx6C4CcoF1JddWm1JduFO+nLfm/qh7jLUFSEBAiCgCHis8b9rWevRYk/e0yPHv6OzhlysmiAGLz7yFpXef+xr2nPk31RVX9Xl5p2oyFbn1jfWK5+/tgS0ywrbOTEiKFo/Ulh+RBl+yRC//Kn6GuV7F5dNSdVRVS4suC+FB0ToI/voPkkU7h+mu2vCQqydgBSW864+93F1nj1fWdzZQUAABJxHAKt9TGJbUV9JH21Zoi+p1NSKr/zyqQ+QdwcR3L28rP587ZyW24aGU3qWxdI8QLx+wM5Ek6GcV4s2iXtFk4bG008yktdgOd2G0spcVUxcM0mxY7RTlNFP6pum7/t4+elpRxN1hmt29FyUBwEQ6JyAx478O78015eQiUtZUvntgXcpjt0Z4wbN11f+9I8cSjklBziwC8/w2iTQP0Q9EUQafOTaMeM2OnwAVZzYS178LyKkexOfdQ3Vuuqw4FiqKj/9RFJeW6Ifk5U5mgT7BJH4+0XqGmqppKZYO0TDE2eo9O7sDTQ2+QIakThT7VfWlPAqIetErmTIiqH3Nj+mjrX6Ot3nGA5ZI6MZMpAEARAwkQBG/ibBHBQ9itIGziFZ1ljXWMeTsYfUZKmmXlwkIjWGpY1D+02nxPDBlBI/WSvW5vasIZdTUmQqTR/2E92lIsa0K1LFRlmTtOQFJMtIo9hHL+4aedWDLCUVER/+9GFXUXxYEp0z6jrtFDpWso/dQY16OZmAlvmBdNu8hqwMEimqzKaKukq1rFP2JX/CoHkUExLHk8O8Uoi3k9lNNn+c1T0mZSAgAAKuI4CRv0msQ9gITuAVOPKR9f0i2qoZSReWZciGV7Cks7GfpNLDeB27fDoTMZznp/26WbEfcjY027d353CBrN6ZpYpb5yZuV+mCssO0fudL9O3+1TR/4u9U3lBecy8fTcTI78j4SO0WVeTor584XpZJ4vaSSV3x7YsU83GRr3nSdq7NwKclzyX5GEXrbIx5SIMACDifAEb+JjGuqjmhJkVFnRh9zfBLRyCrdeRXtiKZvHImn5cwaiLH9+Zs1HZ1t5AxwPuW9H/qxyUhk8gH8rY0y7N358TJAtq45x8kbhmjcORJJccrc+gzXrEjhtwoYqQ/5jX5MpoXKa60TvpKOr/0oGwoz7aVdIltXiCXOz3R19aTilz7kcLdUlxJY9NpV4/x+rXj2IIACJhHwGMDuJuHwFxN4vYJ8u9Dfr4BbEArqby2lA36aaOm1RbJP6by47XxRfzLVVlO2Zn4efvxD6DiqeJkkfpVcGflzTgextcRzD86q6guomrDUtau6paln2HBMer02lMVVM4fnsaAgAAI9AABuH1Mhi5LOu1Z1lnKnQKR/X57WeZZUHF6tC3NnjzkErtavzXT6qqxq7ChkIzytZG+IbvLSXmVRY3x3UIw/F1miRNBoLsEYPy7S7AHzx+VZF1Z01kTumr8O9OL4yAAAp5LAMbfc+8dbU3/0INbj6aDAAj0JAEY/56k38269+Z+000NOB0EQOBMJYDVPmfqncd1gwAInNEEYPzP6NuPiwcBEDhTCcDt4wZ3PsQvhMYP/pFqSQH/CCy98Hs3aBWaAAIg0JsJwPi7wd0N8A3WA6z7+PjC+LvBPUETQKC3E4Dbp7ffYVwfCIAACLRBAMa/DSjtZnX+Q9x2T8UBEAABEHAnAh7h9hkQNZx94hdxEJFciuAYthImMOP4Fn6zZCGN5xepiWzL+JAOcMhBEbMDhg+OHUsTOPC6vMHSGkD9Y0qz1VvI0br+Z1tv70i9o/rPVm+6LCzPph+OdO0lbepi8QUCIAACXSDgEcY/iF83LAHOtSDncp1D+01rdrlTOPasGH+zA4Yn86uaZ466Xq/LGkD9Jn3fYnuDp731jko8hyanXq6fL2EM54y9Wd9HAgRAAARcQcDj3D4b976mvzJZ3hS5+dAHipNElRJpGTB8w84V+lszpYwEDG9LtIDhok/eolnGL1wTOSvlMr24jNJ3Zv1Lvb9ez7Ql7KlXonlJgBdNJOatBDWHgAAIgICrCXQ48nenAOkamKzCH2jsgEKK6tNfBQzJPfEDPwZcqQ6bHTBcIliJq0dEXj/8Cb+aWOQUR8OaknqFSsuXvfWG85s8/X0D1XnyymQJdi7S0NhA9r6nR52ALxAAARDoJoEOjf/0G27tpnpzT5dgIvIK4LoGa7CUBt7WG2Lamh0wXItKJVchwU40KTKkJc/eeuX1yJocL0vXklTEwVDIzpe06SchAQIgAALdIOBxbp+OrtWZAcO9vU/3k5qLSWuLvfUag7g3GDqtekNwdE0ntiAAAiDgTAKnLZoza3GRbrMDhhujT8WFD+KHDm8Vvzae4+kaxd56JW6tJn3DB2pJimXdEBAAARBwJYFeZfy1gOESR1YLGJ5TuJMqTpVSGLtcBnOg9GieK/h01wq7GEv0qrKTxykiJF4FTr9yyv0cg/cQpfY7HddWFNlb73/2/E1NFsuTg6waGp98gdI/MmmWXe1BIRAAARAwi0CvMv4CxeyA4Vt49c+88bcp3jL52yeoueHXboQ99dbxpPHBvG9pRP9z1Wnjki/UTscWBEAABFxKwCN8/k2tYuBaY+I2kYUaW8S/NTtgeB7/iOvT756n3OJ9VM0xZ3OLD6gORrtLslJHxN56t2euUzq082USu1mAdi2SulYAWxAAARBwAoFeHcDdjIDhoiPQL4isMXetd2Bk4nR9qechHslvsv3WQLs/9tQrvwYOCQinopP5bQZ413RhCwIgAALOINDr3D5GSGYEDJdlnAsm3MGvlsijUjbUkfJ6CZ430CSfX8HcUuyp195A7y11Yx8EQAAEzCDQq42/GYA0HS1fLyH5x0sz6HDRbq0ItiAAAiDgMQRg/Du5VWUnC2nzwfcphpdmBvuH8wxDE1XWFKlVP1kn9nZyNg6DAAiAgHsS8FjjL6+ecMUvkE/xD7D25/+PSD4QEAABEOglBDxitU8vYY3LAAEQAAG3IQDj7za3Ag0BARAAAdcRgPF3HWvUBAIgAAJuQwDG321uRdsNSUtNoaV33kbzpk1pu4CDuWbrc7B6FAcBEHATAjD+bnIj2mvG6NQhNG3sKJo1aUJ7RRzKN1ufQ5WjMAiAgNsQgPF3m1uBhoAACICA6wh47FJP1yGyr6Z+UVF0zw3X0JiUQRQUEEBeXl50sqaGdmdk0UPLX6Xq+nr7FNlKrX1uCfn5+ChdkjV9zChav3ypruOOpS9QVm4urXpyMQUHBtL9L7zKdXFQGJtcOWcW/eKyBXQkv4BueWIZ2aPvUM5R7XRsQQAEejkBjPxNusFDBibRlNEj+NXP3pSVd1x9pBM4e8xIev/Zx8mbOwNHpKS8gkorq6i2zhq1zMIvgJN97VPH+fWWRnpr/QaK6BNKz959O0UEBakqUvsn0p3XXMURxkJoxbtrVJ49+hxpH8qCAAh4NgGM/E26f5lHcmjRS3+lL7d/r2sUg//FyucpPDSUZrPP/j9bv9OPdZa44eEnVJFrFsyjW6+6lDbvPUD3P986DsHajV/TVJ4TmDF+LD13/110yyNP0/I/3KmePF794GP9acBefZ21C8dBAAR6BwGPNv7uFGA+r6SU5BPGo/2kfv0oITZaPQXkFxXTgIQ4/sQ77S/mwRdX0nvPPEapSYm05vknKTQ4mHYezKA31n3qtDqhGARAwLMJeLTxd8XrHey9vQE+vvTsvb+lccNS2jwlLCS4zXwzMhsaG+nWR5fS6qcfUYa/qrqa7nlmuRmqoQMEQKCXEvBo4+9O9+SJO36tDH9NbR199f1O+t+uPVRaUUG3/OQKGjFoAPlw6EZnSt/oaPLxsU7hBPLTh3Q2NeXlzqwSukEABDyYAIy/STdv3FDriP+Bl1bSlj37dK1JcTF62phYdNP1NHqINXD7lj376c9vv2M8rKflLaIivrzypz2JZDfPs/f+Rvn5D+fm0+DEBHrl4fvoqnsWkTwVGMUefcbySIMACPROAljtY9J91YxzRVWVrlFW3Yj/vS1JGzqEkuL7qs+YlMFtFVF5hcWlajuCVxO1Jy8vupcC/f3pm50/0HWLHqXcwiLqGxlBj9x6c6tT7NHX6iRkgAAI9DoCGPmbdEszj+bRsOQkeuG+O+jfW75jN483zTt7cre17z5wkJo4rm9kWB+1Vn/f4Wyqr7fQinfep3yeYL7v59eoCeXSikpa9OKrqr7f8Lr+95Y9TjMnptFls2fQmi//q7ejM316QSRAAAR6NQGM/E26vfc/9zKdKCtXP7i6ZOZ0uujcs6mMnwKkIxARA26UlvvGY8Z0Ia/3X/LaKqqqrqFo7gBkSeecyeMpPjaGX/swmqSuRnbt3Pb4s2rdv5wr5zyw/C9KzT3XLTSqU8fa09esIHZAAAR6NQGPDeDuqmAujt79If0SqH98PO1Nz6ATlZWOno7yIAACIOASAnD7mIw5My+f5AMBARAAAXcmALePO98dtA0EQAAEnEQAxt9JYKEWBEAABNyZAIy/O98dtA0EQAAEnEQAxt9JYKEWBEAABNyZAIy/O98dtA0EQAAEnEQAxt8ksHMmT6SV/EvbC6ZMMkkj1IAACICA8wjA+JvEdiwHWh/F7+oZy69tMFPMDrhutj4zrxW6QAAEXEcAxt91rLtUk9kB183W16WLwkkgAAI9TgDGv8dvARoAAiAAAq4ngF/4msw8PDSE3nzsQUrm6F0ixwqK6J5lL1JucbFDNdkTcB0B3B1CisIgAAIGAhj5G2CYkZSJXzH8h/kVDydratUbN1c9tZjCAwMcUm9PwHUEcHcIKQqDAAgYCGDkb4BhVvLGxUso/egxkgDu7zz1J+rHb+D85cIraenrq+yuwt6A6wjgbjdSFAQBEDAQ8Gjj704B3DWmmcfylOGX/UZ+jfNf13xCD918PU0dPVIrYvoWAdxNRwqFINDrCXi08XenAO7aX8qR/AItqbYHMrLVNjw0tFm+mTsI4G4mTegCgTODAHz+Jt/n+ob6Zhobmyxq38vJpNsK4N6sIdgBARAAAQMBjx75G67DbZKJ7N83SmK8ddVPxclqYzYhgHszHNgBARBwMQEnj0ddfDVuUN3IwckUERSkt+Sn889X6QPZOXqeJBDAvRkO7IAACLiYAEb+JgP35sDtq5c+Sus3baZhAwfQuGEpKn7v8rfe7VJNnQVcRwD3LmHFSSBwxhPAyN+kP4HGpkalaXd6JgUFBNDCuecpw9/QYKH7l6+kvJKSZjUhgHszHNgBARBwMQEEcHcCcFnfnzY0hSyWRtqTeVgt+XRCNVAJAiAAAl0mALdPl9G1f6Ks799xML39AjgCAiAAAj1MAG6fHr4BqB4EQAAEeoIAjH9PUEedIAACINDDBGD8e/gGoHoQAAEQ6AkCMP49QR11ggAIgEAPE4Dx7+EbgOpBAARAoCcIwPj3BHXUCQIgAAI9TADGv4dvQGfVmx1w3Wx9nbUfx0EABNyTAIy/e94XvVVmB1w3W5/eUCRAAAQ8igCMv0fdLjQWBEAABMwhgF/4msNR1zKkXwI9dMuN1L9vLAX6+5O82yenoJCW/O0t2puVpZfrLIEA7p0RwnEQAIHuEMDIvzv0Wpx7TtpYev2xRZTSP5Hq6upp3+FsKqmspMGJCXTRjLNblO54FwHcO+aDoyAAAt0jgJF/9/jpZ/vyq5wf+tX15MUvdfvoq0301Gtv68fGpgyhyLAwfd+eBAK420MJZUAABLpKwKONvzsFcB85eBCFcBCXmto6Wvr6qmb3Y3dGZrN9s3cQwN1sotAHAr2fgEcbf3cK4D5iyCD115JzvMDlr3BGAPfe/x8VVwgCZhOAz98kogF+fkpTg6XBJI2OqUEAd8d4oTQInOkEPHrk704372D2EdWcRF7lY48ggLs9lFAGBEDAWQQw8jeJ7H4O3yjLOiP6hNKF06Y20xrGYR1lCahREMDdSANpEAABVxPAyN8k4hWnTtHf1q6nX115MT14889o/jlTaP/hI9QvNppmTEij9d9spqdbTATbUzUCuNtDCWVAAAQcJYCRv6PEOij/xrpP6dm33qUGi4XOGjGMrrtoLs2ZPFEt/9zFTwZGQQB3Iw2kQQAEXE0AAdydRDwpNoZSBg6gghMllH40h+o5mDsEBEAABNyFANw+TroTR4tOkHwgIAACIOCOBOD2cce7gjaBAAiAgJMJwPg7GTDUgwAIgIA7EoDxd8e7gjaBAAiAgJMJwPg7GTDUgwAIgIA7EoDxd8e7gjaBAAiAgJMJYLWPkwF3VX3agNnUJ6gvNVEjbTr4XlfVqPNiguNoeNKsVjq2ZnxIdZa6VvnIAAEQ6P0EYPzd9B4PiZ9E4Wy0Rbpr/PsExVBqwuRWV7oj82Oq438QEACBM48AjP8ZcM9PniqlrMId6koTo0aQv2/gGXDVuEQQAIGOCMDn3xGdXnKssCqPNu57S31KKo/1kqvCZYAACHSHAEb+3aHX4tyEsIE0btACigkbQL4+HLyd/eky6s48vo125XypSk8efDElRA1V6c93vEQ1llrqH5FCE1MuVXm7j3xOWUU/NNPcLzyZpqT+mCJCE6i8uoC+z/yEsov3Nitj5k6oXyhNTL2UEiKGUpB/KFXVlNLR4j30fdZ6NUdw6Vl3q+q2pX9AeeXZrapOjZtII3mOYe32ZeqY0pdyCcVHpFJwQBjV1FVRYXkmfZe+hsrrKvTzRyZOZ/eU9Y2oWw+9T6m83z9qJAX4BVFZVT59uP0ZvSwSIAAC3SMA4989fvrZMql64YTf6vuSkA5A/PapCdN04x/Vpz9FhfZT5Xy8Gb+FKJANrJYXEhDZTIfsXJB2K3l7+6h80Td7zI30712v0NHS9FZlu5sRERhJF0/6vWq7pis0KJJG9D+XBsSMoTXbnqIwnkOQa4sJS27T+PeLGqZfTxSXvYg7CymviXQoA2PTKCl6NK3btpSKa4rUobCgWP28ueNu069ZDkrHBwEBEDCPAIy/SSyT+07QNX3HE6mHj29XvvV4NoTxPLLvruzJ+YIN5jheARSlVMkTxtHS57urttX5k/kJQzPUZSePU0b+Vho14Dz1BBASGEFjB5xPxew6iosYzAbZ2onFcYfm7xtE1bVlypBHhSbqeqcMXajrO5i7iXKKdlM/nncYNWCWMu5Th19Nn+xYrpfXEtLZHS/NoOyiXeqtqMMSztYOYQsCIGACAY81/lv27Cd3CuB+ylKj347EqFEkvvW88sNUwgZvH3+6I/87+C4dKthOO7M/p2tnLFGqxLVktvh6+VJi9HCltrHRwqP8Z3ipaRPl8GTxFdMeVvkpCVNUxybGPzrEavxllC4dRhG7gNaxIZcRvEiQTyDFRw5WaXH17Di8XqWl8xgUN0G5gPqyS6styS7cSV/ue1M/1F2GuiIkQAAEFAGPNf53LWs9WuzJe3rk+Hd01pCLVRPE4MVH3qLS+499TXuO/Juq6qu63LwTFdnq3PrGeuXz15aAdllhOydGBEXrRwrLjyjDLxnilz9VX6N87+KyKak6qsqFBfel8IAIfWQf3SeJwv3DdHdNWMjpkJZy3tXnPq7r7yyRxZ0dBARAwHkEsNrHJLYV9ZX00ZYl+pJKTa34yi+f+gB5e7WP2svL6s/Xzmm5bWg4pWdZLPV6uiuJJsNJXi3a5OXlpR9taDz9JCOZDZbTbSitzFXlxDWTFDtGP0ft903T9328rEHt9QwHEnWGa3bgNBQFARCwfOD1cAAAFZJJREFUk4DHjvztvD6XFpOJS1lS+e2BdymO3RnjBs3XV/70jxxKOSUHqLGJZ3htEugfop4IIg0+cu2YcRsdPoAqTuwlL/4XEdK9ic+6hmpddVhwLFWVn34iKa8t0Y/JyhxNgn2CSPz9InUNtVRSU6wdouGJM1R6d/YGGpt8AY1InKn2K2tKeJWQdSJXMmTF0HubH1PHWn2d7nMMhxD8xgADSRAwnUD7w1HTq+rdCgdFj6K0gXNIljXWNdbxZOwhNVmqXbW4SERqDEsbh/abTonhgyklfrJWrM3tWUMup6TIVJo+7Ce6S0WMaVekio2yJmnJC0iWkUaxj17cNfKqB1lKKiI+/OnDrqL4sCQ6Z9R12il0rGQfu4Ma9XIyAS3zA+m2eQ1ZGSRSVJlNFXWValmn7Ev+hEHzKCYkjieHeaUQbyezm2z+OKt7TMpAQAAEXEcAI3+TWIewEZzAK3DkI+v7RbRVM5IuLMuQDa9gSWdjP0mlh/E6dvl0JmI4z0/7dbNiP+RsaLZv787hAlm9M0sVt85N3K7SBWWHaf3Ol+jb/atp/sTfqbyhvOZePpqIkd+R8ZHaLarI0V8/cbwsk8TtJZO64tsXKebjIl/zpO1cm4FPS55L8jGK1tkY85AGARBwPgGM/E1iXFVzQk2Kijox+prhl45AVuvIr2xFMnnlTD4vYdREju/N2ajt6m4hY4D3Len/1I9LQiaRD+RtaZZn786JkwW0cc8/SNwyRmmyTQYcr8yhz3jFjhhyo4iR/pjX5MtoXqS40jrpK+n80oOyoTzbVtIltnmBXO70RF9bTypy7UcKd0txJY1Np109xuvXjmMLAiBgHgGPDeBuHgJzNYnbJ8i/D/n5BrABraTy2lI26KeNmlZbJP+Yyo/XxhfxL1dlOWVn4uftxz+AiqeKk0XqV8GdlTfjeBhfRzD/6KyiuoiqDUtZu6pbln6GBceo02tPVVA5f3gaAwICINADBOD2MRm6LOm0Z1lnKXcKRPb77WWZZ0HF6dG2NHvykEvsav3WTKurxq7ChkIyytdG+obsLiflVRY1xncLwfB3mSVOBIHuEoDx7y7BHjx/VJJ1ZU1nTeiq8e9ML46DAAh4LgEYf8+9d7Q1/UMPbj2aDgIg0JMEYPx7kn43696b+003NeB0EACBM5UAVvucqXce1w0CIHBGE4DxP6NvPy4eBEDgTCUA43+m3nlcNwiAwBlNAMb/jL79uHgQAIEzlQCM/5l653HdIAACZzQBGP8z+vbj4kEABM5UAh6z1NPewOfnclhACSPYxK9U2J7xIU1KuZwkbm5F9Qn6/vDHlHVij7rX9paTwghAfqb+98B1g0DvJeAxxt/ewOexHN5Qi3RlDHwu75SZNfoGarAFPre3HAKQ994/flwZCJzJBHq922dn1r/0d8/LjZbA521Je+VaBiDfsHOF/hZOiVwlAcjbEi0A+eZDH5C8lbOMX+AGAQEQAAF3IdDhyN+dAqR3Bdi3B9+h9ILv6IecL+m6mU8pFW0FPm+vHAKQd4U6zgEBEPAEAh0a/+k33OoJ19BuG09UZKljDU0NHQY+b68cApC3ixYHQAAEPJyAR7t9Ogt83mhp0G9PR4HP2yuHAOQ6PiRAAAR6GYEOR/7udK1dCXweFT6Qyot+4Hgh3h0GPm+vHAKQu9NfANoCAiBgJgGPMf4tA58HFO7sNPD5pCGXUVNjAyXHTeww8Hl75bQA5BKXVgtAnsP1VpwqpTCOcDWYA69H8zLST3etMPOeQBcIgAAIOJ2Axxj/rgQ+DwmMoNljbmoGsa3A5x2VQwDyZviwAwIg0EsIeIzP397A58b70jLwuQRKbyvweUflEIDcSBRpEACB3kLAY0b+EgT9X+xeaRn4fCv/arc92Ze7iTLyt1FkaByVniygOktdmwHDOyuXV55N7215jDoLQC7hEhEysb27gXwQAAF3IuAxxl+D5mjg87rGulaBzzVdxq095RCA3EgMaRAAAU8m4DFuH0+GjLaDAAiAgLsR8LiRf2cAC8qzqL7hlHqxW0dl7S3XkQ4cAwEQAAFPJeCxxl9ePdHWL5A3HXzPrnthbzm7lKEQCIAACHgYAbh9POyGobkgAAIgYAYBGH8zKEIHCIAACHgYARh/k27YnMkTaeWie+mCKZNM0gg1IAACIOA8AjD+JrEdm5pCo4YMorFDh5ik0aomjfUuvfM2mjdtiil6zdZnSqOgBARAwOUEYPxdjtyxCkenDqFpY0fRrEkTHDuxndJm62unGmSDAAi4OQEYfze/QWgeCIAACDiDgMcu9XQGDDN0hoeG0JuPPUjJCXFK3bGCIrpn2YuUW1zskPq1zy0hPx8fCgoIUOdNHzOK1i9fquu4Y+kLlJWbS6ueXEzBgYF0/wuv0u6MTP34lXNm0S8uW0BH8gvolieWkT36DuUc1c9HAgRAoHcTwMjf5PsrE79i+A/n5dPJmloawOlVTy2m8ECrEbe3upLyCiqtrKLaOn4fEYul0aL2JU8+dZxfb2mkt9ZvoIg+ofTs3bdTRFCQKpvaP5HuvOYqCgsJoRXvrlF59uhTBfEFAiBwRhDAyN8Jt/nGxUso/egx8vbyonee+hP1i42hXy68kpa+vsru2m54+AlV9poF8+jWqy6lzXsP0P3Pt44bsHbj1zSV5wRmjB9Lz91/F93yyNO0/A93khfX/eoHH+tPA/bqs7uBKAgCIODRBDza+LtjgPnMY3nK8MtfRWNTE/11zSf00M3X09TRI532h/LgiyvpvWceo9SkRFrz/JMUGhxMOw9m0BvrPnVanVAMAiDg2QQ82vi39XqHnr4d4mM3yoGMbLUbHhpqzDY13dDYSLc+upRWP/2IMvxV1dV0zzPLTa0DykAABHoXAfj8Tb6f9Q31zTRqsYe9nEy6b3Q0+fhYKwnkSeKwkOBm7cAOCIAACBgJePTI33gh7pJOZP++URLjrat+Kk5WG7Np0U3X02j+UZjIlj376c9vv9PsuLbTRE0q6csrf9qTSHbzPHvvb5Sf/3BuPg1OTKBXHr6PrrpnEclTgVHs0WcsjzQIgEDvJODk8WjvhNbRVY0cnKyvupFyP51/vip+IDun2Wlp/EvgpPi+6jMmZXCzY8adwuJStTtiYJIxu1n6ZX6tRKC/P32z8we6btGjlFtYRH0jI+iRW29uVk527NHX6iRkgAAI9DoCGPmbfEu9vb1p9dJHaf2mzTRs4AAaNyyFYws00fK33u1STbsPHFTnR4b1UWv19x3Opvp6C614533KLyml+35+jVpOWlpRSYtefFXV8Rte1//essdp5sQ0umz2DFrz5X/1ujvTpxdEAgRAoFcTwMjfpNsrMYZFdqdnqh9mLZx7njL8DQ0Wun/5SsorKWlWk3QI9kghr/df8toqqqquoWjuAGRJ55zJ4yme3UvTxo6mS2ZOp0Z27dz2+LNq3b/olHMeWP4Xpf6e6xY2q6Yjfc0KYgcEQKBXE/CiYePZDdzcLyxX3F6wFHeh4c7tk/X9aUNTyMI/wtqTeVgt+XQXbmgHCIAACAgBuH2c8Hcg6/t3HEx3gmaoBAEQAAFzCMDtYw5HaAEBEAABjyIA4+9RtwuNBQEQAAFzCMD4m8MRWkAABEDAowjA+HvU7UJjQQAEQMAcAjD+5nCEFhAAARDwKAIw/h51u9BYEAABEDCHAIy/ORydpsXsgOtm63PahUMxCICAUwnA+DsVb/eVmx1w3Wx93b9CaAABEOgJAjD+PUEddYIACIBADxPAL3xNvgFD+iXQQ7fcSP37xqo3bcq7fXIKCmnJ396ivVlZdtdmT8B1BHC3GycKggAItCCAkX8LIN3ZPSdtLL3+2CJK4QDqdXX1JG/gLKmsVO/Xv2jG2Q6ptifgOgK4O4QUhUEABAwEMPI3wOhO0pdf5fzQr65XAVU++moTPfXa27q6sSlDKDIsTN+3J2FvwHUEcLeHJsqAAAi0JOCxxl+iX7lTAPeRgwdRSFAQ1dTW0dLXVzXjvDsjs9m+2TsI4G42UegDgd5PwGON/13L3CtA+QhbSMac4wUuf4UzArj3/v+ouEIQMJsAfP4mEQ3w81OaGiwNJml0TA0CuDvGC6VB4Ewn4LEjf3e7cQezj6gmJfIqH3sEAdztoYQyIAACziKAkb9JZPdz+EZZ1hnRJ5QunDa1mdawgACSJaBGQQB3Iw2kQQAEXE3Ah2ISFhO1jif7i8suor+v/cTV7fHY+k5ZLOzrJzpr5DAVOD2NA7cnJySoGLt/+MV15MduoU27ftCv7ycXzKY+IcFqv7isgtZ+9Y1+zJioqqqihfPmUFBgAF06+1wVHnLmhPF04HAWVdXUqgDuk0ePIAng/qtHn1LzDV9t+55+zPoHJyZQCecfsD2ViN7O9BnrRhoEQKD3EsDI38R7+8a6T+nZt96lBu4IzhoxjK67aC4HW5+oln/u4icDoyCAu5EG0iAAAq4m4LEB3F0NytH6kmJjKGXgACo4UULpR3NIfpAFAQEQAAF3IYAJXyfdiaNFJ0g+EBAAARBwRwJw+7jjXUGbQAAEQMDJBGD8nQwY6kEABEDAHQnA+LvjXUGbQAAEQMDJBGD8nQwY6kEABEDAHQnA+LvjXUGbQAAEQMDJBLDapxPAg2PHUr+oEarUD9n/ovJT5Z2c4fjhEL8QGj/4R+rEgtJ0Si/83nElOAMEQAAEHCAA498JrITIVEpNmKxKpedtcorxD/AN1uvw8fGF8e/knuAwCIBA9wnA7dN9htAAAiAAAh5HAMbf424ZGgwCIAAC3SfgEW6fS8+6W13ptvQPKK88u9VVp8ZNpJFJs2jt9mXqWKhfKE1MvZQSIoZSkH8ovwCtlI4W76Hvs9ZTnaVOP39k4nR2t1jfwLn10PuUyvv9o0ZSgF8QlVXl04fbn9HLGhNxffrT1GELVVZTUyN99N2fVVrVm3IJxUekUnBAGNXUVVFheSZ9l76GyusqdBVS76j+syk0KJKPZ9MPRzbox5AAARAAAVcQ8AjjHxYUQ74+/hQTltym8e8XNYyiQvspXhGBkXTxpN+r8hpAMbIj+p9LA2LG0JptT+kdQFhQrH7e3HG3kbe3j3YKRYQ2fwWzdiA2JJ4uHP9bvezGva+pQ1Hcxou4k5J2aiIdz8DYNEqKHk3rti2l4poiGpV4Dk1OvVwrQn3Dk2nO2Jv1fSRAAARAwBUEPMLtU1x5TLGIsBl4GXkn8URsNBtvkajQRLWVr8mpP9YNcNnJ47Q94yM1ApdjIYERNHbA+ZJsJWL4j5dm0OZDH9CW9H+qkX/LQmHBcXThhN/phv8/u/9CWUXW1zRPGbpQr/dg7ibasHMF7c3ZqFSI7qnDryZvL28aN2i+rraIR/1SFgICIAACribQ7sjfnQKkn6jIobiIwRQdYh3dyyhdRthiPNftWE4yghfx9fKlxOjhKt3YaOFR/jMcqaCJcgp30BXTHlb5KQlTaDu7f1pKduFO+nLfm3r2vjaM8jkj/p9+/PMdL1Fu+WG1H+QTSPGRg1VaXD07Dlv1S6c1KG6CcgHJCD+cn0r8fQP1ctJ2kYbGBhqVNFOl8QUCIAACriDQrvF3pwDpJVVHFYuw4L4UHhChj7Cj+yRRuH+YPhKPCIrWmRWWH1GGXzLE336qvkb58sUV05ZkFWxvK7vdvLqGav1YWMjp0I2i/+pzH9ePGRPBAZH67vGydD1dVMbv+ofx13kgAQIg4HwCHuH2Ka3MVSTEfZIUO0anovb7pun7Xl5eerqhsUZPS6LBcqrZfsuduoaOj1t1nJ4snjHqBuXGkXwfL7+W6trcF7ePJg2Wei3J7/rvvG69MBIgAAIgYAKBdkf+Jug2TUVJTbGua3jiDJXenb2BxiZfQCMSre6SypoSKq8t0cvJihtNgn2ClL9f9usaarXsFtvOg6188cPfqF/kMBo98DwKC47h+YPzaOeRf/NqoiJdl6wsem/zY/q+MRETEqfv9g0fqKdjwwfpaSRAAARAwBUETg9FXVFbF+tookYqry5QZ/cJiiLx56fbfPKykkekqDJbreLRysmcwPRhV1F8WBKdM+o6VUa+jpXs09OOJhostbQrZ4NyIcm543nyViadK+oq9Ullac+EQfNIDL2/L69Q4u3kIRfT/HG3UMWpUtV2OTecJ4/Hc+c1iJ9kZJkqBARAAARcScAjRv4CpIgnfcVgihxnH3lFvdXgaj78Yj4u8u3+1TR/4u9Ueiiv4ZePJtJp7ODVP90R+Z3A/w6uplmjb1BqZoy6Xv0e4GueLJ7LBl4kLXmu+qgd25d0SnLuwbxv1bJTyR6XfKGxCNIgAAIg4DICHjHyFxrFldZJX0nnlx6UDeXZtpIusc0LHK/Moc94FY2sujGKGN+Pea29jNI1aeQfaGnSXkD1ZvlNTap41ok9VFBmXemj/R4gtyxD1Stun5bSwEb/SOFulb09cx3lFh/Qi0iHJEtLdbHVoe8jAQIgAAJOINBuAHcn1OVylWH+fXiZZSRVVBdRtaX5BLAzGyNLP2VOQKT2VAW/DI5/3Xt6Llrly6+BQwLCqehkPhk7IXUQXyAAAiDgZAK92vg7mR3UgwAIgIDHEvAYt4/HEkbDQQAEQMANCcD4u+FNQZNAAARAwNkEPNb4b/rHy85mA/0gAAIg0GsJeKzx77V3BBcGAiAAAi4gAOPvAsioAgRAAATcjYDH/MjL3cC5S3tcEWDeXa4V7QABEDCPAEb+5rHsEU1agHkJMh/Iv2uAgAAIgIA9BGD87aGEMiAAAiDQywjA+PeyG4rLAQEQAAF7CMDnbw+lTsp4SoD5Ti4Dh0EABM4gAjD+JtxsTwgwb8JlQgUIgEAvIgC3jwk30xMCzJtwmVABAiDQiwh47MgfAeY3tfozbC/AfKuCyAABEDjjCXis8UeA+Y7/do0B5jsuiaMgAAJnIgG4fUy46+4eYN6ES4QKEACBXkYAxt+EG9pegHlR7eoA83uOfKGuSAswb8LlQQUIgEAvJADjb8JNdfcA8yZcIlSAAAj0MgIw/ibdUAkwr4kxwLyWZwwwr+VJcPn5E+6gxKhhKsvMAPNaHRJgHgICIAACLQnA+Lck0sV9dw8w38XLwmkgAAK9lABi+Pbgje2pAPM9eMmoGgRAwE0IeOxSTzfh161mVNRVknwgIAACIOBqAnD7uJo46gMBEAABNyAA4+8GNwFNAAEQAAFXE4DxdzVx1AcCIAACbkAAxt8NbgKaAAIgAAKuJgDj72riqA8EQAAE3IAAjL8b3AQ0AQRAAARcTQDG39XEUR8IgAAIuAEBGH83uAloAgiAAAi4mgCMv6uJoz4QAAEQcAMCMP5ucBPQBBAAARBwNQEYf1cTR30gAAIg4AYEYPzd4CagCSAAAiDgagL/HxZZSKD431+gAAAAAElFTkSuQmCC;" vertex="1" parent="1">
          <mxGeometry x="420" y="720" width="383" height="347" as="geometry" />
        </mxCell>
      </root>
    </mxGraphModel>
  </diagram>
</mxfile>
